<svg width="75" height="62" viewBox="0 0 75 62" fill="none" xmlns="http://www.w3.org/2000/svg">
<mask id="path-1-inside-1_261_109" fill="white">
<path d="M0 0H75V62H0V0Z"/>
</mask>
<path d="M0 1H75V-1H0V1Z" fill="#E1001A" mask="url(#path-1-inside-1_261_109)"/>
<g clip-path="url(#clip0_261_109)">
<path d="M30.4987 19.2998V14.819C30.4987 14.587 30.6868 14.3989 30.9188 14.3989H35.2442C35.3445 14.3989 35.4414 14.4348 35.5176 14.5L37.7321 16.3982C37.8082 16.4634 37.9052 16.4993 38.0055 16.4993H44.0812C44.3132 16.4993 44.5013 16.6874 44.5013 16.9194V19.2998M30.4987 19.2998V25.1809C30.4987 25.4129 30.6868 25.601 30.9188 25.601H44.0812C44.3132 25.601 44.5013 25.4129 44.5013 25.1809V19.2998M30.4987 19.2998H44.5013" stroke="#E1001A" stroke-linecap="round" stroke-linejoin="round"/>
</g>
<path d="M13.8574 43H12L12.0117 41.6289H13.8574C14.3184 41.6289 14.707 41.5254 15.0234 41.3184C15.3398 41.1074 15.5781 40.8008 15.7383 40.3984C15.9023 39.9961 15.9844 39.5098 15.9844 38.9395V38.5234C15.9844 38.0859 15.9375 37.7012 15.8438 37.3691C15.7539 37.0371 15.6191 36.7578 15.4395 36.5312C15.2598 36.3047 15.0391 36.1348 14.7773 36.0215C14.5156 35.9043 14.2148 35.8457 13.875 35.8457H11.9648V34.4688H13.875C14.4453 34.4688 14.9668 34.5664 15.4395 34.7617C15.916 34.9531 16.3281 35.2285 16.6758 35.5879C17.0234 35.9473 17.291 36.377 17.4785 36.877C17.6699 37.373 17.7656 37.9258 17.7656 38.5352V38.9395C17.7656 39.5449 17.6699 40.0977 17.4785 40.5977C17.291 41.0977 17.0234 41.5273 16.6758 41.8867C16.332 42.2422 15.9199 42.5176 15.4395 42.7129C14.9629 42.9043 14.4355 43 13.8574 43ZM12.9961 34.4688V43H11.2383V34.4688H12.9961ZM22.3594 41.5703V38.7461C22.3594 38.543 22.3262 38.3691 22.2598 38.2246C22.1934 38.0762 22.0898 37.9609 21.9492 37.8789C21.8125 37.7969 21.6348 37.7559 21.416 37.7559C21.2285 37.7559 21.0664 37.7891 20.9297 37.8555C20.793 37.918 20.6875 38.0098 20.6133 38.1309C20.5391 38.248 20.502 38.3867 20.502 38.5469H18.8145C18.8145 38.2773 18.877 38.0215 19.002 37.7793C19.127 37.5371 19.3086 37.3242 19.5469 37.1406C19.7852 36.9531 20.0684 36.8066 20.3965 36.7012C20.7285 36.5957 21.0996 36.543 21.5098 36.543C22.002 36.543 22.4395 36.625 22.8223 36.7891C23.2051 36.9531 23.5059 37.1992 23.7246 37.5273C23.9473 37.8555 24.0586 38.2656 24.0586 38.7578V41.4707C24.0586 41.8184 24.0801 42.1035 24.123 42.3262C24.166 42.5449 24.2285 42.7363 24.3105 42.9004V43H22.6055C22.5234 42.8281 22.4609 42.6133 22.418 42.3555C22.3789 42.0938 22.3594 41.832 22.3594 41.5703ZM22.582 39.1387L22.5938 40.0938H21.6504C21.4277 40.0938 21.2344 40.1191 21.0703 40.1699C20.9062 40.2207 20.7715 40.293 20.666 40.3867C20.5605 40.4766 20.4824 40.582 20.4316 40.7031C20.3848 40.8242 20.3613 40.957 20.3613 41.1016C20.3613 41.2461 20.3945 41.377 20.4609 41.4941C20.5273 41.6074 20.623 41.6973 20.748 41.7637C20.873 41.8262 21.0195 41.8574 21.1875 41.8574C21.4414 41.8574 21.6621 41.8066 21.8496 41.7051C22.0371 41.6035 22.1816 41.4785 22.2832 41.3301C22.3887 41.1816 22.4434 41.041 22.4473 40.9082L22.8926 41.623C22.8301 41.7832 22.7441 41.9492 22.6348 42.1211C22.5293 42.293 22.3945 42.4551 22.2305 42.6074C22.0664 42.7559 21.8691 42.8789 21.6387 42.9766C21.4082 43.0703 21.1348 43.1172 20.8184 43.1172C20.416 43.1172 20.0508 43.0371 19.7227 42.877C19.3984 42.7129 19.1406 42.4883 18.9492 42.2031C18.7617 41.9141 18.668 41.5859 18.668 41.2188C18.668 40.8867 18.7305 40.5918 18.8555 40.334C18.9805 40.0762 19.1641 39.8594 19.4062 39.6836C19.6523 39.5039 19.959 39.3691 20.3262 39.2793C20.6934 39.1855 21.1191 39.1387 21.6035 39.1387H22.582ZM27.0117 38.0137V43H25.3242V36.6602H26.9062L27.0117 38.0137ZM26.7656 39.6074H26.3086C26.3086 39.1387 26.3691 38.7168 26.4902 38.3418C26.6113 37.9629 26.7812 37.6406 27 37.375C27.2188 37.1055 27.4785 36.9004 27.7793 36.7598C28.084 36.6152 28.4238 36.543 28.7988 36.543C29.0957 36.543 29.3672 36.5859 29.6133 36.6719C29.8594 36.7578 30.0703 36.8945 30.2461 37.082C30.4258 37.2695 30.5625 37.5176 30.6562 37.8262C30.7539 38.1348 30.8027 38.5117 30.8027 38.957V43H29.1035V38.9512C29.1035 38.6699 29.0645 38.4512 28.9863 38.2949C28.9082 38.1387 28.793 38.0293 28.6406 37.9668C28.4922 37.9004 28.3086 37.8672 28.0898 37.8672C27.8633 37.8672 27.666 37.9121 27.498 38.002C27.334 38.0918 27.1973 38.2168 27.0879 38.377C26.9824 38.5332 26.9023 38.7168 26.8477 38.9277C26.793 39.1387 26.7656 39.3652 26.7656 39.6074ZM33.7324 34V43H32.0449V34H33.7324ZM33.4922 39.6074H33.0293C33.0332 39.166 33.0918 38.7598 33.2051 38.3887C33.3184 38.0137 33.4805 37.6895 33.6914 37.416C33.9023 37.1387 34.1543 36.9238 34.4473 36.7715C34.7441 36.6191 35.0723 36.543 35.4316 36.543C35.7441 36.543 36.0273 36.5879 36.2812 36.6777C36.5391 36.7637 36.7598 36.9043 36.9434 37.0996C37.1309 37.291 37.2754 37.543 37.377 37.8555C37.4785 38.168 37.5293 38.5469 37.5293 38.9922V43H35.8301V38.9805C35.8301 38.6992 35.7891 38.4785 35.707 38.3184C35.6289 38.1543 35.5137 38.0391 35.3613 37.9727C35.2129 37.9023 35.0293 37.8672 34.8105 37.8672C34.5684 37.8672 34.3613 37.9121 34.1895 38.002C34.0215 38.0918 33.8867 38.2168 33.7852 38.377C33.6836 38.5332 33.6094 38.7168 33.5625 38.9277C33.5156 39.1387 33.4922 39.3652 33.4922 39.6074ZM43.4883 37.9727V43H41.7949V36.6602H43.3828L43.4883 37.9727ZM43.2539 39.6074H42.7852C42.7852 39.166 42.8379 38.7598 42.9434 38.3887C43.0527 38.0137 43.2109 37.6895 43.418 37.416C43.6289 37.1387 43.8887 36.9238 44.1973 36.7715C44.5059 36.6191 44.8633 36.543 45.2695 36.543C45.5508 36.543 45.8086 36.5859 46.043 36.6719C46.2773 36.7539 46.4785 36.8848 46.6465 37.0645C46.8184 37.2402 46.9512 37.4707 47.0449 37.7559C47.1387 38.0371 47.1855 38.375 47.1855 38.7695V43H45.498V38.957C45.498 38.668 45.459 38.4453 45.3809 38.2891C45.3027 38.1328 45.1914 38.0234 45.0469 37.9609C44.9062 37.8984 44.7363 37.8672 44.5371 37.8672C44.3184 37.8672 44.127 37.9121 43.9629 38.002C43.8027 38.0918 43.6699 38.2168 43.5645 38.377C43.459 38.5332 43.3809 38.7168 43.3301 38.9277C43.2793 39.1387 43.2539 39.3652 43.2539 39.6074ZM47.0273 39.4141L46.4238 39.4902C46.4238 39.0762 46.4746 38.6914 46.5762 38.3359C46.6816 37.9805 46.8359 37.668 47.0391 37.3984C47.2461 37.1289 47.502 36.9199 47.8066 36.7715C48.1113 36.6191 48.4629 36.543 48.8613 36.543C49.166 36.543 49.4434 36.5879 49.6934 36.6777C49.9434 36.7637 50.1562 36.9023 50.332 37.0938C50.5117 37.2812 50.6484 37.5273 50.7422 37.832C50.8398 38.1367 50.8887 38.5098 50.8887 38.9512V43H49.1953V38.9512C49.1953 38.6582 49.1562 38.4355 49.0781 38.2832C49.0039 38.127 48.8945 38.0195 48.75 37.9609C48.6094 37.8984 48.4414 37.8672 48.2461 37.8672C48.043 37.8672 47.8652 37.9082 47.7129 37.9902C47.5605 38.0684 47.4336 38.1777 47.332 38.3184C47.2305 38.459 47.1543 38.623 47.1035 38.8105C47.0527 38.9941 47.0273 39.1953 47.0273 39.4141ZM55.9453 41.4824V36.6602H57.6328V43H56.0449L55.9453 41.4824ZM56.1328 40.1816L56.6309 40.1699C56.6309 40.5918 56.582 40.9844 56.4844 41.3477C56.3867 41.707 56.2402 42.0195 56.0449 42.2852C55.8496 42.5469 55.6035 42.752 55.3066 42.9004C55.0098 43.0449 54.6602 43.1172 54.2578 43.1172C53.9492 43.1172 53.6641 43.0742 53.4023 42.9883C53.1445 42.8984 52.9219 42.7598 52.7344 42.5723C52.5508 42.3809 52.4062 42.1367 52.3008 41.8398C52.1992 41.5391 52.1484 41.1777 52.1484 40.7559V36.6602H53.8359V40.7676C53.8359 40.9551 53.8574 41.1133 53.9004 41.2422C53.9473 41.3711 54.0117 41.4766 54.0938 41.5586C54.1758 41.6406 54.2715 41.6992 54.3809 41.7344C54.4941 41.7695 54.6191 41.7871 54.7559 41.7871C55.1035 41.7871 55.377 41.7168 55.5762 41.5762C55.7793 41.4355 55.9219 41.2441 56.0039 41.002C56.0898 40.7559 56.1328 40.4824 56.1328 40.1816ZM53.3438 44.377C53.3438 44.1504 53.4297 43.9609 53.6016 43.8086C53.7734 43.6602 54.0039 43.5859 54.293 43.5859C54.5781 43.5859 54.8066 43.6602 54.9785 43.8086C55.1543 43.9609 55.2422 44.1504 55.2422 44.377C55.2422 44.5996 55.1543 44.7871 54.9785 44.9395C54.8066 45.0918 54.5781 45.168 54.293 45.168C54.0039 45.168 53.7734 45.0918 53.6016 44.9395C53.4297 44.7871 53.3438 44.5996 53.3438 44.377ZM61.541 41.7988C61.748 41.7988 61.9316 41.7598 62.0918 41.6816C62.252 41.5996 62.377 41.4863 62.4668 41.3418C62.5605 41.1934 62.6094 41.0195 62.6133 40.8203H64.2012C64.1973 41.2656 64.0781 41.6621 63.8438 42.0098C63.6094 42.3535 63.2949 42.625 62.9004 42.8242C62.5059 43.0195 62.0645 43.1172 61.5762 43.1172C61.084 43.1172 60.6543 43.0352 60.2871 42.8711C59.9238 42.707 59.6211 42.4805 59.3789 42.1914C59.1367 41.8984 58.9551 41.5586 58.834 41.1719C58.7129 40.7812 58.6523 40.3633 58.6523 39.918V39.748C58.6523 39.2988 58.7129 38.8809 58.834 38.4941C58.9551 38.1035 59.1367 37.7637 59.3789 37.4746C59.6211 37.1816 59.9238 36.9531 60.2871 36.7891C60.6504 36.625 61.0762 36.543 61.5645 36.543C62.084 36.543 62.5391 36.6426 62.9297 36.8418C63.3242 37.041 63.6328 37.3262 63.8555 37.6973C64.082 38.0645 64.1973 38.5 64.2012 39.0039H62.6133C62.6094 38.793 62.5645 38.6016 62.4785 38.4297C62.3965 38.2578 62.2754 38.1211 62.1152 38.0195C61.959 37.9141 61.7656 37.8613 61.5352 37.8613C61.2891 37.8613 61.0879 37.9141 60.9316 38.0195C60.7754 38.1211 60.6543 38.2617 60.5684 38.4414C60.4824 38.6172 60.4219 38.8184 60.3867 39.0449C60.3555 39.2676 60.3398 39.502 60.3398 39.748V39.918C60.3398 40.1641 60.3555 40.4004 60.3867 40.627C60.418 40.8535 60.4766 41.0547 60.5625 41.2305C60.6523 41.4062 60.7754 41.5449 60.9316 41.6465C61.0879 41.748 61.291 41.7988 61.541 41.7988Z" fill="#E1001A"/>
<defs>
<clipPath id="clip0_261_109">
<rect width="16" height="16" fill="white" transform="translate(29.5 12)"/>
</clipPath>
</defs>
</svg>
