<svg width="75" height="62" viewBox="0 0 75 62" fill="none" xmlns="http://www.w3.org/2000/svg">
<mask id="path-1-inside-1_270_360" fill="white">
<path d="M0 0H75V62H0V0Z"/>
</mask>
<path d="M0 1H75V-1H0V1Z" fill="#E1001A" mask="url(#path-1-inside-1_270_360)"/>
<g clip-path="url(#clip0_270_360)">
<path d="M44.9286 19.9314C44.9297 19.7728 44.8977 19.6157 44.8347 19.4701C44.7718 19.3245 44.6792 19.1936 44.5629 19.0857L37.5 12.5714L30.4372 19.0857C30.3209 19.1936 30.2283 19.3245 30.1653 19.4701C30.1023 19.6157 30.0704 19.7728 30.0715 19.9314V26.2857C30.0715 26.5888 30.1919 26.8796 30.4062 27.0938C30.6205 27.3081 30.9112 27.4286 31.2143 27.4286H43.7857C44.0888 27.4286 44.3795 27.3081 44.5938 27.0938C44.8082 26.8796 44.9286 26.5888 44.9286 26.2857V19.9314Z" stroke="#E1001A" stroke-linecap="round" stroke-linejoin="round"/>
<path d="M37.5 27.4286V22.8571" stroke="#E1001A" stroke-linecap="round" stroke-linejoin="round"/>
</g>
<path d="M15.1113 34.4688V43H13.3594V34.4688H15.1113ZM17.7363 34.4688V35.8457H10.7754V34.4688H17.7363ZM19.9102 38.043V43H18.2227V36.6602H19.8105L19.9102 38.043ZM21.8203 36.6191L21.791 38.1836C21.709 38.1719 21.6094 38.1621 21.4922 38.1543C21.3789 38.1426 21.2754 38.1367 21.1816 38.1367C20.9434 38.1367 20.7363 38.168 20.5605 38.2305C20.3887 38.2891 20.2441 38.377 20.127 38.4941C20.0137 38.6113 19.9277 38.7539 19.8691 38.9219C19.8145 39.0898 19.7832 39.2812 19.7754 39.4961L19.4355 39.3906C19.4355 38.9805 19.4766 38.6035 19.5586 38.2598C19.6406 37.9121 19.7598 37.6094 19.916 37.3516C20.0762 37.0938 20.2715 36.8945 20.502 36.7539C20.7324 36.6133 20.9961 36.543 21.293 36.543C21.3867 36.543 21.4824 36.5508 21.5801 36.5664C21.6777 36.5781 21.7578 36.5957 21.8203 36.6191ZM25.8398 41.5703V38.7461C25.8398 38.543 25.8066 38.3691 25.7402 38.2246C25.6738 38.0762 25.5703 37.9609 25.4297 37.8789C25.293 37.7969 25.1152 37.7559 24.8965 37.7559C24.709 37.7559 24.5469 37.7891 24.4102 37.8555C24.2734 37.918 24.168 38.0098 24.0938 38.1309C24.0195 38.248 23.9824 38.3867 23.9824 38.5469H22.2949C22.2949 38.2773 22.3574 38.0215 22.4824 37.7793C22.6074 37.5371 22.7891 37.3242 23.0273 37.1406C23.2656 36.9531 23.5488 36.8066 23.877 36.7012C24.209 36.5957 24.5801 36.543 24.9902 36.543C25.4824 36.543 25.9199 36.625 26.3027 36.7891C26.6855 36.9531 26.9863 37.1992 27.2051 37.5273C27.4277 37.8555 27.5391 38.2656 27.5391 38.7578V41.4707C27.5391 41.8184 27.5605 42.1035 27.6035 42.3262C27.6465 42.5449 27.709 42.7363 27.791 42.9004V43H26.0859C26.0039 42.8281 25.9414 42.6133 25.8984 42.3555C25.8594 42.0938 25.8398 41.832 25.8398 41.5703ZM26.0625 39.1387L26.0742 40.0938H25.1309C24.9082 40.0938 24.7148 40.1191 24.5508 40.1699C24.3867 40.2207 24.252 40.293 24.1465 40.3867C24.041 40.4766 23.9629 40.582 23.9121 40.7031C23.8652 40.8242 23.8418 40.957 23.8418 41.1016C23.8418 41.2461 23.875 41.377 23.9414 41.4941C24.0078 41.6074 24.1035 41.6973 24.2285 41.7637C24.3535 41.8262 24.5 41.8574 24.668 41.8574C24.9219 41.8574 25.1426 41.8066 25.3301 41.7051C25.5176 41.6035 25.6621 41.4785 25.7637 41.3301C25.8691 41.1816 25.9238 41.041 25.9277 40.9082L26.373 41.623C26.3105 41.7832 26.2246 41.9492 26.1152 42.1211C26.0098 42.293 25.875 42.4551 25.7109 42.6074C25.5469 42.7559 25.3496 42.8789 25.1191 42.9766C24.8887 43.0703 24.6152 43.1172 24.2988 43.1172C23.8965 43.1172 23.5312 43.0371 23.2031 42.877C22.8789 42.7129 22.6211 42.4883 22.4297 42.2031C22.2422 41.9141 22.1484 41.5859 22.1484 41.2188C22.1484 40.8867 22.2109 40.5918 22.3359 40.334C22.4609 40.0762 22.6445 39.8594 22.8867 39.6836C23.1328 39.5039 23.4395 39.3691 23.8066 39.2793C24.1738 39.1855 24.5996 39.1387 25.084 39.1387H26.0625ZM30.4922 38.0137V43H28.8047V36.6602H30.3867L30.4922 38.0137ZM30.2461 39.6074H29.7891C29.7891 39.1387 29.8496 38.7168 29.9707 38.3418C30.0918 37.9629 30.2617 37.6406 30.4805 37.375C30.6992 37.1055 30.959 36.9004 31.2598 36.7598C31.5645 36.6152 31.9043 36.543 32.2793 36.543C32.5762 36.543 32.8477 36.5859 33.0938 36.6719C33.3398 36.7578 33.5508 36.8945 33.7266 37.082C33.9062 37.2695 34.043 37.5176 34.1367 37.8262C34.2344 38.1348 34.2832 38.5117 34.2832 38.957V43H32.584V38.9512C32.584 38.6699 32.5449 38.4512 32.4668 38.2949C32.3887 38.1387 32.2734 38.0293 32.1211 37.9668C31.9727 37.9004 31.7891 37.8672 31.5703 37.8672C31.3438 37.8672 31.1465 37.9121 30.9785 38.002C30.8145 38.0918 30.6777 38.2168 30.5684 38.377C30.4629 38.5332 30.3828 38.7168 30.3281 38.9277C30.2734 39.1387 30.2461 39.3652 30.2461 39.6074ZM39.5801 36.6602H41.1094V42.7891C41.1094 43.3672 40.9805 43.8574 40.7227 44.2598C40.4688 44.666 40.1133 44.9727 39.6562 45.1797C39.1992 45.3906 38.668 45.4961 38.0625 45.4961C37.7969 45.4961 37.5156 45.4609 37.2188 45.3906C36.9258 45.3203 36.6445 45.2109 36.375 45.0625C36.1094 44.9141 35.8867 44.7266 35.707 44.5L36.4512 43.5039C36.6465 43.7305 36.873 43.9062 37.1309 44.0312C37.3887 44.1602 37.6738 44.2246 37.9863 44.2246C38.291 44.2246 38.5488 44.168 38.7598 44.0547C38.9707 43.9453 39.1328 43.7832 39.2461 43.5684C39.3594 43.3574 39.416 43.1016 39.416 42.8008V38.125L39.5801 36.6602ZM35.3145 39.9062V39.7832C35.3145 39.2988 35.373 38.8594 35.4902 38.4648C35.6113 38.0664 35.7812 37.7246 36 37.4395C36.2227 37.1543 36.4922 36.9336 36.8086 36.7773C37.125 36.6211 37.4824 36.543 37.8809 36.543C38.3027 36.543 38.6562 36.6211 38.9414 36.7773C39.2266 36.9336 39.4609 37.1562 39.6445 37.4453C39.8281 37.7305 39.9707 38.0684 40.0723 38.459C40.1777 38.8457 40.2598 39.2695 40.3184 39.7305V40C40.2598 40.4414 40.1719 40.8516 40.0547 41.2305C39.9375 41.6094 39.7832 41.9414 39.5918 42.2266C39.4004 42.5078 39.1621 42.7266 38.877 42.8828C38.5957 43.0391 38.2598 43.1172 37.8691 43.1172C37.4785 43.1172 37.125 43.0371 36.8086 42.877C36.4961 42.7168 36.2285 42.4922 36.0059 42.2031C35.7832 41.9141 35.6113 41.5742 35.4902 41.1836C35.373 40.793 35.3145 40.3672 35.3145 39.9062ZM37.002 39.7832V39.9062C37.002 40.168 37.0273 40.4121 37.0781 40.6387C37.1289 40.8652 37.207 41.0664 37.3125 41.2422C37.4219 41.4141 37.5566 41.5488 37.7168 41.6465C37.8809 41.7402 38.0742 41.7871 38.2969 41.7871C38.6055 41.7871 38.8574 41.7227 39.0527 41.5938C39.248 41.4609 39.3945 41.2793 39.4922 41.0488C39.5898 40.8184 39.6465 40.5527 39.6621 40.252V39.4844C39.6543 39.2383 39.6211 39.0176 39.5625 38.8223C39.5039 38.623 39.4219 38.4531 39.3164 38.3125C39.2109 38.1719 39.0742 38.0625 38.9062 37.9844C38.7383 37.9062 38.5391 37.8672 38.3086 37.8672C38.0859 37.8672 37.8926 37.918 37.7285 38.0195C37.5684 38.1172 37.4336 38.252 37.3242 38.4238C37.2188 38.5957 37.1387 38.7988 37.084 39.0332C37.0293 39.2637 37.002 39.5137 37.002 39.7832ZM48.0293 41.7988C48.2363 41.7988 48.4199 41.7598 48.5801 41.6816C48.7402 41.5996 48.8652 41.4863 48.9551 41.3418C49.0488 41.1934 49.0977 41.0195 49.1016 40.8203H50.6895C50.6855 41.2656 50.5664 41.6621 50.332 42.0098C50.0977 42.3535 49.7832 42.625 49.3887 42.8242C48.9941 43.0195 48.5527 43.1172 48.0645 43.1172C47.5723 43.1172 47.1426 43.0352 46.7754 42.8711C46.4121 42.707 46.1094 42.4805 45.8672 42.1914C45.625 41.8984 45.4434 41.5586 45.3223 41.1719C45.2012 40.7812 45.1406 40.3633 45.1406 39.918V39.748C45.1406 39.2988 45.2012 38.8809 45.3223 38.4941C45.4434 38.1035 45.625 37.7637 45.8672 37.4746C46.1094 37.1816 46.4121 36.9531 46.7754 36.7891C47.1387 36.625 47.5645 36.543 48.0527 36.543C48.5723 36.543 49.0273 36.6426 49.418 36.8418C49.8125 37.041 50.1211 37.3262 50.3438 37.6973C50.5703 38.0645 50.6855 38.5 50.6895 39.0039H49.1016C49.0977 38.793 49.0527 38.6016 48.9668 38.4297C48.8848 38.2578 48.7637 38.1211 48.6035 38.0195C48.4473 37.9141 48.2539 37.8613 48.0234 37.8613C47.7773 37.8613 47.5762 37.9141 47.4199 38.0195C47.2637 38.1211 47.1426 38.2617 47.0566 38.4414C46.9707 38.6172 46.9102 38.8184 46.875 39.0449C46.8438 39.2676 46.8281 39.502 46.8281 39.748V39.918C46.8281 40.1641 46.8438 40.4004 46.875 40.627C46.9062 40.8535 46.9648 41.0547 47.0508 41.2305C47.1406 41.4062 47.2637 41.5449 47.4199 41.6465C47.5762 41.748 47.7793 41.7988 48.0293 41.7988ZM53.3145 34V43H51.627V34H53.3145ZM53.0742 39.6074H52.6113C52.6152 39.166 52.6738 38.7598 52.7871 38.3887C52.9004 38.0137 53.0625 37.6895 53.2734 37.416C53.4844 37.1387 53.7363 36.9238 54.0293 36.7715C54.3262 36.6191 54.6543 36.543 55.0137 36.543C55.3262 36.543 55.6094 36.5879 55.8633 36.6777C56.1211 36.7637 56.3418 36.9043 56.5254 37.0996C56.7129 37.291 56.8574 37.543 56.959 37.8555C57.0605 38.168 57.1113 38.5469 57.1113 38.9922V43H55.4121V38.9805C55.4121 38.6992 55.3711 38.4785 55.2891 38.3184C55.2109 38.1543 55.0957 38.0391 54.9434 37.9727C54.7949 37.9023 54.6113 37.8672 54.3926 37.8672C54.1504 37.8672 53.9434 37.9121 53.7715 38.002C53.6035 38.0918 53.4688 38.2168 53.3672 38.377C53.2656 38.5332 53.1914 38.7168 53.1445 38.9277C53.0977 39.1387 53.0742 39.3652 53.0742 39.6074ZM62.1445 41.4824V36.6602H63.832V43H62.2441L62.1445 41.4824ZM62.332 40.1816L62.8301 40.1699C62.8301 40.5918 62.7812 40.9844 62.6836 41.3477C62.5859 41.707 62.4395 42.0195 62.2441 42.2852C62.0488 42.5469 61.8027 42.752 61.5059 42.9004C61.209 43.0449 60.8594 43.1172 60.457 43.1172C60.1484 43.1172 59.8633 43.0742 59.6016 42.9883C59.3438 42.8984 59.1211 42.7598 58.9336 42.5723C58.75 42.3809 58.6055 42.1367 58.5 41.8398C58.3984 41.5391 58.3477 41.1777 58.3477 40.7559V36.6602H60.0352V40.7676C60.0352 40.9551 60.0566 41.1133 60.0996 41.2422C60.1465 41.3711 60.2109 41.4766 60.293 41.5586C60.375 41.6406 60.4707 41.6992 60.5801 41.7344C60.6934 41.7695 60.8184 41.7871 60.9551 41.7871C61.3027 41.7871 61.5762 41.7168 61.7754 41.5762C61.9785 41.4355 62.1211 41.2441 62.2031 41.002C62.2891 40.7559 62.332 40.4824 62.332 40.1816ZM61.7285 35.5938H60.457L60.3633 34.8086C60.5586 34.7969 60.7148 34.7773 60.832 34.75C60.9531 34.7188 61.041 34.6758 61.0957 34.6211C61.1543 34.5664 61.1836 34.498 61.1836 34.416C61.1836 34.334 61.1621 34.2676 61.1191 34.2168C61.0801 34.1621 61.0215 34.1211 60.9434 34.0938C60.8652 34.0625 60.7754 34.041 60.6738 34.0293C60.5723 34.0137 60.4609 34.0059 60.3398 34.0059L60.3809 33.2324C60.7441 33.2324 61.0645 33.2578 61.3418 33.3086C61.623 33.3594 61.8574 33.4355 62.0449 33.5371C62.2324 33.6348 62.373 33.7539 62.4668 33.8945C62.5645 34.0352 62.6133 34.1934 62.6133 34.3691C62.6133 34.6387 62.5215 34.8398 62.3379 34.9727C62.1543 35.1016 61.9512 35.1816 61.7285 35.2129V35.5938Z" fill="#E1001A"/>
<defs>
<clipPath id="clip0_270_360">
<rect width="16" height="16" fill="white" transform="translate(29.5 12)"/>
</clipPath>
</defs>
</svg>
