<svg width="75" height="62" viewBox="0 0 75 62" fill="none" xmlns="http://www.w3.org/2000/svg">
<mask id="path-1-inside-1_261_360" fill="white">
<path d="M0 0H75V62H0V0Z"/>
</mask>
<path d="M0 1H75V-1H0V1Z" fill="#E1001A" mask="url(#path-1-inside-1_261_360)"/>
<path d="M35.5 23.5C35.2239 23.5 35 23.7239 35 24C35 24.2761 35.2239 24.5 35.5 24.5H39.5C39.7761 24.5 40 24.2761 40 24C40 23.7239 39.7761 23.5 39.5 23.5H35.5Z" fill="#E1001A" stroke="#E1001A" stroke-width="33.3333"/>
<mask id="path-4-inside-2_261_360" fill="white">
<path fill-rule="evenodd" clip-rule="evenodd" d="M37.5 12.8333C37.0279 12.8333 36.599 12.9686 36.1337 13.1948C35.6839 13.4136 35.1643 13.7361 34.5152 14.1389L33.1375 14.9939C32.5234 15.3751 32.0316 15.6803 31.6526 15.9706C31.2601 16.2711 30.9586 16.5773 30.7409 16.9751C30.5236 17.3721 30.4257 17.7945 30.3788 18.2938C30.3333 18.7777 30.3333 19.3694 30.3333 20.1115V21.1866C30.3333 22.4558 30.3333 23.4577 30.4351 24.2411C30.5396 25.0447 30.759 25.6934 31.2549 26.2063C31.753 26.7216 32.387 26.9518 33.1717 27.0609C33.9323 27.1667 34.9037 27.1667 36.1279 27.1667H38.8721C40.0963 27.1667 41.0677 27.1667 41.8283 27.0609C42.613 26.9518 43.2469 26.7216 43.7451 26.2063C44.2409 25.6934 44.4604 25.0447 44.5649 24.2411C44.6667 23.4577 44.6667 22.4559 44.6667 21.1866V20.1115C44.6667 19.3694 44.6667 18.7777 44.6212 18.2938C44.5743 17.7945 44.4764 17.3721 44.2591 16.9751C44.0414 16.5773 43.7399 16.2711 43.3474 15.9706C42.9684 15.6803 42.4766 15.3751 41.8625 14.994L40.4847 14.1389C39.8357 13.7361 39.3161 13.4136 38.8663 13.1948C38.401 12.9686 37.9721 12.8333 37.5 12.8333ZM35.0197 15.0028C35.6969 14.5825 36.173 14.2877 36.571 14.0941C36.9588 13.9056 37.2335 13.8333 37.5 13.8333C37.7665 13.8333 38.0412 13.9056 38.429 14.0941C38.827 14.2877 39.3031 14.5825 39.9803 15.0028L41.3137 15.8303C41.9542 16.2278 42.4039 16.5076 42.7394 16.7645C43.0658 17.0144 43.2535 17.2207 43.3819 17.4552C43.5108 17.6906 43.586 17.9658 43.6256 18.3874C43.6661 18.8191 43.6667 19.3639 43.6667 20.1359V21.15C43.6667 22.4639 43.6657 23.4008 43.5732 24.1122C43.4824 24.8109 43.3113 25.2163 43.0261 25.5113C42.7433 25.8039 42.3581 25.9776 41.6905 26.0705C41.0068 26.1655 40.105 26.1667 38.8333 26.1667H36.1667C34.895 26.1667 33.9932 26.1655 33.3095 26.0705C32.6419 25.9776 32.2568 25.8039 31.9739 25.5113C31.6887 25.2163 31.5176 24.8109 31.4268 24.1122C31.3343 23.4008 31.3333 22.4639 31.3333 21.15V20.1359C31.3333 19.3639 31.3338 18.8191 31.3744 18.3874C31.414 17.9658 31.4892 17.6906 31.6181 17.4552C31.7464 17.2207 31.9342 17.0144 32.2606 16.7645C32.5961 16.5076 33.0458 16.2278 33.6863 15.8303L35.0197 15.0028Z"/>
</mask>
<path fill-rule="evenodd" clip-rule="evenodd" d="M37.5 12.8333C37.0279 12.8333 36.599 12.9686 36.1337 13.1948C35.6839 13.4136 35.1643 13.7361 34.5152 14.1389L33.1375 14.9939C32.5234 15.3751 32.0316 15.6803 31.6526 15.9706C31.2601 16.2711 30.9586 16.5773 30.7409 16.9751C30.5236 17.3721 30.4257 17.7945 30.3788 18.2938C30.3333 18.7777 30.3333 19.3694 30.3333 20.1115V21.1866C30.3333 22.4558 30.3333 23.4577 30.4351 24.2411C30.5396 25.0447 30.759 25.6934 31.2549 26.2063C31.753 26.7216 32.387 26.9518 33.1717 27.0609C33.9323 27.1667 34.9037 27.1667 36.1279 27.1667H38.8721C40.0963 27.1667 41.0677 27.1667 41.8283 27.0609C42.613 26.9518 43.2469 26.7216 43.7451 26.2063C44.2409 25.6934 44.4604 25.0447 44.5649 24.2411C44.6667 23.4577 44.6667 22.4559 44.6667 21.1866V20.1115C44.6667 19.3694 44.6667 18.7777 44.6212 18.2938C44.5743 17.7945 44.4764 17.3721 44.2591 16.9751C44.0414 16.5773 43.7399 16.2711 43.3474 15.9706C42.9684 15.6803 42.4766 15.3751 41.8625 14.994L40.4847 14.1389C39.8357 13.7361 39.3161 13.4136 38.8663 13.1948C38.401 12.9686 37.9721 12.8333 37.5 12.8333ZM35.0197 15.0028C35.6969 14.5825 36.173 14.2877 36.571 14.0941C36.9588 13.9056 37.2335 13.8333 37.5 13.8333C37.7665 13.8333 38.0412 13.9056 38.429 14.0941C38.827 14.2877 39.3031 14.5825 39.9803 15.0028L41.3137 15.8303C41.9542 16.2278 42.4039 16.5076 42.7394 16.7645C43.0658 17.0144 43.2535 17.2207 43.3819 17.4552C43.5108 17.6906 43.586 17.9658 43.6256 18.3874C43.6661 18.8191 43.6667 19.3639 43.6667 20.1359V21.15C43.6667 22.4639 43.6657 23.4008 43.5732 24.1122C43.4824 24.8109 43.3113 25.2163 43.0261 25.5113C42.7433 25.8039 42.3581 25.9776 41.6905 26.0705C41.0068 26.1655 40.105 26.1667 38.8333 26.1667H36.1667C34.895 26.1667 33.9932 26.1655 33.3095 26.0705C32.6419 25.9776 32.2568 25.8039 31.9739 25.5113C31.6887 25.2163 31.5176 24.8109 31.4268 24.1122C31.3343 23.4008 31.3333 22.4639 31.3333 21.15V20.1359C31.3333 19.3639 31.3338 18.8191 31.3744 18.3874C31.414 17.9658 31.4892 17.6906 31.6181 17.4552C31.7464 17.2207 31.9342 17.0144 32.2606 16.7645C32.5961 16.5076 33.0458 16.2278 33.6863 15.8303L35.0197 15.0028Z" fill="#E1001A"/>
<path d="M36.1337 13.1948L50.7115 43.1715L50.7116 43.1714L36.1337 13.1948ZM34.5152 14.1389L52.0928 42.461L52.093 42.4609L34.5152 14.1389ZM33.1375 14.9939L50.7149 43.3162L50.715 43.316L33.1375 14.9939ZM31.6526 15.9706L51.9196 42.4348L51.9198 42.4347L31.6526 15.9706ZM30.7409 16.9751L59.9803 32.9802L59.9804 32.9801L30.7409 16.9751ZM30.3788 18.2938L-2.80834 15.1752L-2.80835 15.1754L30.3788 18.2938ZM30.3333 20.1115H63.6667V20.1112L30.3333 20.1115ZM30.3333 21.1866L63.6667 21.1868V21.1866H30.3333ZM30.4351 24.2411L63.4904 19.9448L63.4904 19.9447L30.4351 24.2411ZM31.2549 26.2063L55.2214 3.03909L55.2189 3.03657L31.2549 26.2063ZM33.1717 27.0609L28.5804 60.0766L28.582 60.0768L33.1717 27.0609ZM41.8283 27.0609L46.4179 60.0768L46.4198 60.0765L41.8283 27.0609ZM43.7451 26.2063L19.781 3.03657L19.7783 3.03941L43.7451 26.2063ZM44.5649 24.2411L77.6201 28.5382L77.6202 28.5369L44.5649 24.2411ZM44.6212 18.2938L77.8083 15.1754L77.8082 15.1743L44.6212 18.2938ZM44.2591 16.9751L73.4998 0.972228L73.4995 0.971629L44.2591 16.9751ZM43.3474 15.9706L23.0792 42.434L23.0814 42.4357L43.3474 15.9706ZM41.8625 14.994L24.2849 43.316L24.2852 43.3162L41.8625 14.994ZM40.4847 14.1389L22.9064 42.4605L22.9071 42.4609L40.4847 14.1389ZM38.8663 13.1948L24.2875 43.171L24.2888 43.1717L38.8663 13.1948ZM35.0197 15.0028L52.5971 43.3249L52.5972 43.3249L35.0197 15.0028ZM36.571 14.0941L21.9938 -15.8828L21.993 -15.8824L36.571 14.0941ZM38.429 14.0941L53.0074 -15.8822L53.0058 -15.883L38.429 14.0941ZM39.9803 15.0028L57.5578 -13.3194L57.5573 -13.3197L39.9803 15.0028ZM41.3137 15.8303L58.8916 -12.4916L58.8911 -12.4919L41.3137 15.8303ZM42.7394 16.7645L63.0061 -9.70003L63.006 -9.70015L42.7394 16.7645ZM43.3819 17.4552L14.1437 33.4627L14.1443 33.4637L43.3819 17.4552ZM43.6256 18.3874L76.813 15.2714L76.8128 15.2701L43.6256 18.3874ZM43.5732 24.1122L10.5179 19.8157L10.5178 19.8163L43.5732 24.1122ZM43.0261 25.5113L19.0612 2.34247L19.0607 2.34303L43.0261 25.5113ZM41.6905 26.0705L46.2811 59.0862L46.2836 59.0858L41.6905 26.0705ZM33.3095 26.0705L28.7167 59.0859L28.719 59.0862L33.3095 26.0705ZM31.9739 25.5113L8.00839 48.6795L8.00976 48.6809L31.9739 25.5113ZM31.4268 24.1122L-1.62849 28.4087L-1.62844 28.4091L31.4268 24.1122ZM31.3744 18.3874L64.5615 21.5059L64.5616 21.5057L31.3744 18.3874ZM31.6181 17.4552L2.37847 1.45031L2.37832 1.45058L31.6181 17.4552ZM32.2606 16.7645L52.5276 43.2288L52.5277 43.2287L32.2606 16.7645ZM33.6863 15.8303L51.2638 44.1524L51.2638 44.1524L33.6863 15.8303ZM37.5 -20.5C30.1771 -20.5 24.6059 -18.265 21.5558 -16.7817L50.7116 43.1714C48.5921 44.2021 43.8788 46.1667 37.5 46.1667V-20.5ZM21.5559 -16.7818C19.2156 -15.6437 17.0476 -14.2514 16.9375 -14.1831L52.093 42.4609C52.2695 42.3513 52.3556 42.2979 52.4245 42.2556C52.4881 42.2166 52.4635 42.2322 52.388 42.2769C52.3124 42.3217 52.1292 42.4293 51.8698 42.5722C51.6111 42.7148 51.2152 42.9265 50.7115 43.1715L21.5559 -16.7818ZM16.9377 -14.1832L15.56 -13.3282L50.715 43.316L52.0928 42.461L16.9377 -14.1832ZM15.5602 -13.3283C15.4524 -13.2614 13.3549 -12.002 11.3853 -10.4936L51.9198 42.4347C51.4993 42.7568 51.152 43.0032 50.9192 43.1642C50.6861 43.3255 50.5152 43.4372 50.4429 43.4841C50.3707 43.5309 50.345 43.5465 50.4035 43.5099C50.4672 43.4699 50.5476 43.42 50.7149 43.3162L15.5602 -13.3283ZM11.3856 -10.4937C8.78938 -8.50551 4.69847 -4.87079 1.50131 0.97012L59.9804 32.9801C57.2188 38.0253 53.7308 41.0478 51.9196 42.4348L11.3856 -10.4937ZM1.5014 0.96996C-1.66492 6.75444 -2.51792 12.0847 -2.80834 15.1752L63.5659 21.4124C63.3693 23.5043 62.712 27.9897 59.9803 32.9802L1.5014 0.96996ZM-2.80835 15.1754C-3.03293 17.5653 -3 19.9443 -3 20.1118L63.6667 20.1112C63.6667 19.9103 63.6667 19.8074 63.6671 19.7237C63.6674 19.6458 63.6678 19.6632 63.6664 19.7346C63.6651 19.8062 63.661 19.9915 63.6486 20.2532C63.6362 20.5143 63.6128 20.9137 63.5659 21.4122L-2.80835 15.1754ZM-3 20.1115V21.1866H63.6667V20.1115H-3ZM-3 21.1864C-3.00001 21.5944 -3.06473 25.1171 -2.62017 28.5374L63.4904 19.9447C63.5796 20.6305 63.6213 21.166 63.6417 21.4849C63.6622 21.8066 63.6678 22.017 63.6689 22.0598C63.67 22.1038 63.6687 22.0706 63.6677 21.9031C63.6668 21.7287 63.6667 21.5247 63.6667 21.1868L-3 21.1864ZM-2.62017 28.5374C-2.06252 32.8278 -0.232576 41.5946 7.29086 49.376L55.2189 3.03657C61.7506 9.79219 63.1417 17.2615 63.4904 19.9448L-2.62017 28.5374ZM7.28842 49.3735C14.9679 57.3179 23.9017 59.4259 28.5804 60.0766L37.763 -5.95467C40.8722 -5.52229 48.5382 -3.87468 55.2214 3.03909L7.28842 49.3735ZM28.582 60.0768C32.1562 60.5736 35.8176 60.5 36.1279 60.5V-6.16666C35.7998 -6.16666 35.6133 -6.16677 35.4567 -6.16771C35.3074 -6.1686 35.2998 -6.16977 35.373 -6.1678C35.445 -6.16586 35.6937 -6.15844 36.0594 -6.1334C36.4223 -6.10855 37.0131 -6.05893 37.7614 -5.9549L28.582 60.0768ZM36.1279 60.5H38.8721V-6.16666H36.1279V60.5ZM38.8721 60.5C39.1824 60.5 42.8438 60.5736 46.4179 60.0768L37.2386 -5.95491C37.987 -6.05894 38.5778 -6.10855 38.9406 -6.1334C39.3063 -6.15844 39.5549 -6.16586 39.627 -6.1678C39.7002 -6.16977 39.6926 -6.1686 39.5433 -6.16771C39.3867 -6.16677 39.2001 -6.16666 38.8721 -6.16666V60.5ZM46.4198 60.0765C51.0982 59.4259 60.0322 57.3179 67.7119 49.3731L19.7783 3.03941C26.4616 -3.87471 34.1278 -5.52229 37.2368 -5.95465L46.4198 60.0765ZM67.7091 49.376C75.2324 41.5948 77.0623 32.8283 77.6201 28.5382L11.5097 19.944C11.8584 17.2611 13.2495 9.79201 19.781 3.03657L67.7091 49.376ZM77.6202 28.5369C78.0647 25.117 78 21.5948 78 21.1866H11.3333C11.3333 21.5245 11.3332 21.7285 11.3323 21.9029C11.3313 22.0705 11.33 22.1037 11.3311 22.0598C11.3322 22.017 11.3377 21.8067 11.3583 21.4851C11.3787 21.1662 11.4204 20.6309 11.5095 19.9453L77.6202 28.5369ZM78 21.1866V20.1115H11.3333V21.1866H78ZM78 20.1115C78 19.9443 78.0329 17.5653 77.8083 15.1754L11.4341 21.4122C11.3872 20.9137 11.3638 20.5143 11.3514 20.2532C11.339 19.9915 11.3349 19.8063 11.3336 19.7347C11.3322 19.6633 11.3326 19.6459 11.3329 19.7239C11.3333 19.8076 11.3333 19.9106 11.3333 20.1115H78ZM77.8082 15.1743C77.5177 12.0836 76.6647 6.75503 73.4998 0.972228L15.0184 32.978C12.2881 27.9892 11.6308 23.5054 11.4342 21.4133L77.8082 15.1743ZM73.4995 0.971629C70.302 -4.87068 66.2101 -8.50608 63.6133 -10.4946L23.0814 42.4357C21.2698 41.0484 17.7808 38.0252 15.0187 32.9786L73.4995 0.971629ZM63.6155 -10.4929C61.6451 -12.002 59.5462 -13.2623 59.4397 -13.3283L24.2852 43.3162C24.4527 43.4202 24.5331 43.4701 24.5969 43.5101C24.6555 43.5469 24.6298 43.5312 24.5576 43.4844C24.4851 43.4374 24.3142 43.3256 24.0809 43.1643C23.8479 43.0031 23.5003 42.7564 23.0792 42.434L63.6155 -10.4929ZM59.4401 -13.3281L58.0623 -14.1832L22.9071 42.4609L24.2849 43.316L59.4401 -13.3281ZM58.063 -14.1827C57.9517 -14.2519 55.7842 -15.6438 53.4437 -16.782L24.2888 43.1717C23.7852 42.9267 23.3893 42.715 23.1306 42.5725C22.8712 42.4295 22.6879 42.3219 22.6123 42.2771C22.5367 42.2323 22.512 42.2166 22.5754 42.2556C22.6441 42.2978 22.7302 42.3511 22.9064 42.4605L58.063 -14.1827ZM53.445 -16.7813C50.3943 -18.2651 44.8229 -20.5 37.5 -20.5V46.1667C31.1212 46.1667 26.4077 44.2022 24.2875 43.171L53.445 -16.7813ZM52.5972 43.3249C52.7758 43.214 52.87 43.1556 52.9424 43.1112C53.0119 43.0685 52.9891 43.083 52.9138 43.1277C52.8388 43.1722 52.6466 43.2854 52.3739 43.4361C52.1005 43.5871 51.6813 43.8118 51.149 44.0707L21.993 -15.8824C19.691 -14.7629 17.5273 -13.3722 17.4422 -13.3194L52.5972 43.3249ZM51.1482 44.0711C48.9516 45.1392 44.0842 47.1667 37.5 47.1667V-19.5C30.3828 -19.5 24.966 -17.3281 21.9938 -15.8828L51.1482 44.0711ZM37.5 47.1667C30.9159 47.1667 26.0486 45.1393 23.8522 44.0713L53.0058 -15.883C50.0338 -17.3282 44.6171 -19.5 37.5 -19.5V47.1667ZM23.8506 44.0705C23.3184 43.8116 22.8992 43.587 22.6259 43.436C22.3532 43.2853 22.1611 43.1722 22.0862 43.1277C22.011 43.0831 21.9882 43.0686 22.0578 43.1113C22.1303 43.1559 22.2246 43.2143 22.4033 43.3252L57.5573 -13.3197C57.4727 -13.3722 55.309 -14.7629 53.0074 -15.8822L23.8506 44.0705ZM22.4029 43.3249L23.7362 44.1524L58.8911 -12.4919L57.5578 -13.3194L22.4029 43.3249ZM23.7357 44.1521C23.9049 44.2571 23.9929 44.3118 24.0599 44.3538C24.124 44.394 24.0999 44.3794 24.0278 44.3327C23.9557 44.286 23.7763 44.169 23.5309 43.9997C23.2846 43.8297 22.9168 43.5691 22.4728 43.2291L63.006 -9.70015C61.0691 -11.1834 58.976 -12.4392 58.8916 -12.4916L23.7357 44.1521ZM22.4726 43.229C20.5925 41.7891 16.9933 38.6675 14.1437 33.4627L72.6201 1.44776C69.5138 -4.2261 65.5391 -7.76026 63.0061 -9.70003L22.4726 43.229ZM14.1443 33.4637C11.3213 28.3078 10.6419 23.6718 10.4383 21.5046L76.8128 15.2701C76.5301 12.2597 75.7003 7.07339 72.6196 1.44676L14.1443 33.4637ZM10.4382 21.5034C10.3889 20.9782 10.3645 20.5561 10.3516 20.2801C10.3389 20.0049 10.3348 19.8101 10.3335 19.7386C10.3322 19.6669 10.3326 19.6509 10.3329 19.7346C10.3333 19.8216 10.3333 19.9328 10.3333 20.1359H77C77 19.9894 77.0335 17.6201 76.813 15.2714L10.4382 21.5034ZM10.3333 20.1359V21.15H77V20.1359H10.3333ZM10.3333 21.15C10.3333 21.4932 10.3332 21.708 10.3322 21.8864C10.3313 22.0608 10.33 22.0951 10.331 22.0497C10.3321 22.0061 10.3378 21.7829 10.3591 21.4433C10.3803 21.1054 10.424 20.5387 10.5179 19.8157L76.6285 28.4087C77.0656 25.0456 77 21.54 77 21.15H10.3333ZM10.5178 19.8163C10.8829 17.0075 12.3288 9.30618 19.0612 2.34247L66.9911 48.6801C74.2938 41.1264 76.0819 32.6142 76.6285 28.4081L10.5178 19.8163ZM19.0607 2.34303C22.1354 -0.837466 25.7175 -3.21596 29.4405 -4.80168C32.8072 -6.23567 35.6391 -6.74202 37.0975 -6.94489L46.2836 59.0858C50.8726 58.4474 59.5414 56.3861 66.9916 48.6795L19.0607 2.34303ZM37.1 -6.94525C37.8903 -7.05513 38.5162 -7.10696 38.9 -7.13274C39.2852 -7.15862 39.5476 -7.16607 39.6196 -7.16794C39.6934 -7.16985 39.6839 -7.16867 39.5265 -7.16776C39.365 -7.16682 39.1664 -7.16666 38.8333 -7.16666V59.5C39.1167 59.5 42.7658 59.575 46.2811 59.0862L37.1 -6.94525ZM38.8333 -7.16666H36.1667V59.5H38.8333V-7.16666ZM36.1667 -7.16666C35.8336 -7.16666 35.6349 -7.16682 35.4735 -7.16776C35.3161 -7.16867 35.3066 -7.16985 35.3804 -7.16794C35.4524 -7.16607 35.7148 -7.15862 36.1 -7.13274C36.4838 -7.10696 37.1097 -7.05513 37.9 -6.94526L28.719 59.0862C32.2342 59.575 35.8833 59.5 36.1667 59.5V-7.16666ZM37.9023 -6.94493C39.3607 -6.74206 42.1928 -6.23569 45.5597 -4.80159C49.283 -3.2157 52.8643 -0.837387 55.938 2.34162L8.00976 48.6809C15.4589 56.3855 24.1259 58.4473 28.7167 59.0859L37.9023 -6.94493ZM55.9393 2.34303C62.6712 9.3066 64.117 17.0075 64.482 19.8153L-1.62844 28.4091C-1.08181 32.6142 0.706099 41.126 8.00839 48.6795L55.9393 2.34303ZM64.4821 19.8157C64.576 20.5387 64.6197 21.1055 64.6409 21.4434C64.6622 21.783 64.6679 22.0062 64.6689 22.0498C64.67 22.0952 64.6687 22.0609 64.6678 21.8864C64.6668 21.708 64.6667 21.4932 64.6667 21.15H-2C-2 21.5397 -2.06562 25.0455 -1.62849 28.4087L64.4821 19.8157ZM64.6667 21.15V20.1359H-2V21.15H64.6667ZM64.6667 20.1359C64.6667 19.9325 64.6667 19.8213 64.6671 19.7342C64.6674 19.6504 64.6678 19.6665 64.6665 19.7383C64.6652 19.8099 64.6611 20.005 64.6483 20.2807C64.6355 20.5572 64.611 20.9799 64.5615 21.5059L-1.81273 15.2688C-2.03362 17.6196 -2 19.9916 -2 20.1359H64.6667ZM64.5616 21.5057C64.3578 23.6737 63.6783 28.3069 60.8578 33.4599L2.37832 1.45058C-0.699873 7.0743 -1.52981 12.2578 -1.81275 15.2691L64.5616 21.5057ZM60.8576 33.4602C58.0064 38.6691 54.4045 41.7914 52.5276 43.2288L11.9936 -9.69983C9.46389 -7.76251 5.48642 -4.22763 2.37847 1.45031L60.8576 33.4602ZM52.5277 43.2287C52.0837 43.5688 51.7158 43.8294 51.4694 43.9995C51.2239 44.1689 51.0444 44.286 50.9722 44.3327C50.9 44.3794 50.8758 44.3941 50.9399 44.354C51.0067 44.312 51.0947 44.2573 51.2638 44.1524L16.1089 -12.4919C16.0241 -12.4392 13.9308 -11.1834 11.9935 -9.69976L52.5277 43.2287ZM51.2638 44.1524L52.5971 43.3249L17.4422 -13.3194L16.1089 -12.4919L51.2638 44.1524Z" fill="#E1001A" mask="url(#path-4-inside-2_261_360)"/>
<path d="M15.1113 34.4688V43H13.3594V34.4688H15.1113ZM17.7363 34.4688V35.8457H10.7754V34.4688H17.7363ZM19.9102 38.043V43H18.2227V36.6602H19.8105L19.9102 38.043ZM21.8203 36.6191L21.791 38.1836C21.709 38.1719 21.6094 38.1621 21.4922 38.1543C21.3789 38.1426 21.2754 38.1367 21.1816 38.1367C20.9434 38.1367 20.7363 38.168 20.5605 38.2305C20.3887 38.2891 20.2441 38.377 20.127 38.4941C20.0137 38.6113 19.9277 38.7539 19.8691 38.9219C19.8145 39.0898 19.7832 39.2812 19.7754 39.4961L19.4355 39.3906C19.4355 38.9805 19.4766 38.6035 19.5586 38.2598C19.6406 37.9121 19.7598 37.6094 19.916 37.3516C20.0762 37.0938 20.2715 36.8945 20.502 36.7539C20.7324 36.6133 20.9961 36.543 21.293 36.543C21.3867 36.543 21.4824 36.5508 21.5801 36.5664C21.6777 36.5781 21.7578 36.5957 21.8203 36.6191ZM25.8398 41.5703V38.7461C25.8398 38.543 25.8066 38.3691 25.7402 38.2246C25.6738 38.0762 25.5703 37.9609 25.4297 37.8789C25.293 37.7969 25.1152 37.7559 24.8965 37.7559C24.709 37.7559 24.5469 37.7891 24.4102 37.8555C24.2734 37.918 24.168 38.0098 24.0938 38.1309C24.0195 38.248 23.9824 38.3867 23.9824 38.5469H22.2949C22.2949 38.2773 22.3574 38.0215 22.4824 37.7793C22.6074 37.5371 22.7891 37.3242 23.0273 37.1406C23.2656 36.9531 23.5488 36.8066 23.877 36.7012C24.209 36.5957 24.5801 36.543 24.9902 36.543C25.4824 36.543 25.9199 36.625 26.3027 36.7891C26.6855 36.9531 26.9863 37.1992 27.2051 37.5273C27.4277 37.8555 27.5391 38.2656 27.5391 38.7578V41.4707C27.5391 41.8184 27.5605 42.1035 27.6035 42.3262C27.6465 42.5449 27.709 42.7363 27.791 42.9004V43H26.0859C26.0039 42.8281 25.9414 42.6133 25.8984 42.3555C25.8594 42.0938 25.8398 41.832 25.8398 41.5703ZM26.0625 39.1387L26.0742 40.0938H25.1309C24.9082 40.0938 24.7148 40.1191 24.5508 40.1699C24.3867 40.2207 24.252 40.293 24.1465 40.3867C24.041 40.4766 23.9629 40.582 23.9121 40.7031C23.8652 40.8242 23.8418 40.957 23.8418 41.1016C23.8418 41.2461 23.875 41.377 23.9414 41.4941C24.0078 41.6074 24.1035 41.6973 24.2285 41.7637C24.3535 41.8262 24.5 41.8574 24.668 41.8574C24.9219 41.8574 25.1426 41.8066 25.3301 41.7051C25.5176 41.6035 25.6621 41.4785 25.7637 41.3301C25.8691 41.1816 25.9238 41.041 25.9277 40.9082L26.373 41.623C26.3105 41.7832 26.2246 41.9492 26.1152 42.1211C26.0098 42.293 25.875 42.4551 25.7109 42.6074C25.5469 42.7559 25.3496 42.8789 25.1191 42.9766C24.8887 43.0703 24.6152 43.1172 24.2988 43.1172C23.8965 43.1172 23.5312 43.0371 23.2031 42.877C22.8789 42.7129 22.6211 42.4883 22.4297 42.2031C22.2422 41.9141 22.1484 41.5859 22.1484 41.2188C22.1484 40.8867 22.2109 40.5918 22.3359 40.334C22.4609 40.0762 22.6445 39.8594 22.8867 39.6836C23.1328 39.5039 23.4395 39.3691 23.8066 39.2793C24.1738 39.1855 24.5996 39.1387 25.084 39.1387H26.0625ZM30.4922 38.0137V43H28.8047V36.6602H30.3867L30.4922 38.0137ZM30.2461 39.6074H29.7891C29.7891 39.1387 29.8496 38.7168 29.9707 38.3418C30.0918 37.9629 30.2617 37.6406 30.4805 37.375C30.6992 37.1055 30.959 36.9004 31.2598 36.7598C31.5645 36.6152 31.9043 36.543 32.2793 36.543C32.5762 36.543 32.8477 36.5859 33.0938 36.6719C33.3398 36.7578 33.5508 36.8945 33.7266 37.082C33.9062 37.2695 34.043 37.5176 34.1367 37.8262C34.2344 38.1348 34.2832 38.5117 34.2832 38.957V43H32.584V38.9512C32.584 38.6699 32.5449 38.4512 32.4668 38.2949C32.3887 38.1387 32.2734 38.0293 32.1211 37.9668C31.9727 37.9004 31.7891 37.8672 31.5703 37.8672C31.3438 37.8672 31.1465 37.9121 30.9785 38.002C30.8145 38.0918 30.6777 38.2168 30.5684 38.377C30.4629 38.5332 30.3828 38.7168 30.3281 38.9277C30.2734 39.1387 30.2461 39.3652 30.2461 39.6074ZM39.5801 36.6602H41.1094V42.7891C41.1094 43.3672 40.9805 43.8574 40.7227 44.2598C40.4688 44.666 40.1133 44.9727 39.6562 45.1797C39.1992 45.3906 38.668 45.4961 38.0625 45.4961C37.7969 45.4961 37.5156 45.4609 37.2188 45.3906C36.9258 45.3203 36.6445 45.2109 36.375 45.0625C36.1094 44.9141 35.8867 44.7266 35.707 44.5L36.4512 43.5039C36.6465 43.7305 36.873 43.9062 37.1309 44.0312C37.3887 44.1602 37.6738 44.2246 37.9863 44.2246C38.291 44.2246 38.5488 44.168 38.7598 44.0547C38.9707 43.9453 39.1328 43.7832 39.2461 43.5684C39.3594 43.3574 39.416 43.1016 39.416 42.8008V38.125L39.5801 36.6602ZM35.3145 39.9062V39.7832C35.3145 39.2988 35.373 38.8594 35.4902 38.4648C35.6113 38.0664 35.7812 37.7246 36 37.4395C36.2227 37.1543 36.4922 36.9336 36.8086 36.7773C37.125 36.6211 37.4824 36.543 37.8809 36.543C38.3027 36.543 38.6562 36.6211 38.9414 36.7773C39.2266 36.9336 39.4609 37.1562 39.6445 37.4453C39.8281 37.7305 39.9707 38.0684 40.0723 38.459C40.1777 38.8457 40.2598 39.2695 40.3184 39.7305V40C40.2598 40.4414 40.1719 40.8516 40.0547 41.2305C39.9375 41.6094 39.7832 41.9414 39.5918 42.2266C39.4004 42.5078 39.1621 42.7266 38.877 42.8828C38.5957 43.0391 38.2598 43.1172 37.8691 43.1172C37.4785 43.1172 37.125 43.0371 36.8086 42.877C36.4961 42.7168 36.2285 42.4922 36.0059 42.2031C35.7832 41.9141 35.6113 41.5742 35.4902 41.1836C35.373 40.793 35.3145 40.3672 35.3145 39.9062ZM37.002 39.7832V39.9062C37.002 40.168 37.0273 40.4121 37.0781 40.6387C37.1289 40.8652 37.207 41.0664 37.3125 41.2422C37.4219 41.4141 37.5566 41.5488 37.7168 41.6465C37.8809 41.7402 38.0742 41.7871 38.2969 41.7871C38.6055 41.7871 38.8574 41.7227 39.0527 41.5938C39.248 41.4609 39.3945 41.2793 39.4922 41.0488C39.5898 40.8184 39.6465 40.5527 39.6621 40.252V39.4844C39.6543 39.2383 39.6211 39.0176 39.5625 38.8223C39.5039 38.623 39.4219 38.4531 39.3164 38.3125C39.2109 38.1719 39.0742 38.0625 38.9062 37.9844C38.7383 37.9062 38.5391 37.8672 38.3086 37.8672C38.0859 37.8672 37.8926 37.918 37.7285 38.0195C37.5684 38.1172 37.4336 38.252 37.3242 38.4238C37.2188 38.5957 37.1387 38.7988 37.084 39.0332C37.0293 39.2637 37.002 39.5137 37.002 39.7832ZM48.0293 41.7988C48.2363 41.7988 48.4199 41.7598 48.5801 41.6816C48.7402 41.5996 48.8652 41.4863 48.9551 41.3418C49.0488 41.1934 49.0977 41.0195 49.1016 40.8203H50.6895C50.6855 41.2656 50.5664 41.6621 50.332 42.0098C50.0977 42.3535 49.7832 42.625 49.3887 42.8242C48.9941 43.0195 48.5527 43.1172 48.0645 43.1172C47.5723 43.1172 47.1426 43.0352 46.7754 42.8711C46.4121 42.707 46.1094 42.4805 45.8672 42.1914C45.625 41.8984 45.4434 41.5586 45.3223 41.1719C45.2012 40.7812 45.1406 40.3633 45.1406 39.918V39.748C45.1406 39.2988 45.2012 38.8809 45.3223 38.4941C45.4434 38.1035 45.625 37.7637 45.8672 37.4746C46.1094 37.1816 46.4121 36.9531 46.7754 36.7891C47.1387 36.625 47.5645 36.543 48.0527 36.543C48.5723 36.543 49.0273 36.6426 49.418 36.8418C49.8125 37.041 50.1211 37.3262 50.3438 37.6973C50.5703 38.0645 50.6855 38.5 50.6895 39.0039H49.1016C49.0977 38.793 49.0527 38.6016 48.9668 38.4297C48.8848 38.2578 48.7637 38.1211 48.6035 38.0195C48.4473 37.9141 48.2539 37.8613 48.0234 37.8613C47.7773 37.8613 47.5762 37.9141 47.4199 38.0195C47.2637 38.1211 47.1426 38.2617 47.0566 38.4414C46.9707 38.6172 46.9102 38.8184 46.875 39.0449C46.8438 39.2676 46.8281 39.502 46.8281 39.748V39.918C46.8281 40.1641 46.8438 40.4004 46.875 40.627C46.9062 40.8535 46.9648 41.0547 47.0508 41.2305C47.1406 41.4062 47.2637 41.5449 47.4199 41.6465C47.5762 41.748 47.7793 41.7988 48.0293 41.7988ZM53.3145 34V43H51.627V34H53.3145ZM53.0742 39.6074H52.6113C52.6152 39.166 52.6738 38.7598 52.7871 38.3887C52.9004 38.0137 53.0625 37.6895 53.2734 37.416C53.4844 37.1387 53.7363 36.9238 54.0293 36.7715C54.3262 36.6191 54.6543 36.543 55.0137 36.543C55.3262 36.543 55.6094 36.5879 55.8633 36.6777C56.1211 36.7637 56.3418 36.9043 56.5254 37.0996C56.7129 37.291 56.8574 37.543 56.959 37.8555C57.0605 38.168 57.1113 38.5469 57.1113 38.9922V43H55.4121V38.9805C55.4121 38.6992 55.3711 38.4785 55.2891 38.3184C55.2109 38.1543 55.0957 38.0391 54.9434 37.9727C54.7949 37.9023 54.6113 37.8672 54.3926 37.8672C54.1504 37.8672 53.9434 37.9121 53.7715 38.002C53.6035 38.0918 53.4688 38.2168 53.3672 38.377C53.2656 38.5332 53.1914 38.7168 53.1445 38.9277C53.0977 39.1387 53.0742 39.3652 53.0742 39.6074ZM62.1445 41.4824V36.6602H63.832V43H62.2441L62.1445 41.4824ZM62.332 40.1816L62.8301 40.1699C62.8301 40.5918 62.7812 40.9844 62.6836 41.3477C62.5859 41.707 62.4395 42.0195 62.2441 42.2852C62.0488 42.5469 61.8027 42.752 61.5059 42.9004C61.209 43.0449 60.8594 43.1172 60.457 43.1172C60.1484 43.1172 59.8633 43.0742 59.6016 42.9883C59.3438 42.8984 59.1211 42.7598 58.9336 42.5723C58.75 42.3809 58.6055 42.1367 58.5 41.8398C58.3984 41.5391 58.3477 41.1777 58.3477 40.7559V36.6602H60.0352V40.7676C60.0352 40.9551 60.0566 41.1133 60.0996 41.2422C60.1465 41.3711 60.2109 41.4766 60.293 41.5586C60.375 41.6406 60.4707 41.6992 60.5801 41.7344C60.6934 41.7695 60.8184 41.7871 60.9551 41.7871C61.3027 41.7871 61.5762 41.7168 61.7754 41.5762C61.9785 41.4355 62.1211 41.2441 62.2031 41.002C62.2891 40.7559 62.332 40.4824 62.332 40.1816ZM61.7285 35.5938H60.457L60.3633 34.8086C60.5586 34.7969 60.7148 34.7773 60.832 34.75C60.9531 34.7188 61.041 34.6758 61.0957 34.6211C61.1543 34.5664 61.1836 34.498 61.1836 34.416C61.1836 34.334 61.1621 34.2676 61.1191 34.2168C61.0801 34.1621 61.0215 34.1211 60.9434 34.0938C60.8652 34.0625 60.7754 34.041 60.6738 34.0293C60.5723 34.0137 60.4609 34.0059 60.3398 34.0059L60.3809 33.2324C60.7441 33.2324 61.0645 33.2578 61.3418 33.3086C61.623 33.3594 61.8574 33.4355 62.0449 33.5371C62.2324 33.6348 62.373 33.7539 62.4668 33.8945C62.5645 34.0352 62.6133 34.1934 62.6133 34.3691C62.6133 34.6387 62.5215 34.8398 62.3379 34.9727C62.1543 35.1016 61.9512 35.1816 61.7285 35.2129V35.5938Z" fill="#E1001A"/>
</svg>
