<svg width="75" height="62" viewBox="0 0 75 62" fill="none" xmlns="http://www.w3.org/2000/svg">
<path fill-rule="evenodd" clip-rule="evenodd" d="M37.5 12.8333C34.6465 12.8333 32.3334 15.1464 32.3334 17.9999V18.4693C32.3334 18.9339 32.1958 19.3882 31.9381 19.7747L31.1724 20.9233C30.2836 22.2565 30.9621 24.0685 32.5078 24.49C33.0116 24.6274 33.5196 24.7436 34.0305 24.8387L34.0318 24.8421C34.5444 26.21 35.9146 27.1666 37.5 27.1666C39.0853 27.1666 40.4555 26.21 40.9682 24.8421L40.9695 24.8387C41.4804 24.7436 41.9885 24.6274 42.4922 24.49C44.0379 24.0685 44.7164 22.2565 43.8277 20.9233L43.0619 19.7747C42.8042 19.3882 42.6667 18.9339 42.6667 18.4693V17.9999C42.6667 15.1464 40.3535 12.8333 37.5 12.8333ZM39.7509 25.0246C38.2557 25.2033 36.7443 25.2032 35.249 25.0245C35.723 25.7056 36.5473 26.1666 37.5 26.1666C38.4526 26.1666 39.277 25.7056 39.7509 25.0246ZM33.3334 17.9999C33.3334 15.6987 35.1988 13.8333 37.5 13.8333C39.8012 13.8333 41.6667 15.6987 41.6667 17.9999V18.4693C41.6667 19.1314 41.8627 19.7786 42.2299 20.3295L42.9956 21.4781C43.5057 22.2432 43.1163 23.2833 42.2291 23.5253C39.1329 24.3697 35.8671 24.3697 32.771 23.5253C31.8837 23.2833 31.4943 22.2432 32.0044 21.4781L32.7702 20.3295C33.1374 19.7786 33.3334 19.1314 33.3334 18.4693V17.9999Z" fill="#767F87"/>
<path d="M13.1074 34.4688V43H11.9941V34.4688H13.1074ZM15.8496 34.4688V35.3945H9.25781V34.4688H15.8496ZM18.0352 34V43H16.9512V34H18.0352ZM17.7773 39.5898L17.3262 39.5723C17.3301 39.1387 17.3945 38.7383 17.5195 38.3711C17.6445 38 17.8203 37.6777 18.0469 37.4043C18.2734 37.1309 18.543 36.9199 18.8555 36.7715C19.1719 36.6191 19.5215 36.543 19.9043 36.543C20.2168 36.543 20.498 36.5859 20.748 36.6719C20.998 36.7539 21.2109 36.8867 21.3867 37.0703C21.5664 37.2539 21.7031 37.4922 21.7969 37.7852C21.8906 38.0742 21.9375 38.4277 21.9375 38.8457V43H20.8477V38.834C20.8477 38.502 20.7988 38.2363 20.7012 38.0371C20.6035 37.834 20.4609 37.6875 20.2734 37.5977C20.0859 37.5039 19.8555 37.457 19.582 37.457C19.3125 37.457 19.0664 37.5137 18.8438 37.627C18.625 37.7402 18.4355 37.8965 18.2754 38.0957C18.1191 38.2949 17.9961 38.5234 17.9062 38.7812C17.8203 39.0352 17.7773 39.3047 17.7773 39.5898ZM23.2734 39.9004V39.7656C23.2734 39.3086 23.3398 38.8848 23.4727 38.4941C23.6055 38.0996 23.7969 37.7578 24.0469 37.4688C24.2969 37.1758 24.5996 36.9492 24.9551 36.7891C25.3105 36.625 25.709 36.543 26.1504 36.543C26.5957 36.543 26.9961 36.625 27.3516 36.7891C27.7109 36.9492 28.0156 37.1758 28.2656 37.4688C28.5195 37.7578 28.7129 38.0996 28.8457 38.4941C28.9785 38.8848 29.0449 39.3086 29.0449 39.7656V39.9004C29.0449 40.3574 28.9785 40.7812 28.8457 41.1719C28.7129 41.5625 28.5195 41.9043 28.2656 42.1973C28.0156 42.4863 27.7129 42.7129 27.3574 42.877C27.0059 43.0371 26.6074 43.1172 26.1621 43.1172C25.7168 43.1172 25.3164 43.0371 24.9609 42.877C24.6055 42.7129 24.3008 42.4863 24.0469 42.1973C23.7969 41.9043 23.6055 41.5625 23.4727 41.1719C23.3398 40.7812 23.2734 40.3574 23.2734 39.9004ZM24.3574 39.7656V39.9004C24.3574 40.2168 24.3945 40.5156 24.4688 40.7969C24.543 41.0742 24.6543 41.3203 24.8027 41.5352C24.9551 41.75 25.1445 41.9199 25.3711 42.0449C25.5977 42.166 25.8613 42.2266 26.1621 42.2266C26.459 42.2266 26.7188 42.166 26.9414 42.0449C27.168 41.9199 27.3555 41.75 27.5039 41.5352C27.6523 41.3203 27.7637 41.0742 27.8379 40.7969C27.916 40.5156 27.9551 40.2168 27.9551 39.9004V39.7656C27.9551 39.4531 27.916 39.1582 27.8379 38.8809C27.7637 38.5996 27.6504 38.3516 27.498 38.1367C27.3496 37.918 27.1621 37.7461 26.9355 37.6211C26.7129 37.4961 26.4512 37.4336 26.1504 37.4336C25.8535 37.4336 25.5918 37.4961 25.3652 37.6211C25.1426 37.7461 24.9551 37.918 24.8027 38.1367C24.6543 38.3516 24.543 38.5996 24.4688 38.8809C24.3945 39.1582 24.3574 39.4531 24.3574 39.7656ZM26.4316 34L27.8848 35.5996V35.6582H26.9824L26.1035 34.668L25.2305 35.6582H24.3398V35.5938L25.7754 34H26.4316ZM31.4883 38.0137V43H30.4043V36.6602H31.4297L31.4883 38.0137ZM31.2305 39.5898L30.7793 39.5723C30.7832 39.1387 30.8477 38.7383 30.9727 38.3711C31.0977 38 31.2734 37.6777 31.5 37.4043C31.7266 37.1309 31.9961 36.9199 32.3086 36.7715C32.625 36.6191 32.9746 36.543 33.3574 36.543C33.6699 36.543 33.9512 36.5859 34.2012 36.6719C34.4512 36.7539 34.6641 36.8867 34.8398 37.0703C35.0195 37.2539 35.1562 37.4922 35.25 37.7852C35.3438 38.0742 35.3906 38.4277 35.3906 38.8457V43H34.3008V38.834C34.3008 38.502 34.252 38.2363 34.1543 38.0371C34.0566 37.834 33.9141 37.6875 33.7266 37.5977C33.5391 37.5039 33.3086 37.457 33.0352 37.457C32.7656 37.457 32.5195 37.5137 32.2969 37.627C32.0781 37.7402 31.8887 37.8965 31.7285 38.0957C31.5723 38.2949 31.4492 38.5234 31.3594 38.7812C31.2734 39.0352 31.2305 39.3047 31.2305 39.5898ZM41.1445 36.6602H42.1289V42.8652C42.1289 43.4238 42.0156 43.9004 41.7891 44.2949C41.5625 44.6895 41.2461 44.9883 40.8398 45.1914C40.4375 45.3984 39.9727 45.502 39.4453 45.502C39.2266 45.502 38.9688 45.4668 38.6719 45.3965C38.3789 45.3301 38.0898 45.2148 37.8047 45.0508C37.5234 44.8906 37.2871 44.6738 37.0957 44.4004L37.6641 43.7559C37.9297 44.0762 38.207 44.2988 38.4961 44.4238C38.7891 44.5488 39.0781 44.6113 39.3633 44.6113C39.707 44.6113 40.0039 44.5469 40.2539 44.418C40.5039 44.2891 40.6973 44.0977 40.834 43.8438C40.9746 43.5938 41.0449 43.2852 41.0449 42.918V38.0547L41.1445 36.6602ZM36.7793 39.9004V39.7773C36.7793 39.293 36.8359 38.8535 36.9492 38.459C37.0664 38.0605 37.2324 37.7188 37.4473 37.4336C37.666 37.1484 37.9297 36.9297 38.2383 36.7773C38.5469 36.6211 38.8945 36.543 39.2812 36.543C39.6797 36.543 40.0273 36.6133 40.3242 36.7539C40.625 36.8906 40.8789 37.0918 41.0859 37.3574C41.2969 37.6191 41.4629 37.9355 41.584 38.3066C41.7051 38.6777 41.7891 39.0977 41.8359 39.5664V40.1055C41.793 40.5703 41.709 40.9883 41.584 41.3594C41.4629 41.7305 41.2969 42.0469 41.0859 42.3086C40.8789 42.5703 40.625 42.7715 40.3242 42.9121C40.0234 43.0488 39.6719 43.1172 39.2695 43.1172C38.8906 43.1172 38.5469 43.0371 38.2383 42.877C37.9336 42.7168 37.6719 42.4922 37.4531 42.2031C37.2344 41.9141 37.0664 41.5742 36.9492 41.1836C36.8359 40.7891 36.7793 40.3613 36.7793 39.9004ZM37.8633 39.7773V39.9004C37.8633 40.2168 37.8945 40.5137 37.957 40.791C38.0234 41.0684 38.123 41.3125 38.2559 41.5234C38.3926 41.7344 38.5664 41.9004 38.7773 42.0215C38.9883 42.1387 39.2402 42.1973 39.5332 42.1973C39.8926 42.1973 40.1895 42.1211 40.4238 41.9688C40.6582 41.8164 40.8438 41.6152 40.9805 41.3652C41.1211 41.1152 41.2305 40.8438 41.3086 40.5508V39.1387C41.2656 38.9238 41.1992 38.7168 41.1094 38.5176C41.0234 38.3145 40.9102 38.1348 40.7695 37.9785C40.6328 37.8184 40.4629 37.6914 40.2598 37.5977C40.0566 37.5039 39.8184 37.457 39.5449 37.457C39.248 37.457 38.9922 37.5195 38.7773 37.6445C38.5664 37.7656 38.3926 37.9336 38.2559 38.1484C38.123 38.3594 38.0234 38.6055 37.957 38.8867C37.8945 39.1641 37.8633 39.4609 37.8633 39.7773ZM46.7461 34H47.8359V41.7695L47.7422 43H46.7461V34ZM52.1191 39.7773V39.9004C52.1191 40.3613 52.0645 40.7891 51.9551 41.1836C51.8457 41.5742 51.6855 41.9141 51.4746 42.2031C51.2637 42.4922 51.0059 42.7168 50.7012 42.877C50.3965 43.0371 50.0469 43.1172 49.6523 43.1172C49.25 43.1172 48.8965 43.0488 48.5918 42.9121C48.291 42.7715 48.0371 42.5703 47.8301 42.3086C47.623 42.0469 47.457 41.7305 47.332 41.3594C47.2109 40.9883 47.127 40.5703 47.0801 40.1055V39.5664C47.127 39.0977 47.2109 38.6777 47.332 38.3066C47.457 37.9355 47.623 37.6191 47.8301 37.3574C48.0371 37.0918 48.291 36.8906 48.5918 36.7539C48.8926 36.6133 49.2422 36.543 49.6406 36.543C50.0391 36.543 50.3926 36.6211 50.7012 36.7773C51.0098 36.9297 51.2676 37.1484 51.4746 37.4336C51.6855 37.7188 51.8457 38.0605 51.9551 38.459C52.0645 38.8535 52.1191 39.293 52.1191 39.7773ZM51.0293 39.9004V39.7773C51.0293 39.4609 51 39.1641 50.9414 38.8867C50.8828 38.6055 50.7891 38.3594 50.6602 38.1484C50.5312 37.9336 50.3613 37.7656 50.1504 37.6445C49.9395 37.5195 49.6797 37.457 49.3711 37.457C49.0977 37.457 48.8594 37.5039 48.6562 37.5977C48.457 37.6914 48.2871 37.8184 48.1465 37.9785C48.0059 38.1348 47.8906 38.3145 47.8008 38.5176C47.7148 38.7168 47.6504 38.9238 47.6074 39.1387V40.5508C47.6699 40.8242 47.7715 41.0879 47.9121 41.3418C48.0566 41.5918 48.248 41.7969 48.4863 41.957C48.7285 42.1172 49.0273 42.1973 49.3828 42.1973C49.6758 42.1973 49.9258 42.1387 50.1328 42.0215C50.3438 41.9004 50.5137 41.7344 50.6426 41.5234C50.7754 41.3125 50.873 41.0684 50.9355 40.791C50.998 40.5137 51.0293 40.2168 51.0293 39.9004ZM57.2285 41.916V38.6523C57.2285 38.4023 57.1777 38.1855 57.0762 38.002C56.9785 37.8145 56.8301 37.6699 56.6309 37.5684C56.4316 37.4668 56.1855 37.416 55.8926 37.416C55.6191 37.416 55.3789 37.4629 55.1719 37.5566C54.9688 37.6504 54.8086 37.7734 54.6914 37.9258C54.5781 38.0781 54.5215 38.2422 54.5215 38.418H53.4375C53.4375 38.1914 53.4961 37.9668 53.6133 37.7441C53.7305 37.5215 53.8984 37.3203 54.1172 37.1406C54.3398 36.957 54.6055 36.8125 54.9141 36.707C55.2266 36.5977 55.5742 36.543 55.957 36.543C56.418 36.543 56.8242 36.6211 57.1758 36.7773C57.5312 36.9336 57.8086 37.1699 58.0078 37.4863C58.2109 37.7988 58.3125 38.1914 58.3125 38.6641V41.6172C58.3125 41.8281 58.3301 42.0527 58.3652 42.291C58.4043 42.5293 58.4609 42.7344 58.5352 42.9062V43H57.4043C57.3496 42.875 57.3066 42.709 57.2754 42.502C57.2441 42.291 57.2285 42.0957 57.2285 41.916ZM57.416 39.1562L57.4277 39.918H56.332C56.0234 39.918 55.748 39.9434 55.5059 39.9941C55.2637 40.041 55.0605 40.1133 54.8965 40.2109C54.7324 40.3086 54.6074 40.4316 54.5215 40.5801C54.4355 40.7246 54.3926 40.8945 54.3926 41.0898C54.3926 41.2891 54.4375 41.4707 54.5273 41.6348C54.6172 41.7988 54.752 41.9297 54.9316 42.0273C55.1152 42.1211 55.3398 42.168 55.6055 42.168C55.9375 42.168 56.2305 42.0977 56.4844 41.957C56.7383 41.8164 56.9395 41.6445 57.0879 41.4414C57.2402 41.2383 57.3223 41.041 57.334 40.8496L57.7969 41.3711C57.7695 41.5352 57.6953 41.7168 57.5742 41.916C57.4531 42.1152 57.291 42.3066 57.0879 42.4902C56.8887 42.6699 56.6504 42.8203 56.373 42.9414C56.0996 43.0586 55.791 43.1172 55.4473 43.1172C55.0176 43.1172 54.6406 43.0332 54.3164 42.8652C53.9961 42.6973 53.7461 42.4727 53.5664 42.1914C53.3906 41.9062 53.3027 41.5879 53.3027 41.2363C53.3027 40.8965 53.3691 40.5977 53.502 40.3398C53.6348 40.0781 53.8262 39.8613 54.0762 39.6895C54.3262 39.5137 54.627 39.3809 54.9785 39.291C55.3301 39.2012 55.7227 39.1562 56.1562 39.1562H57.416ZM55.4766 35.7227L56.6133 34H57.9199L56.3496 35.7227H55.4766ZM59.7305 39.9004V39.7656C59.7305 39.3086 59.7969 38.8848 59.9297 38.4941C60.0625 38.0996 60.2539 37.7578 60.5039 37.4688C60.7539 37.1758 61.0566 36.9492 61.4121 36.7891C61.7676 36.625 62.166 36.543 62.6074 36.543C63.0527 36.543 63.4531 36.625 63.8086 36.7891C64.168 36.9492 64.4727 37.1758 64.7227 37.4688C64.9766 37.7578 65.1699 38.0996 65.3027 38.4941C65.4355 38.8848 65.502 39.3086 65.502 39.7656V39.9004C65.502 40.3574 65.4355 40.7812 65.3027 41.1719C65.1699 41.5625 64.9766 41.9043 64.7227 42.1973C64.4727 42.4863 64.1699 42.7129 63.8145 42.877C63.4629 43.0371 63.0645 43.1172 62.6191 43.1172C62.1738 43.1172 61.7734 43.0371 61.418 42.877C61.0625 42.7129 60.7578 42.4863 60.5039 42.1973C60.2539 41.9043 60.0625 41.5625 59.9297 41.1719C59.7969 40.7812 59.7305 40.3574 59.7305 39.9004ZM60.8145 39.7656V39.9004C60.8145 40.2168 60.8516 40.5156 60.9258 40.7969C61 41.0742 61.1113 41.3203 61.2598 41.5352C61.4121 41.75 61.6016 41.9199 61.8281 42.0449C62.0547 42.166 62.3184 42.2266 62.6191 42.2266C62.916 42.2266 63.1758 42.166 63.3984 42.0449C63.625 41.9199 63.8125 41.75 63.9609 41.5352C64.1094 41.3203 64.2207 41.0742 64.2949 40.7969C64.373 40.5156 64.4121 40.2168 64.4121 39.9004V39.7656C64.4121 39.4531 64.373 39.1582 64.2949 38.8809C64.2207 38.5996 64.1074 38.3516 63.9551 38.1367C63.8066 37.918 63.6191 37.7461 63.3926 37.6211C63.1699 37.4961 62.9082 37.4336 62.6074 37.4336C62.3105 37.4336 62.0488 37.4961 61.8223 37.6211C61.5996 37.7461 61.4121 37.918 61.2598 38.1367C61.1113 38.3516 61 38.5996 60.9258 38.8809C60.8516 39.1582 60.8145 39.4531 60.8145 39.7656Z" fill="#808080"/>
</svg>
