<svg width="75" height="62" viewBox="0 0 75 62" fill="none" xmlns="http://www.w3.org/2000/svg">
<mask id="path-1-inside-1_276_601" fill="white">
<path d="M0 0H75V62H0V0Z"/>
</mask>
<path d="M0 1H75V-1H0V1Z" fill="#E1001A" mask="url(#path-1-inside-1_276_601)"/>
<mask id="path-3-inside-2_276_601" fill="white">
<path fill-rule="evenodd" clip-rule="evenodd" d="M37.5 12.8333C34.6465 12.8333 32.3334 15.1464 32.3334 17.9999V18.4693C32.3334 18.9339 32.1958 19.3882 31.9381 19.7747L31.1724 20.9233C30.2836 22.2565 30.9621 24.0685 32.5078 24.49C33.0116 24.6274 33.5196 24.7436 34.0305 24.8387L34.0318 24.8421C34.5444 26.21 35.9146 27.1666 37.5 27.1666C39.0853 27.1666 40.4555 26.21 40.9682 24.8421L40.9695 24.8387C41.4804 24.7436 41.9885 24.6274 42.4922 24.49C44.0379 24.0685 44.7164 22.2565 43.8277 20.9233L43.0619 19.7747C42.8042 19.3882 42.6667 18.9339 42.6667 18.4693V17.9999C42.6667 15.1464 40.3535 12.8333 37.5 12.8333ZM39.7509 25.0246C38.2557 25.2033 36.7443 25.2032 35.249 25.0245C35.723 25.7056 36.5473 26.1666 37.5 26.1666C38.4526 26.1666 39.277 25.7056 39.7509 25.0246ZM33.3334 17.9999C33.3334 15.6987 35.1988 13.8333 37.5 13.8333C39.8012 13.8333 41.6667 15.6987 41.6667 17.9999V18.4693C41.6667 19.1314 41.8627 19.7786 42.2299 20.3295L42.9956 21.4781C43.5057 22.2432 43.1163 23.2833 42.2291 23.5253C39.1329 24.3697 35.8671 24.3697 32.771 23.5253C31.8837 23.2833 31.4943 22.2432 32.0044 21.4781L32.7702 20.3295C33.1374 19.7786 33.3334 19.1314 33.3334 18.4693V17.9999Z"/>
</mask>
<path fill-rule="evenodd" clip-rule="evenodd" d="M37.5 12.8333C34.6465 12.8333 32.3334 15.1464 32.3334 17.9999V18.4693C32.3334 18.9339 32.1958 19.3882 31.9381 19.7747L31.1724 20.9233C30.2836 22.2565 30.9621 24.0685 32.5078 24.49C33.0116 24.6274 33.5196 24.7436 34.0305 24.8387L34.0318 24.8421C34.5444 26.21 35.9146 27.1666 37.5 27.1666C39.0853 27.1666 40.4555 26.21 40.9682 24.8421L40.9695 24.8387C41.4804 24.7436 41.9885 24.6274 42.4922 24.49C44.0379 24.0685 44.7164 22.2565 43.8277 20.9233L43.0619 19.7747C42.8042 19.3882 42.6667 18.9339 42.6667 18.4693V17.9999C42.6667 15.1464 40.3535 12.8333 37.5 12.8333ZM39.7509 25.0246C38.2557 25.2033 36.7443 25.2032 35.249 25.0245C35.723 25.7056 36.5473 26.1666 37.5 26.1666C38.4526 26.1666 39.277 25.7056 39.7509 25.0246ZM33.3334 17.9999C33.3334 15.6987 35.1988 13.8333 37.5 13.8333C39.8012 13.8333 41.6667 15.6987 41.6667 17.9999V18.4693C41.6667 19.1314 41.8627 19.7786 42.2299 20.3295L42.9956 21.4781C43.5057 22.2432 43.1163 23.2833 42.2291 23.5253C39.1329 24.3697 35.8671 24.3697 32.771 23.5253C31.8837 23.2833 31.4943 22.2432 32.0044 21.4781L32.7702 20.3295C33.1374 19.7786 33.3334 19.1314 33.3334 18.4693V17.9999Z" fill="#E1001A"/>
<path d="M31.9381 19.7747L4.20413 1.28317L4.20317 1.2846L31.9381 19.7747ZM31.1724 20.9233L3.43743 2.4332L3.43708 2.43373L31.1724 20.9233ZM32.5078 24.49L41.2794 -7.66854L41.2779 -7.66896L32.5078 24.49ZM34.0305 24.8387L65.2673 13.2037L58.6805 -4.48033L40.1279 -7.93226L34.0305 24.8387ZM34.0318 24.8421L2.79496 36.477L2.80667 36.5084L2.81845 36.5399L34.0318 24.8421ZM40.9682 24.8421L72.1815 36.54L72.1914 36.5136L72.2012 36.4873L40.9682 24.8421ZM40.9695 24.8387L34.872 -7.93224L16.3266 -4.48161L9.73647 13.1934L40.9695 24.8387ZM42.4922 24.49L33.7222 -7.66897L33.7205 -7.66851L42.4922 24.49ZM43.8277 20.9233L71.5629 2.43363L71.5627 2.4333L43.8277 20.9233ZM43.0619 19.7747L70.7969 1.2847L70.7955 1.28251L43.0619 19.7747ZM39.7509 25.0246L67.1108 44.0653L109.527 -16.8833L35.7961 -8.07331L39.7509 25.0246ZM35.249 25.0245L39.2038 -8.07338L-34.526 -16.8832L7.88889 44.0649L35.249 25.0245ZM42.2299 20.3295L14.4938 38.8179L14.4948 38.8195L42.2299 20.3295ZM42.9956 21.4781L15.2606 39.9681L15.2613 39.9692L42.9956 21.4781ZM42.2291 23.5253L50.9996 55.684L51.0003 55.6839L42.2291 23.5253ZM32.771 23.5253L23.9993 55.6838L24.0005 55.6841L32.771 23.5253ZM32.0044 21.4781L59.739 39.9687L59.7394 39.9681L32.0044 21.4781ZM32.7702 20.3295L60.5052 38.8195L60.5054 38.8191L32.7702 20.3295ZM37.5 -20.5001C16.2369 -20.5001 -0.999977 -3.26293 -0.999977 17.9999H65.6667C65.6667 33.5558 53.0561 46.1666 37.5 46.1666V-20.5001ZM-0.999977 17.9999V18.4693H65.6667V17.9999H-0.999977ZM-0.999977 18.4693C-0.999977 12.354 0.80994 6.37384 4.20413 1.28317L59.6721 38.2663C63.5817 32.4025 65.6667 25.5138 65.6667 18.4693H-0.999977ZM4.20317 1.2846L3.43743 2.4332L58.9073 39.4134L59.673 38.2648L4.20317 1.2846ZM3.43708 2.43373C-10.0713 22.6969 0.240694 50.2411 23.7378 56.6489L41.2779 -7.66896C61.6835 -2.10415 70.6386 21.816 58.9077 39.4129L3.43708 2.43373ZM23.7363 56.6485C25.1258 57.0275 26.526 57.3478 27.9331 57.6096L40.1279 -7.93226C40.5131 -7.86059 40.8973 -7.77275 41.2794 -7.66854L23.7363 56.6485ZM2.7937 36.4736L2.79496 36.477L65.2686 13.2071L65.2673 13.2037L2.7937 36.4736ZM2.81845 36.5399C8.40046 51.4344 22.5735 60.4999 37.5 60.4999V-6.16675C49.2558 -6.16675 60.6884 0.985599 65.2451 13.1442L2.81845 36.5399ZM37.5 60.4999C52.4266 60.4999 66.5995 51.4342 72.1815 36.54L9.75491 13.1441C14.3116 0.985745 25.744 -6.16675 37.5 -6.16675V60.4999ZM72.2012 36.4873L72.2025 36.4839L9.73647 13.1934L9.7352 13.1968L72.2012 36.4873ZM47.067 57.6095C48.4733 57.3479 49.8736 57.0277 51.2639 56.6485L33.7205 -7.66851C34.1033 -7.77293 34.4875 -7.86071 34.872 -7.93224L47.067 57.6095ZM51.2622 56.6489C74.7594 50.2411 85.0713 22.6968 71.5629 2.43363L16.0924 39.413C4.36147 21.8161 13.3164 -2.10415 33.7222 -7.66897L51.2622 56.6489ZM71.5627 2.4333L70.7969 1.2847L15.3269 38.2647L16.0927 39.4133L71.5627 2.4333ZM70.7955 1.28251C74.1899 6.37326 76 12.3537 76 18.4693H9.33333C9.33333 25.5142 11.4185 32.4031 15.3284 38.2669L70.7955 1.28251ZM76 18.4693V17.9999H9.33333V18.4693H76ZM76 17.9999C76 -3.26307 58.7629 -20.5001 37.5 -20.5001V46.1666C21.944 46.1666 9.33333 33.556 9.33333 17.9999H76ZM35.7961 -8.07331C36.9291 -8.20868 38.0729 -8.20851 39.2038 -8.07338L31.2942 58.1224C35.4157 58.6149 39.5823 58.6152 43.7057 58.1225L35.7961 -8.07331ZM7.88889 44.0649C14.6202 53.7374 25.683 59.4999 37.5 59.4999V-7.16675C47.4117 -7.16675 56.8257 -2.32625 62.6091 5.98413L7.88889 44.0649ZM37.5 59.4999C49.3166 59.4999 60.3794 53.7378 67.1108 44.0653L12.3911 5.98385C18.1746 -2.3266 27.5886 -7.16675 37.5 -7.16675V59.4999ZM66.6667 17.9999C66.6667 34.1081 53.6085 47.1666 37.5 47.1666V-19.5001C16.7892 -19.5001 2.25768e-05 -2.71062 2.25768e-05 17.9999H66.6667ZM37.5 47.1666C21.3916 47.1666 8.33333 34.1082 8.33333 17.9999H75C75 -2.71069 58.2108 -19.5001 37.5 -19.5001V47.1666ZM8.33333 17.9999V18.4693H75V17.9999H8.33333ZM8.33333 18.4693C8.33333 25.7136 10.478 32.7934 14.4938 38.8179L69.9659 1.84099C73.2473 6.76372 75 12.5492 75 18.4693H8.33333ZM14.4948 38.8195L15.2606 39.9681L70.7306 2.98805L69.9649 1.83945L14.4948 38.8195ZM15.2613 39.9692C3.14915 21.8025 12.3963 -2.88887 33.4579 -8.63337L51.0003 55.6839C73.8364 49.4554 83.8623 22.6839 70.7299 2.98693L15.2613 39.9692ZM33.4585 -8.63354C36.1046 -9.3552 38.8955 -9.35517 41.5414 -8.63357L24.0005 55.6841C32.8387 58.0945 42.1613 58.0945 50.9996 55.684L33.4585 -8.63354ZM41.5426 -8.63326C62.6034 -2.88867 71.8508 21.8018 59.739 39.9687L4.26982 2.98743C-8.86221 22.6845 1.1641 49.4552 23.9993 55.6838L41.5426 -8.63326ZM59.7394 39.9681L60.5052 38.8195L5.03514 1.83945L4.26941 2.98805L59.7394 39.9681ZM60.5054 38.8191C64.5226 32.7931 66.6667 25.7125 66.6667 18.4693H2.25768e-05C2.25768e-05 12.5503 1.75214 6.7641 5.03489 1.83983L60.5054 38.8191ZM66.6667 18.4693V17.9999H2.25768e-05V18.4693H66.6667Z" fill="#E1001A" mask="url(#path-3-inside-2_276_601)"/>
<path d="M13.3477 34.4688V43H11.5957V34.4688H13.3477ZM15.9727 34.4688V35.8457H9.01172V34.4688H15.9727ZM18.5156 34V43H16.8281V34H18.5156ZM18.2754 39.6074H17.8125C17.8164 39.166 17.875 38.7598 17.9883 38.3887C18.1016 38.0137 18.2637 37.6895 18.4746 37.416C18.6855 37.1387 18.9375 36.9238 19.2305 36.7715C19.5273 36.6191 19.8555 36.543 20.2148 36.543C20.5273 36.543 20.8105 36.5879 21.0645 36.6777C21.3223 36.7637 21.543 36.9043 21.7266 37.0996C21.9141 37.291 22.0586 37.543 22.1602 37.8555C22.2617 38.168 22.3125 38.5469 22.3125 38.9922V43H20.6133V38.9805C20.6133 38.6992 20.5723 38.4785 20.4902 38.3184C20.4121 38.1543 20.2969 38.0391 20.1445 37.9727C19.9961 37.9023 19.8125 37.8672 19.5938 37.8672C19.3516 37.8672 19.1445 37.9121 18.9727 38.002C18.8047 38.0918 18.6699 38.2168 18.5684 38.377C18.4668 38.5332 18.3926 38.7168 18.3457 38.9277C18.2988 39.1387 18.2754 39.3652 18.2754 39.6074ZM23.3262 39.8945V39.7715C23.3262 39.3066 23.3926 38.8789 23.5254 38.4883C23.6582 38.0938 23.8516 37.752 24.1055 37.4629C24.3594 37.1738 24.6719 36.9492 25.043 36.7891C25.4141 36.625 25.8398 36.543 26.3203 36.543C26.8008 36.543 27.2285 36.625 27.6035 36.7891C27.9785 36.9492 28.293 37.1738 28.5469 37.4629C28.8047 37.752 29 38.0938 29.1328 38.4883C29.2656 38.8789 29.332 39.3066 29.332 39.7715V39.8945C29.332 40.3555 29.2656 40.7832 29.1328 41.1777C29 41.5684 28.8047 41.9102 28.5469 42.2031C28.293 42.4922 27.9805 42.7168 27.6094 42.877C27.2383 43.0371 26.8125 43.1172 26.332 43.1172C25.8516 43.1172 25.4238 43.0371 25.0488 42.877C24.6777 42.7168 24.3633 42.4922 24.1055 42.2031C23.8516 41.9102 23.6582 41.5684 23.5254 41.1777C23.3926 40.7832 23.3262 40.3555 23.3262 39.8945ZM25.0137 39.7715V39.8945C25.0137 40.1602 25.0371 40.4082 25.084 40.6387C25.1309 40.8691 25.2051 41.0723 25.3066 41.248C25.4121 41.4199 25.5488 41.5547 25.7168 41.6523C25.8848 41.75 26.0898 41.7988 26.332 41.7988C26.5664 41.7988 26.7676 41.75 26.9355 41.6523C27.1035 41.5547 27.2383 41.4199 27.3398 41.248C27.4414 41.0723 27.5156 40.8691 27.5625 40.6387C27.6133 40.4082 27.6387 40.1602 27.6387 39.8945V39.7715C27.6387 39.5137 27.6133 39.2715 27.5625 39.0449C27.5156 38.8145 27.4395 38.6113 27.334 38.4355C27.2324 38.2559 27.0977 38.1152 26.9297 38.0137C26.7617 37.9121 26.5586 37.8613 26.3203 37.8613C26.082 37.8613 25.8789 37.9121 25.7109 38.0137C25.5469 38.1152 25.4121 38.2559 25.3066 38.4355C25.2051 38.6113 25.1309 38.8145 25.084 39.0449C25.0371 39.2715 25.0137 39.5137 25.0137 39.7715ZM26.8008 34L28.5703 35.6289V35.6992H27.2285L26.3086 34.8438L25.4004 35.6992H24.082V35.6113L25.8223 34H26.8008ZM32.0215 38.0137V43H30.334V36.6602H31.916L32.0215 38.0137ZM31.7754 39.6074H31.3184C31.3184 39.1387 31.3789 38.7168 31.5 38.3418C31.6211 37.9629 31.791 37.6406 32.0098 37.375C32.2285 37.1055 32.4883 36.9004 32.7891 36.7598C33.0938 36.6152 33.4336 36.543 33.8086 36.543C34.1055 36.543 34.377 36.5859 34.623 36.6719C34.8691 36.7578 35.0801 36.8945 35.2559 37.082C35.4355 37.2695 35.5723 37.5176 35.666 37.8262C35.7637 38.1348 35.8125 38.5117 35.8125 38.957V43H34.1133V38.9512C34.1133 38.6699 34.0742 38.4512 33.9961 38.2949C33.918 38.1387 33.8027 38.0293 33.6504 37.9668C33.502 37.9004 33.3184 37.8672 33.0996 37.8672C32.873 37.8672 32.6758 37.9121 32.5078 38.002C32.3438 38.0918 32.207 38.2168 32.0977 38.377C31.9922 38.5332 31.9121 38.7168 31.8574 38.9277C31.8027 39.1387 31.7754 39.3652 31.7754 39.6074ZM41.1094 36.6602H42.6387V42.7891C42.6387 43.3672 42.5098 43.8574 42.252 44.2598C41.998 44.666 41.6426 44.9727 41.1855 45.1797C40.7285 45.3906 40.1973 45.4961 39.5918 45.4961C39.3262 45.4961 39.0449 45.4609 38.748 45.3906C38.4551 45.3203 38.1738 45.2109 37.9043 45.0625C37.6387 44.9141 37.416 44.7266 37.2363 44.5L37.9805 43.5039C38.1758 43.7305 38.4023 43.9062 38.6602 44.0312C38.918 44.1602 39.2031 44.2246 39.5156 44.2246C39.8203 44.2246 40.0781 44.168 40.2891 44.0547C40.5 43.9453 40.6621 43.7832 40.7754 43.5684C40.8887 43.3574 40.9453 43.1016 40.9453 42.8008V38.125L41.1094 36.6602ZM36.8438 39.9062V39.7832C36.8438 39.2988 36.9023 38.8594 37.0195 38.4648C37.1406 38.0664 37.3105 37.7246 37.5293 37.4395C37.752 37.1543 38.0215 36.9336 38.3379 36.7773C38.6543 36.6211 39.0117 36.543 39.4102 36.543C39.832 36.543 40.1855 36.6211 40.4707 36.7773C40.7559 36.9336 40.9902 37.1562 41.1738 37.4453C41.3574 37.7305 41.5 38.0684 41.6016 38.459C41.707 38.8457 41.7891 39.2695 41.8477 39.7305V40C41.7891 40.4414 41.7012 40.8516 41.584 41.2305C41.4668 41.6094 41.3125 41.9414 41.1211 42.2266C40.9297 42.5078 40.6914 42.7266 40.4062 42.8828C40.125 43.0391 39.7891 43.1172 39.3984 43.1172C39.0078 43.1172 38.6543 43.0371 38.3379 42.877C38.0254 42.7168 37.7578 42.4922 37.5352 42.2031C37.3125 41.9141 37.1406 41.5742 37.0195 41.1836C36.9023 40.793 36.8438 40.3672 36.8438 39.9062ZM38.5312 39.7832V39.9062C38.5312 40.168 38.5566 40.4121 38.6074 40.6387C38.6582 40.8652 38.7363 41.0664 38.8418 41.2422C38.9512 41.4141 39.0859 41.5488 39.2461 41.6465C39.4102 41.7402 39.6035 41.7871 39.8262 41.7871C40.1348 41.7871 40.3867 41.7227 40.582 41.5938C40.7773 41.4609 40.9238 41.2793 41.0215 41.0488C41.1191 40.8184 41.1758 40.5527 41.1914 40.252V39.4844C41.1836 39.2383 41.1504 39.0176 41.0918 38.8223C41.0332 38.623 40.9512 38.4531 40.8457 38.3125C40.7402 38.1719 40.6035 38.0625 40.4355 37.9844C40.2676 37.9062 40.0684 37.8672 39.8379 37.8672C39.6152 37.8672 39.4219 37.918 39.2578 38.0195C39.0977 38.1172 38.9629 38.252 38.8535 38.4238C38.748 38.5957 38.668 38.7988 38.6133 39.0332C38.5586 39.2637 38.5312 39.5137 38.5312 39.7832ZM46.9395 34H48.627V41.5469L48.457 43H46.9395V34ZM52.6406 39.7656V39.8887C52.6406 40.3613 52.5898 40.7949 52.4883 41.1895C52.3906 41.584 52.2383 41.9258 52.0312 42.2148C51.8242 42.5 51.5664 42.7227 51.2578 42.8828C50.9531 43.0391 50.5938 43.1172 50.1797 43.1172C49.793 43.1172 49.457 43.0391 49.1719 42.8828C48.8906 42.7266 48.6543 42.5059 48.4629 42.2207C48.2715 41.9355 48.1172 41.6016 48 41.2188C47.8828 40.8359 47.7949 40.418 47.7363 39.9648V39.6953C47.7949 39.2422 47.8828 38.8242 48 38.4414C48.1172 38.0586 48.2715 37.7246 48.4629 37.4395C48.6543 37.1543 48.8906 36.9336 49.1719 36.7773C49.4531 36.6211 49.7852 36.543 50.168 36.543C50.5859 36.543 50.9492 36.623 51.2578 36.7832C51.5703 36.9395 51.8281 37.1621 52.0312 37.4512C52.2383 37.7363 52.3906 38.0762 52.4883 38.4707C52.5898 38.8613 52.6406 39.293 52.6406 39.7656ZM50.9531 39.8887V39.7656C50.9531 39.5078 50.9336 39.2656 50.8945 39.0391C50.8594 38.8086 50.7969 38.6074 50.707 38.4355C50.6172 38.2598 50.4941 38.1211 50.3379 38.0195C50.1855 37.918 49.9883 37.8672 49.7461 37.8672C49.5156 37.8672 49.3203 37.9062 49.1602 37.9844C49 38.0625 48.8672 38.1719 48.7617 38.3125C48.6602 38.4531 48.584 38.6211 48.5332 38.8164C48.4824 39.0078 48.4512 39.2188 48.4395 39.4492V40.2168C48.4512 40.5254 48.502 40.7988 48.5918 41.0371C48.6855 41.2715 48.8262 41.457 49.0137 41.5938C49.2051 41.7266 49.4531 41.793 49.7578 41.793C49.9961 41.793 50.1934 41.7461 50.3496 41.6523C50.5059 41.5586 50.627 41.4258 50.7129 41.2539C50.8027 41.082 50.8652 40.8809 50.9004 40.6504C50.9355 40.416 50.9531 40.1621 50.9531 39.8887ZM57.1113 41.5703V38.7461C57.1113 38.543 57.0781 38.3691 57.0117 38.2246C56.9453 38.0762 56.8418 37.9609 56.7012 37.8789C56.5645 37.7969 56.3867 37.7559 56.168 37.7559C55.9805 37.7559 55.8184 37.7891 55.6816 37.8555C55.5449 37.918 55.4395 38.0098 55.3652 38.1309C55.291 38.248 55.2539 38.3867 55.2539 38.5469H53.5664C53.5664 38.2773 53.6289 38.0215 53.7539 37.7793C53.8789 37.5371 54.0605 37.3242 54.2988 37.1406C54.5371 36.9531 54.8203 36.8066 55.1484 36.7012C55.4805 36.5957 55.8516 36.543 56.2617 36.543C56.7539 36.543 57.1914 36.625 57.5742 36.7891C57.957 36.9531 58.2578 37.1992 58.4766 37.5273C58.6992 37.8555 58.8105 38.2656 58.8105 38.7578V41.4707C58.8105 41.8184 58.832 42.1035 58.875 42.3262C58.918 42.5449 58.9805 42.7363 59.0625 42.9004V43H57.3574C57.2754 42.8281 57.2129 42.6133 57.1699 42.3555C57.1309 42.0938 57.1113 41.832 57.1113 41.5703ZM57.334 39.1387L57.3457 40.0938H56.4023C56.1797 40.0938 55.9863 40.1191 55.8223 40.1699C55.6582 40.2207 55.5234 40.293 55.418 40.3867C55.3125 40.4766 55.2344 40.582 55.1836 40.7031C55.1367 40.8242 55.1133 40.957 55.1133 41.1016C55.1133 41.2461 55.1465 41.377 55.2129 41.4941C55.2793 41.6074 55.375 41.6973 55.5 41.7637C55.625 41.8262 55.7715 41.8574 55.9395 41.8574C56.1934 41.8574 56.4141 41.8066 56.6016 41.7051C56.7891 41.6035 56.9336 41.4785 57.0352 41.3301C57.1406 41.1816 57.1953 41.041 57.1992 40.9082L57.6445 41.623C57.582 41.7832 57.4961 41.9492 57.3867 42.1211C57.2812 42.293 57.1465 42.4551 56.9824 42.6074C56.8184 42.7559 56.6211 42.8789 56.3906 42.9766C56.1602 43.0703 55.8867 43.1172 55.5703 43.1172C55.168 43.1172 54.8027 43.0371 54.4746 42.877C54.1504 42.7129 53.8926 42.4883 53.7012 42.2031C53.5137 41.9141 53.4199 41.5859 53.4199 41.2188C53.4199 40.8867 53.4824 40.5918 53.6074 40.334C53.7324 40.0762 53.916 39.8594 54.1582 39.6836C54.4043 39.5039 54.7109 39.3691 55.0781 39.2793C55.4453 39.1855 55.8711 39.1387 56.3555 39.1387H57.334ZM55.4531 35.8047L56.6016 34H58.4355L56.8242 35.8047H55.4531ZM59.8418 39.8945V39.7715C59.8418 39.3066 59.9082 38.8789 60.041 38.4883C60.1738 38.0938 60.3672 37.752 60.6211 37.4629C60.875 37.1738 61.1875 36.9492 61.5586 36.7891C61.9297 36.625 62.3555 36.543 62.8359 36.543C63.3164 36.543 63.7441 36.625 64.1191 36.7891C64.4941 36.9492 64.8086 37.1738 65.0625 37.4629C65.3203 37.752 65.5156 38.0938 65.6484 38.4883C65.7812 38.8789 65.8477 39.3066 65.8477 39.7715V39.8945C65.8477 40.3555 65.7812 40.7832 65.6484 41.1777C65.5156 41.5684 65.3203 41.9102 65.0625 42.2031C64.8086 42.4922 64.4961 42.7168 64.125 42.877C63.7539 43.0371 63.3281 43.1172 62.8477 43.1172C62.3672 43.1172 61.9395 43.0371 61.5645 42.877C61.1934 42.7168 60.8789 42.4922 60.6211 42.2031C60.3672 41.9102 60.1738 41.5684 60.041 41.1777C59.9082 40.7832 59.8418 40.3555 59.8418 39.8945ZM61.5293 39.7715V39.8945C61.5293 40.1602 61.5527 40.4082 61.5996 40.6387C61.6465 40.8691 61.7207 41.0723 61.8223 41.248C61.9277 41.4199 62.0645 41.5547 62.2324 41.6523C62.4004 41.75 62.6055 41.7988 62.8477 41.7988C63.082 41.7988 63.2832 41.75 63.4512 41.6523C63.6191 41.5547 63.7539 41.4199 63.8555 41.248C63.957 41.0723 64.0312 40.8691 64.0781 40.6387C64.1289 40.4082 64.1543 40.1602 64.1543 39.8945V39.7715C64.1543 39.5137 64.1289 39.2715 64.0781 39.0449C64.0312 38.8145 63.9551 38.6113 63.8496 38.4355C63.748 38.2559 63.6133 38.1152 63.4453 38.0137C63.2773 37.9121 63.0742 37.8613 62.8359 37.8613C62.5977 37.8613 62.3945 37.9121 62.2266 38.0137C62.0625 38.1152 61.9277 38.2559 61.8223 38.4355C61.7207 38.6113 61.6465 38.8145 61.5996 39.0449C61.5527 39.2715 61.5293 39.5137 61.5293 39.7715Z" fill="#E1001A"/>
</svg>
