<svg width="75" height="62" viewBox="0 0 75 62" fill="none" xmlns="http://www.w3.org/2000/svg">
<mask id="path-1-inside-1_261_340" fill="white">
<path d="M0 0H75V62H0V0Z"/>
</mask>
<path d="M0 1H75V-1H0V1Z" fill="#E1001A" mask="url(#path-1-inside-1_261_340)"/>
<mask id="path-3-inside-2_261_340" fill="white">
<path fill-rule="evenodd" clip-rule="evenodd" d="M37.5 12.8333C37.0969 12.8333 36.7256 12.9334 36.3192 13.1015C35.9267 13.2638 35.4709 13.5031 34.9033 13.8009L33.5249 14.5243C32.8283 14.8898 32.2708 15.1824 31.8403 15.4699C31.3944 15.7677 31.0509 16.0813 30.8007 16.506C30.5515 16.9294 30.4393 17.3878 30.3855 17.9337C30.3333 18.4636 30.3333 19.1153 30.3333 19.935V20.0649C30.3333 20.8845 30.3333 21.5362 30.3855 22.0661C30.4393 22.6121 30.5515 23.0705 30.8007 23.4938C31.0509 23.9186 31.3944 24.2322 31.8403 24.53C32.2708 24.8175 32.8283 25.11 33.5249 25.4756L34.9032 26.1989C35.4709 26.4968 35.9267 26.736 36.3192 26.8983C36.7256 27.0664 37.0969 27.1666 37.5 27.1666C37.9031 27.1666 38.2744 27.0664 38.6808 26.8983C39.0733 26.736 39.5291 26.4968 40.0967 26.1989L41.4751 25.4756C42.1717 25.11 42.7292 24.8175 43.1597 24.53C43.6057 24.2322 43.9491 23.9186 44.1993 23.4938C44.4485 23.0705 44.5607 22.6121 44.6145 22.0661C44.6667 21.5362 44.6667 20.8845 44.6667 20.0649V19.9349C44.6667 19.1153 44.6667 18.4636 44.6145 17.9337C44.5607 17.3878 44.4485 16.9294 44.1993 16.506C43.9491 16.0813 43.6057 15.7677 43.1597 15.4699C42.7292 15.1824 42.1717 14.8898 41.4751 14.5243L40.0967 13.8009C39.5291 13.5031 39.0733 13.2638 38.6808 13.1015C38.2744 12.9334 37.9031 12.8333 37.5 12.8333ZM35.3472 14.6973C35.9403 14.386 36.356 14.1685 36.7013 14.0256C37.0375 13.8866 37.2737 13.8333 37.5 13.8333C37.7263 13.8333 37.9625 13.8866 38.2987 14.0256C38.644 14.1685 39.0597 14.386 39.6528 14.6973L40.9861 15.397C41.7126 15.7782 42.223 16.0468 42.6043 16.3015C42.7925 16.4271 42.9403 16.5438 43.0597 16.6611L40.8392 17.7713L35.1726 14.7889L35.3472 14.6973ZM34.1298 15.3362L34.0139 15.397C33.2874 15.7782 32.777 16.0468 32.3957 16.3015C32.2075 16.4271 32.0597 16.5438 31.9404 16.6611L37.5 19.4409L39.7381 18.3218L34.2671 15.4424C34.214 15.4144 34.1679 15.3782 34.1298 15.3362ZM31.4585 17.5382C31.4248 17.6808 31.3993 17.8427 31.3807 18.0318C31.3339 18.507 31.3333 19.1095 31.3333 19.9609V20.0389C31.3333 20.8903 31.3339 21.4929 31.3807 21.9681C31.4265 22.4329 31.5135 22.7334 31.6624 22.9864C31.8106 23.2379 32.0248 23.4507 32.3957 23.6984C32.777 23.9531 33.2874 24.2216 34.0139 24.6029L35.3472 25.3025C35.9403 25.6138 36.356 25.8314 36.7013 25.9742C36.8104 26.0193 36.9089 26.0554 37 26.0836V20.3089L31.4585 17.5382ZM38 26.0836C38.0911 26.0554 38.1896 26.0193 38.2987 25.9742C38.644 25.8314 39.0597 25.6138 39.6528 25.3025L40.9861 24.6029C41.7126 24.2216 42.223 23.9531 42.6043 23.6984C42.9751 23.4507 43.1894 23.2379 43.3375 22.9864C43.4865 22.7334 43.5735 22.4329 43.6193 21.9681C43.6661 21.4929 43.6667 20.8903 43.6667 20.0389V19.9609C43.6667 19.1095 43.6661 18.507 43.6193 18.0318C43.6007 17.8427 43.5752 17.6808 43.5415 17.5382L41.3333 18.6423V20.6666C41.3333 20.9427 41.1095 21.1666 40.8333 21.1666C40.5572 21.1666 40.3333 20.9427 40.3333 20.6666V19.1423L38 20.3089V26.0836Z"/>
</mask>
<path fill-rule="evenodd" clip-rule="evenodd" d="M37.5 12.8333C37.0969 12.8333 36.7256 12.9334 36.3192 13.1015C35.9267 13.2638 35.4709 13.5031 34.9033 13.8009L33.5249 14.5243C32.8283 14.8898 32.2708 15.1824 31.8403 15.4699C31.3944 15.7677 31.0509 16.0813 30.8007 16.506C30.5515 16.9294 30.4393 17.3878 30.3855 17.9337C30.3333 18.4636 30.3333 19.1153 30.3333 19.935V20.0649C30.3333 20.8845 30.3333 21.5362 30.3855 22.0661C30.4393 22.6121 30.5515 23.0705 30.8007 23.4938C31.0509 23.9186 31.3944 24.2322 31.8403 24.53C32.2708 24.8175 32.8283 25.11 33.5249 25.4756L34.9032 26.1989C35.4709 26.4968 35.9267 26.736 36.3192 26.8983C36.7256 27.0664 37.0969 27.1666 37.5 27.1666C37.9031 27.1666 38.2744 27.0664 38.6808 26.8983C39.0733 26.736 39.5291 26.4968 40.0967 26.1989L41.4751 25.4756C42.1717 25.11 42.7292 24.8175 43.1597 24.53C43.6057 24.2322 43.9491 23.9186 44.1993 23.4938C44.4485 23.0705 44.5607 22.6121 44.6145 22.0661C44.6667 21.5362 44.6667 20.8845 44.6667 20.0649V19.9349C44.6667 19.1153 44.6667 18.4636 44.6145 17.9337C44.5607 17.3878 44.4485 16.9294 44.1993 16.506C43.9491 16.0813 43.6057 15.7677 43.1597 15.4699C42.7292 15.1824 42.1717 14.8898 41.4751 14.5243L40.0967 13.8009C39.5291 13.5031 39.0733 13.2638 38.6808 13.1015C38.2744 12.9334 37.9031 12.8333 37.5 12.8333ZM35.3472 14.6973C35.9403 14.386 36.356 14.1685 36.7013 14.0256C37.0375 13.8866 37.2737 13.8333 37.5 13.8333C37.7263 13.8333 37.9625 13.8866 38.2987 14.0256C38.644 14.1685 39.0597 14.386 39.6528 14.6973L40.9861 15.397C41.7126 15.7782 42.223 16.0468 42.6043 16.3015C42.7925 16.4271 42.9403 16.5438 43.0597 16.6611L40.8392 17.7713L35.1726 14.7889L35.3472 14.6973ZM34.1298 15.3362L34.0139 15.397C33.2874 15.7782 32.777 16.0468 32.3957 16.3015C32.2075 16.4271 32.0597 16.5438 31.9404 16.6611L37.5 19.4409L39.7381 18.3218L34.2671 15.4424C34.214 15.4144 34.1679 15.3782 34.1298 15.3362ZM31.4585 17.5382C31.4248 17.6808 31.3993 17.8427 31.3807 18.0318C31.3339 18.507 31.3333 19.1095 31.3333 19.9609V20.0389C31.3333 20.8903 31.3339 21.4929 31.3807 21.9681C31.4265 22.4329 31.5135 22.7334 31.6624 22.9864C31.8106 23.2379 32.0248 23.4507 32.3957 23.6984C32.777 23.9531 33.2874 24.2216 34.0139 24.6029L35.3472 25.3025C35.9403 25.6138 36.356 25.8314 36.7013 25.9742C36.8104 26.0193 36.9089 26.0554 37 26.0836V20.3089L31.4585 17.5382ZM38 26.0836C38.0911 26.0554 38.1896 26.0193 38.2987 25.9742C38.644 25.8314 39.0597 25.6138 39.6528 25.3025L40.9861 24.6029C41.7126 24.2216 42.223 23.9531 42.6043 23.6984C42.9751 23.4507 43.1894 23.2379 43.3375 22.9864C43.4865 22.7334 43.5735 22.4329 43.6193 21.9681C43.6661 21.4929 43.6667 20.8903 43.6667 20.0389V19.9609C43.6667 19.1095 43.6661 18.507 43.6193 18.0318C43.6007 17.8427 43.5752 17.6808 43.5415 17.5382L41.3333 18.6423V20.6666C41.3333 20.9427 41.1095 21.1666 40.8333 21.1666C40.5572 21.1666 40.3333 20.9427 40.3333 20.6666V19.1423L38 20.3089V26.0836Z" fill="#111111"/>
<path d="M36.3192 13.1015L49.0576 43.9048L49.0592 43.9042L36.3192 13.1015ZM34.9033 13.8009L50.3925 43.3169L50.3928 43.3168L34.9033 13.8009ZM33.5249 14.5243L49.0139 44.0404L49.0142 44.0402L33.5249 14.5243ZM31.8403 15.4699L13.3283 -12.2505L13.328 -12.2503L31.8403 15.4699ZM30.8007 16.506L59.5241 33.4199L59.5241 33.4199L30.8007 16.506ZM30.3855 17.9337L-2.78723 14.6658L-2.78724 14.666L30.3855 17.9337ZM30.3333 19.935H63.6667V19.9347L30.3333 19.935ZM30.3333 20.0649L63.6667 20.0651V20.0649H30.3333ZM30.3855 22.0661L-2.78726 25.3337L-2.78724 25.334L30.3855 22.0661ZM30.8007 23.4938L59.5245 6.58051L59.5238 6.57932L30.8007 23.4938ZM31.8403 24.53L50.3523 -3.19035L50.3517 -3.19073L31.8403 24.53ZM33.5249 25.4756L18.035 54.9912L18.0361 54.9918L33.5249 25.4756ZM34.9032 26.1989L50.3944 -3.31615L50.392 -3.31737L34.9032 26.1989ZM36.3192 26.8983L23.5793 57.701L23.5805 57.7015L36.3192 26.8983ZM38.6808 26.8983L51.4195 57.7015L51.4214 57.7007L38.6808 26.8983ZM40.0967 26.1989L55.5862 55.7148L55.5863 55.7147L40.0967 26.1989ZM41.4751 25.4756L25.9856 -4.04029L25.9855 -4.04025L41.4751 25.4756ZM43.1597 24.53L24.6496 -3.19163L24.6479 -3.19049L43.1597 24.53ZM44.1993 23.4938L72.923 40.4071L72.9231 40.4069L44.1993 23.4938ZM44.6145 22.0661L77.7871 25.3352L77.7873 25.3337L44.6145 22.0661ZM44.6145 17.9337L77.7872 14.6659L77.7871 14.6646L44.6145 17.9337ZM44.1993 16.506L72.9234 -0.406491L72.9226 -0.407829L44.1993 16.506ZM43.1597 15.4699L24.6479 43.1903L24.6487 43.1909L43.1597 15.4699ZM41.4751 14.5243L25.986 44.0403L25.9862 44.0405L41.4751 14.5243ZM40.0967 13.8009L24.6068 43.3166L24.6076 43.317L40.0967 13.8009ZM38.6808 13.1015L25.9408 43.9042L25.9415 43.9045L38.6808 13.1015ZM35.3472 14.6973L50.8362 44.2134L50.8366 44.2132L35.3472 14.6973ZM36.7013 14.0256L23.9622 -16.7774L23.9616 -16.7771L36.7013 14.0256ZM38.2987 14.0256L51.0384 -16.7771L51.0378 -16.7774L38.2987 14.0256ZM39.6528 14.6973L24.1631 44.2131L24.1635 44.2133L39.6528 14.6973ZM40.9861 15.397L56.4754 -14.119L56.4754 -14.119L40.9861 15.397ZM42.6043 16.3015L24.092 44.0216L24.0921 44.0217L42.6043 16.3015ZM43.0597 16.6611L57.9667 46.4754L99.7199 25.5989L66.4205 -7.11666L43.0597 16.6611ZM40.8392 17.7713L25.3144 47.2686L40.449 55.2342L55.7462 47.5856L40.8392 17.7713ZM35.1726 14.7889L19.6836 -14.7272L-36.4798 14.7455L19.6478 44.2862L35.1726 14.7889ZM34.1298 15.3362L58.806 -7.07358L41.4714 -26.1613L18.6401 -14.1796L34.1298 15.3362ZM34.0139 15.397L49.5031 44.913L49.5035 44.9128L34.0139 15.397ZM32.3957 16.3015L50.9074 44.022L50.9078 44.0217L32.3957 16.3015ZM31.9404 16.6611L8.57418 -7.11144L-24.7098 25.6036L17.0332 46.4753L31.9404 16.6611ZM37.5 19.4409L22.5928 49.2551L37.5 56.7088L52.4072 49.2551L37.5 19.4409ZM39.7381 18.3218L54.6453 48.136L112.753 19.0822L55.263 -11.1755L39.7381 18.3218ZM34.2671 15.4424L49.792 -14.0549L49.7911 -14.0554L34.2671 15.4424ZM31.4585 17.5382L46.3655 -12.2761L8.69531 -31.1111L-0.982847 9.87833L31.4585 17.5382ZM31.3807 18.0318L-1.79197 14.763L-1.79206 14.7639L31.3807 18.0318ZM31.3807 21.9681L64.5535 18.7003L64.5535 18.7001L31.3807 21.9681ZM31.6624 22.9864L2.93841 39.8991L2.93992 39.9017L31.6624 22.9864ZM32.3957 23.6984L13.8827 51.4181L13.8835 51.4186L32.3957 23.6984ZM34.0139 24.6029L18.5234 54.1182L18.5252 54.1192L34.0139 24.6029ZM35.3472 25.3025L50.8364 -4.21352L50.8359 -4.21378L35.3472 25.3025ZM36.7013 25.9742L49.4469 -4.82615L49.439 -4.82942L36.7013 25.9742ZM37 26.0836L27.1398 57.9252L70.3333 71.3006V26.0836H37ZM37 20.3089H70.3333V-0.29228L51.907 -9.50536L37 20.3089ZM38 26.0836H4.66667V71.3006L47.8602 57.9252L38 26.0836ZM38.2987 25.9742L25.561 -4.82942L25.5531 -4.82615L38.2987 25.9742ZM39.6528 25.3025L24.1641 -4.21378L24.1633 -4.21337L39.6528 25.3025ZM40.9861 24.6029L56.4748 54.1192L56.4765 54.1183L40.9861 24.6029ZM42.6043 23.6984L61.1167 51.4185L61.1185 51.4173L42.6043 23.6984ZM43.3375 22.9864L14.6152 6.07083L14.615 6.07108L43.3375 22.9864ZM43.6193 21.9681L10.4469 18.6964L10.4461 18.704L43.6193 21.9681ZM43.6193 18.0318L10.446 21.2946L10.4469 21.3033L43.6193 18.0318ZM43.5415 17.5382L75.9829 9.87866L66.305 -31.1115L28.6343 -12.276L43.5415 17.5382ZM41.3333 18.6423L26.4261 -11.1719L8 -1.95881V18.6423H41.3333ZM40.3333 19.1423H73.6667V-34.7922L25.4262 -10.672L40.3333 19.1423ZM38 20.3089L23.0929 -9.50532L4.66667 -0.292214V20.3089H38ZM37.5 -20.5001C31.2051 -20.5001 26.3318 -18.8396 23.5792 -17.7011L49.0592 43.9042C47.1194 44.7065 42.9886 46.1666 37.5 46.1666V-20.5001ZM23.5808 -17.7018C21.4688 -16.8284 19.4926 -15.7563 19.4137 -15.7149L50.3928 43.3168C50.548 43.2353 50.6195 43.1979 50.6753 43.1689C50.7261 43.1425 50.6958 43.1586 50.619 43.1971C50.5419 43.2358 50.3672 43.3225 50.1241 43.4362C49.8813 43.5496 49.5167 43.715 49.0576 43.9048L23.5808 -17.7018ZM19.414 -15.715L18.0356 -14.9917L49.0142 44.0402L50.3925 43.3169L19.414 -15.715ZM18.036 -14.9919C17.9106 -14.9261 15.5519 -13.7354 13.3283 -12.2505L50.3523 43.1902C49.8778 43.5071 49.4872 43.7463 49.2268 43.9012C48.966 44.0563 48.7758 44.1623 48.6966 44.2061C48.6176 44.2497 48.5909 44.2633 48.6586 44.2274C48.7321 44.1884 48.8244 44.1399 49.0139 44.0404L18.036 -14.9919ZM13.328 -12.2503C10.3789 -10.2808 5.72783 -6.60709 2.07737 -0.407829L59.5241 33.4199C56.3739 38.7696 52.4099 41.8161 50.3526 43.19L13.328 -12.2503ZM2.07738 -0.407835C-1.51583 5.69421 -2.46694 11.4145 -2.78723 14.6658L63.5583 21.2017C63.3455 23.3611 62.6187 28.1646 59.5241 33.4199L2.07738 -0.407835ZM-2.78724 14.666C-3.03633 17.1946 -3 19.7251 -3 19.9353L63.6667 19.9347C63.6667 19.7138 63.6667 19.5956 63.6672 19.4981C63.6676 19.4065 63.668 19.4154 63.6667 19.4814C63.6654 19.5474 63.6612 19.7339 63.648 20.0013C63.6348 20.268 63.6095 20.682 63.5583 21.2015L-2.78724 14.666ZM-3 19.935V20.0649H63.6667V19.935H-3ZM-3 20.0646C-3 20.2747 -3.03633 22.8052 -2.78726 25.3337L63.5583 18.7985C63.6095 19.3179 63.6348 19.732 63.648 19.9986C63.6612 20.2659 63.6654 20.4524 63.6667 20.5185C63.668 20.5844 63.6676 20.5933 63.6672 20.5017C63.6667 20.4042 63.6667 20.286 63.6667 20.0651L-3 20.0646ZM-2.78724 25.334C-2.46694 28.5854 -1.51579 34.306 2.07773 40.4083L59.5238 6.57932C62.6187 11.8349 63.3456 16.6387 63.5583 18.7983L-2.78724 25.334ZM2.07703 40.4071C5.72731 46.6063 10.3783 50.2804 13.3289 52.2507L50.3517 -3.19073C52.4104 -1.816 56.3744 1.23085 59.5245 6.58051L2.07703 40.4071ZM13.3283 52.2503C15.5518 53.7352 17.9115 54.9264 18.035 54.9912L49.0149 -4.04005C48.825 -4.13968 48.7327 -4.18821 48.6589 -4.22737C48.591 -4.26345 48.6175 -4.24989 48.6965 -4.20631C48.7755 -4.16265 48.9657 -4.05663 49.2265 -3.9015C49.4869 -3.74665 49.8776 -3.50737 50.3523 -3.19035L13.3283 52.2503ZM18.0361 54.9918L19.4144 55.7151L50.392 -3.31737L49.0137 -4.04064L18.0361 54.9918ZM19.4121 55.7139C19.4943 55.757 21.4681 56.8279 23.5793 57.701L49.0591 -3.9044C49.5175 -3.71479 49.8817 -3.5496 50.1242 -3.43626C50.3672 -3.32272 50.5418 -3.23599 50.6189 -3.19732C50.6959 -3.15872 50.7263 -3.14255 50.6758 -3.16878C50.6204 -3.19759 50.549 -3.23496 50.3944 -3.31615L19.4121 55.7139ZM23.5805 57.7015C26.3319 58.8393 31.205 60.4999 37.5 60.4999V-6.16675C42.9887 -6.16675 47.1193 -4.70657 49.0579 -3.90489L23.5805 57.7015ZM37.5 60.4999C43.795 60.4999 48.6681 58.8393 51.4195 57.7015L25.9421 -3.90489C27.8807 -4.70657 32.0112 -6.16675 37.5 -6.16675V60.4999ZM51.4214 57.7007C53.5314 56.828 55.505 55.7574 55.5862 55.7148L24.6073 -3.31698C24.4524 -3.23569 24.381 -3.19828 24.3253 -3.16935C24.2746 -3.14302 24.3048 -3.15909 24.3816 -3.19757C24.4585 -3.23614 24.6329 -3.32276 24.8756 -3.4362C25.1179 -3.54943 25.482 -3.71454 25.9402 -3.90409L51.4214 57.7007ZM55.5863 55.7147L56.9646 54.9914L25.9855 -4.04025L24.6072 -3.31691L55.5863 55.7147ZM56.9645 54.9915C57.0893 54.926 59.4482 53.7352 61.6715 52.2505L24.6479 -3.19049C25.1224 -3.50737 25.5129 -3.74657 25.7733 -3.90139C26.034 -4.0565 26.2242 -4.16252 26.3033 -4.20621C26.3823 -4.24982 26.4089 -4.26341 26.3411 -4.22739C26.2675 -4.18833 26.1752 -4.13981 25.9856 -4.04029L56.9645 54.9915ZM61.6697 52.2516C64.6216 50.2806 69.2727 46.6063 72.923 40.4071L15.4755 6.58051C18.6255 1.23089 22.5897 -1.81622 24.6496 -3.19163L61.6697 52.2516ZM72.9231 40.4069C76.516 34.3049 77.4669 28.585 77.7871 25.3352L11.4418 18.7971C11.6545 16.6391 12.381 11.836 15.4755 6.58066L72.9231 40.4069ZM77.7873 25.3337C78.0363 22.8053 78 20.2749 78 20.0649H11.3333C11.3333 20.2859 11.3333 20.4041 11.3328 20.5016C11.3324 20.5932 11.332 20.5844 11.3333 20.5184C11.3346 20.4524 11.3388 20.2659 11.352 19.9985C11.3652 19.7319 11.3905 19.3179 11.4417 18.7985L77.7873 25.3337ZM78 20.0649V19.9349H11.3333V20.0649H78ZM78 19.9349C78 19.725 78.0363 17.1945 77.7872 14.6659L11.4417 21.2016C11.3905 20.6821 11.3652 20.268 11.352 20.0013C11.3388 19.734 11.3346 19.5475 11.3333 19.4815C11.332 19.4155 11.3324 19.4066 11.3328 19.4982C11.3333 19.5957 11.3333 19.714 11.3333 19.9349H78ZM77.7871 14.6646C77.4668 11.4149 76.5161 5.69523 72.9234 -0.406491L15.4751 33.4186C12.381 28.1636 11.6545 23.3607 11.4418 21.2029L77.7871 14.6646ZM72.9226 -0.407829C69.2722 -6.60705 64.6211 -10.281 61.6706 -12.2512L24.6487 43.1909C22.5902 41.8163 18.6261 38.7696 15.4759 33.4199L72.9226 -0.407829ZM61.6715 -12.2506C59.4482 -13.7353 57.0904 -14.9256 56.9639 -14.992L25.9862 44.0405C26.1756 44.1398 26.2678 44.1883 26.3412 44.2272C26.4088 44.2632 26.3821 44.2495 26.303 44.2059C26.2238 44.1621 26.0336 44.0561 25.7729 43.901C25.5126 43.7462 25.1222 43.5071 24.6479 43.1903L61.6715 -12.2506ZM56.9642 -14.9918L55.5858 -15.7151L24.6076 43.317L25.986 44.0403L56.9642 -14.9918ZM55.5867 -15.7147C55.5064 -15.7568 53.5314 -16.8282 51.42 -17.7014L25.9415 43.9045C25.4828 43.7148 25.1184 43.5495 24.8758 43.4361C24.6328 43.3226 24.4582 43.2358 24.3812 43.1972C24.3043 43.1587 24.274 43.1426 24.3247 43.1689C24.3804 43.1978 24.4518 43.2352 24.6068 43.3166L55.5867 -15.7147ZM51.4208 -17.7011C48.6682 -18.8396 43.7949 -20.5001 37.5 -20.5001V46.1666C32.0113 46.1666 27.8806 44.7065 25.9408 43.9042L51.4208 -17.7011ZM50.8366 44.2132C50.9933 44.131 51.0724 44.0896 51.1316 44.0588C51.188 44.0295 51.1595 44.0447 51.0831 44.0831C51.0068 44.1214 50.8238 44.2126 50.5683 44.3323C50.3119 44.4524 49.9259 44.6279 49.4411 44.8284L23.9616 -16.7771C21.8848 -15.9182 19.9123 -14.8472 19.8578 -14.8186L50.8366 44.2132ZM49.4404 44.8287C47.4335 45.6586 43.1672 47.1666 37.5 47.1666V-19.5001C31.3801 -19.5001 26.6414 -17.8854 23.9622 -16.7774L49.4404 44.8287ZM37.5 47.1666C31.8328 47.1666 27.5665 45.6586 25.5596 44.8287L51.0378 -16.7774C48.3586 -17.8854 43.6199 -19.5001 37.5 -19.5001V47.1666ZM25.5589 44.8284C25.0741 44.6279 24.6882 44.4525 24.4318 44.3323C24.1764 44.2127 23.9934 44.1215 23.917 44.0831C23.8406 44.0447 23.812 44.0295 23.8684 44.0588C23.9275 44.0895 24.0065 44.1309 24.1631 44.2131L55.1425 -14.8184C55.0874 -14.8474 53.1153 -15.9182 51.0384 -16.7771L25.5589 44.8284ZM24.1635 44.2133L25.4969 44.913L56.4754 -14.119L55.1421 -14.8187L24.1635 44.2133ZM25.4968 44.913C25.6886 45.0136 25.7894 45.0666 25.8666 45.1076C25.9406 45.1469 25.9156 45.1342 25.8366 45.0906C25.7577 45.0472 25.5577 44.936 25.283 44.773C25.0074 44.6094 24.5933 44.3564 24.092 44.0216L61.1167 -11.4186C58.9292 -12.8795 56.574 -14.0672 56.4754 -14.119L25.4968 44.913ZM24.0921 44.0217C23.1138 43.3683 21.4884 42.1971 19.6988 40.4388L66.4205 -7.11666C64.3921 -9.10953 62.4711 -10.5141 61.1165 -11.4187L24.0921 44.0217ZM28.1526 -13.1532L25.9322 -12.043L55.7462 47.5856L57.9667 46.4754L28.1526 -13.1532ZM56.364 -11.726L50.6975 -14.7084L19.6478 44.2862L25.3144 47.2686L56.364 -11.726ZM50.6617 44.305L50.8362 44.2134L19.8581 -14.8188L19.6836 -14.7272L50.6617 44.305ZM18.6401 -14.1796L18.5242 -14.1188L49.5035 44.9128L49.6194 44.852L18.6401 -14.1796ZM18.5247 -14.119C18.4253 -14.0669 16.0708 -12.8795 13.8835 -11.4188L50.9078 44.0217C50.4066 44.3564 49.9927 44.6094 49.7171 44.7729C49.4425 44.9359 49.2425 45.047 49.1636 45.0905C49.0846 45.1341 49.0596 45.1468 49.1335 45.1075C49.2106 45.0666 49.3114 45.0136 49.5031 44.913L18.5247 -14.119ZM13.8839 -11.419C12.5322 -10.5163 10.6073 -9.10982 8.57418 -7.11144L55.3065 40.4336C53.5121 42.1974 51.8829 43.3705 50.9074 44.022L13.8839 -11.419ZM17.0332 46.4753L22.5928 49.2551L52.4072 -10.3733L46.8476 -13.1531L17.0332 46.4753ZM52.4072 49.2551L54.6453 48.136L24.8309 -11.4924L22.5928 -10.3733L52.4072 49.2551ZM55.263 -11.1755L49.792 -14.0549L18.7423 44.9397L24.2133 47.8191L55.263 -11.1755ZM49.7911 -14.0554C53.2296 -12.2458 56.269 -9.86705 58.806 -7.07358L9.45359 37.7459C12.0668 40.6235 15.1984 43.0746 18.7432 44.9401L49.7911 -14.0554ZM-0.982847 9.87833C-1.44296 11.827 -1.66914 13.5165 -1.79197 14.763L64.5534 21.3005C64.4678 22.1688 64.2925 23.5345 63.8998 25.198L-0.982847 9.87833ZM-1.79206 14.7639C-2.03704 17.2508 -2 19.7724 -2 19.9609H64.6667C64.6667 19.737 64.6667 19.6103 64.6672 19.5094C64.6676 19.412 64.6681 19.4197 64.6668 19.4863C64.6656 19.5526 64.6613 19.7493 64.6476 20.0311C64.6339 20.3135 64.6074 20.7517 64.5535 21.2996L-1.79206 14.7639ZM-2 19.9609V20.0389H64.6667V19.9609H-2ZM-2 20.0389C-2 20.2274 -2.03704 22.7491 -1.79205 25.236L64.5535 18.7001C64.6074 19.248 64.6339 19.6863 64.6476 19.9687C64.6613 20.2505 64.6656 20.4472 64.6668 20.5136C64.6681 20.5802 64.6676 20.5879 64.6672 20.4904C64.6667 20.3895 64.6667 20.2628 64.6667 20.0389H-2ZM-1.79206 25.2358C-1.47983 28.4055 -0.554094 33.9676 2.93841 39.8991L60.3865 6.07364C63.5811 11.4992 64.3328 16.4603 64.5535 18.7003L-1.79206 25.2358ZM2.93992 39.9017C6.48691 45.9245 11.0063 49.497 13.8827 51.4181L50.9087 -4.02128C53.0434 -2.59561 57.1342 0.551288 60.385 6.07108L2.93992 39.9017ZM13.8835 51.4186C16.0707 52.8793 18.4266 54.0674 18.5234 54.1182L49.5044 -4.9125C49.3123 -5.0133 49.2113 -5.06639 49.1339 -5.1075C49.0596 -5.14689 49.0845 -5.13428 49.1633 -5.09082C49.242 -5.04745 49.442 -4.93634 49.7167 -4.77337C49.9923 -4.60983 50.4064 -4.35674 50.9078 -4.02185L13.8835 51.4186ZM18.5252 54.1192L19.8585 54.8188L50.8359 -4.21378L49.5025 -4.91345L18.5252 54.1192ZM19.858 54.8186C19.9108 54.8462 21.8853 55.9184 23.9636 56.7778L49.439 -4.82942C49.9246 -4.62864 50.3111 -4.45296 50.5678 -4.3327C50.8236 -4.21288 51.0068 -4.1216 51.0832 -4.08322C51.1596 -4.04479 51.1882 -4.02957 51.1316 -4.05895C51.0724 -4.08976 50.9933 -4.13118 50.8364 -4.21352L19.858 54.8186ZM23.9557 56.7745C24.8055 57.1262 25.8806 57.5353 27.1398 57.9252L46.8602 -5.75802C47.9372 -5.4245 48.8153 -5.08753 49.4469 -4.82615L23.9557 56.7745ZM70.3333 26.0836V20.3089H3.66667V26.0836H70.3333ZM51.907 -9.50536L46.3655 -12.2761L16.5514 47.3524L22.093 50.1232L51.907 -9.50536ZM47.8602 57.9252C49.1194 57.5353 50.1945 57.1262 51.0443 56.7745L25.5531 -4.82615C26.1847 -5.08753 27.0628 -5.4245 28.1398 -5.75802L47.8602 57.9252ZM51.0364 56.7778C53.1147 55.9184 55.0889 54.8464 55.1423 54.8184L24.1633 -4.21337C24.0065 -4.13108 23.9275 -4.08969 23.8683 -4.05892C23.8118 -4.02958 23.8404 -4.04482 23.9169 -4.08326C23.9934 -4.12166 24.1766 -4.21295 24.4323 -4.33276C24.689 -4.45302 25.0755 -4.62867 25.561 -4.82942L51.0364 56.7778ZM55.1415 54.8188L56.4748 54.1192L25.4975 -4.91345L24.1641 -4.21378L55.1415 54.8188ZM56.4765 54.1183C56.573 54.0676 58.9293 52.8793 61.1167 51.4185L24.092 -4.0217C24.5935 -4.35668 25.0077 -4.60983 25.2834 -4.77339C25.5581 -4.9364 25.7581 -5.04753 25.8368 -5.0909C25.9157 -5.13437 25.9405 -5.14699 25.8663 -5.10758C25.7888 -5.06646 25.6879 -5.01338 25.4958 -4.91256L56.4765 54.1183ZM61.1185 51.4173C63.9942 49.4965 68.5133 45.9242 72.0601 39.9017L14.615 6.07108C17.8655 0.55161 21.9561 -2.59509 24.0902 -4.02051L61.1185 51.4173ZM72.0599 39.9019C75.5541 33.9689 76.4802 28.4048 76.7924 25.2321L10.4461 18.704C10.6668 16.4609 11.419 11.4978 14.6152 6.07083L72.0599 39.9019ZM76.7917 25.2397C77.0372 22.7502 77 20.2251 77 20.0389H10.3333C10.3333 20.2631 10.3333 20.3897 10.3328 20.4907C10.3324 20.5882 10.3319 20.5804 10.3332 20.5136C10.3344 20.447 10.3387 20.2499 10.3524 19.9675C10.3662 19.6845 10.3927 19.2454 10.4469 18.6964L76.7917 25.2397ZM77 20.0389V19.9609H10.3333V20.0389H77ZM77 19.9609C77 19.7746 77.0372 17.2497 76.7917 14.7602L10.4469 21.3033C10.3927 20.7544 10.3662 20.3153 10.3524 20.0323C10.3387 19.7499 10.3344 19.5528 10.3332 19.4863C10.3319 19.4195 10.3324 19.4116 10.3328 19.5091C10.3333 19.6101 10.3333 19.7368 10.3333 19.9609H77ZM76.7925 14.7689C76.6692 13.5153 76.4425 11.8253 75.9829 9.87866L11.1002 25.1977C10.7079 23.5362 10.5321 22.17 10.446 21.2946L76.7925 14.7689ZM28.6343 -12.276L26.4261 -11.1719L56.2405 48.4565L58.4487 47.3524L28.6343 -12.276ZM8 18.6423V20.6666H74.6667V18.6423H8ZM8 20.6666C8 2.53323 22.7 -12.1667 40.8333 -12.1667V54.4999C59.519 54.4999 74.6667 39.3522 74.6667 20.6666H8ZM40.8333 -12.1667C58.9667 -12.1667 73.6667 2.53323 73.6667 20.6666H7C7 39.3522 22.1477 54.4999 40.8333 54.4999V-12.1667ZM73.6667 20.6666V19.1423H7V20.6666H73.6667ZM25.4262 -10.672L23.0929 -9.50532L52.9071 50.1232L55.2404 48.9565L25.4262 -10.672ZM4.66667 20.3089V26.0836H71.3333V20.3089H4.66667Z" fill="#E1001A" mask="url(#path-3-inside-2_261_340)"/>
<path d="M15.3574 43H13.5L13.5117 41.6289H15.3574C15.8184 41.6289 16.207 41.5254 16.5234 41.3184C16.8398 41.1074 17.0781 40.8008 17.2383 40.3984C17.4023 39.9961 17.4844 39.5098 17.4844 38.9395V38.5234C17.4844 38.0859 17.4375 37.7012 17.3438 37.3691C17.2539 37.0371 17.1191 36.7578 16.9395 36.5312C16.7598 36.3047 16.5391 36.1348 16.2773 36.0215C16.0156 35.9043 15.7148 35.8457 15.375 35.8457H13.4648V34.4688H15.375C15.9453 34.4688 16.4668 34.5664 16.9395 34.7617C17.416 34.9531 17.8281 35.2285 18.1758 35.5879C18.5234 35.9473 18.791 36.377 18.9785 36.877C19.1699 37.373 19.2656 37.9258 19.2656 38.5352V38.9395C19.2656 39.5449 19.1699 40.0977 18.9785 40.5977C18.791 41.0977 18.5234 41.5273 18.1758 41.8867C17.832 42.2422 17.4199 42.5176 16.9395 42.7129C16.4629 42.9043 15.9355 43 15.3574 43ZM14.4961 34.4688V43H12.7383V34.4688H14.4961ZM15.9727 38.1777V39.2207H11.8652V38.1777H15.9727ZM25.834 36.0566H26.8418C26.8418 36.5254 26.7695 36.9277 26.625 37.2637C26.4844 37.5957 26.2598 37.8516 25.9512 38.0312C25.6465 38.207 25.248 38.2949 24.7559 38.2949V37.5801C25.0488 37.5801 25.2715 37.5176 25.4238 37.3926C25.5801 37.2676 25.6875 37.0918 25.7461 36.8652C25.8047 36.6387 25.834 36.3691 25.834 36.0566ZM20.1562 39.8945V39.7715C20.1562 39.3066 20.2227 38.8789 20.3555 38.4883C20.4883 38.0938 20.6816 37.752 20.9355 37.4629C21.1934 37.1738 21.5078 36.9492 21.8789 36.7891C22.25 36.625 22.6758 36.543 23.1562 36.543C23.6367 36.543 24.0625 36.625 24.4336 36.7891C24.8086 36.9492 25.123 37.1738 25.377 37.4629C25.6348 37.752 25.8301 38.0938 25.9629 38.4883C26.0957 38.8789 26.1621 39.3066 26.1621 39.7715V39.8945C26.1621 40.3555 26.0957 40.7832 25.9629 41.1777C25.8301 41.5684 25.6348 41.9102 25.377 42.2031C25.123 42.4922 24.8105 42.7168 24.4395 42.877C24.0684 43.0371 23.6445 43.1172 23.168 43.1172C22.6875 43.1172 22.2598 43.0371 21.8848 42.877C21.5098 42.7168 21.1934 42.4922 20.9355 42.2031C20.6816 41.9102 20.4883 41.5684 20.3555 41.1777C20.2227 40.7832 20.1562 40.3555 20.1562 39.8945ZM21.8438 39.7715V39.8945C21.8438 40.1602 21.8672 40.4082 21.9141 40.6387C21.9648 40.8691 22.041 41.0723 22.1426 41.248C22.248 41.4199 22.3848 41.5547 22.5527 41.6523C22.7207 41.75 22.9258 41.7988 23.168 41.7988C23.4023 41.7988 23.6016 41.75 23.7656 41.6523C23.9336 41.5547 24.0684 41.4199 24.1699 41.248C24.2715 41.0723 24.3457 40.8691 24.3926 40.6387C24.4434 40.4082 24.4688 40.1602 24.4688 39.8945V39.7715C24.4688 39.5137 24.4453 39.2715 24.3984 39.0449C24.3516 38.8145 24.2754 38.6113 24.1699 38.4355C24.0684 38.2559 23.9336 38.1152 23.7656 38.0137C23.5977 37.9121 23.3945 37.8613 23.1562 37.8613C22.918 37.8613 22.7148 37.9121 22.5469 38.0137C22.3828 38.1152 22.248 38.2559 22.1426 38.4355C22.041 38.6113 21.9648 38.8145 21.9141 39.0449C21.8672 39.2715 21.8438 39.5137 21.8438 39.7715ZM29.0625 38.0137V43H27.375V36.6602H28.957L29.0625 38.0137ZM28.8164 39.6074H28.3594C28.3594 39.1387 28.4199 38.7168 28.541 38.3418C28.6621 37.9629 28.832 37.6406 29.0508 37.375C29.2695 37.1055 29.5293 36.9004 29.8301 36.7598C30.1348 36.6152 30.4746 36.543 30.8496 36.543C31.1465 36.543 31.418 36.5859 31.6641 36.6719C31.9102 36.7578 32.1211 36.8945 32.2969 37.082C32.4766 37.2695 32.6133 37.5176 32.707 37.8262C32.8047 38.1348 32.8535 38.5117 32.8535 38.957V43H31.1543V38.9512C31.1543 38.6699 31.1152 38.4512 31.0371 38.2949C30.959 38.1387 30.8438 38.0293 30.6914 37.9668C30.543 37.9004 30.3594 37.8672 30.1406 37.8672C29.9141 37.8672 29.7168 37.9121 29.5488 38.002C29.3848 38.0918 29.248 38.2168 29.1387 38.377C29.0332 38.5332 28.9531 38.7168 28.8984 38.9277C28.8438 39.1387 28.8164 39.3652 28.8164 39.6074ZM38.7715 34V43H37.084V34H38.7715ZM38.5312 39.6074H38.0684C38.0723 39.166 38.1309 38.7598 38.2441 38.3887C38.3574 38.0137 38.5195 37.6895 38.7305 37.416C38.9414 37.1387 39.1934 36.9238 39.4863 36.7715C39.7832 36.6191 40.1113 36.543 40.4707 36.543C40.7832 36.543 41.0664 36.5879 41.3203 36.6777C41.5781 36.7637 41.7988 36.9043 41.9824 37.0996C42.1699 37.291 42.3145 37.543 42.416 37.8555C42.5176 38.168 42.5684 38.5469 42.5684 38.9922V43H40.8691V38.9805C40.8691 38.6992 40.8281 38.4785 40.7461 38.3184C40.668 38.1543 40.5527 38.0391 40.4004 37.9727C40.252 37.9023 40.0684 37.8672 39.8496 37.8672C39.6074 37.8672 39.4004 37.9121 39.2285 38.002C39.0605 38.0918 38.9258 38.2168 38.8242 38.377C38.7227 38.5332 38.6484 38.7168 38.6016 38.9277C38.5547 39.1387 38.5312 39.3652 38.5312 39.6074ZM47.2734 41.5703V38.7461C47.2734 38.543 47.2402 38.3691 47.1738 38.2246C47.1074 38.0762 47.0039 37.9609 46.8633 37.8789C46.7266 37.7969 46.5488 37.7559 46.3301 37.7559C46.1426 37.7559 45.9805 37.7891 45.8438 37.8555C45.707 37.918 45.6016 38.0098 45.5273 38.1309C45.4531 38.248 45.416 38.3867 45.416 38.5469H43.7285C43.7285 38.2773 43.791 38.0215 43.916 37.7793C44.041 37.5371 44.2227 37.3242 44.4609 37.1406C44.6992 36.9531 44.9824 36.8066 45.3105 36.7012C45.6426 36.5957 46.0137 36.543 46.4238 36.543C46.916 36.543 47.3535 36.625 47.7363 36.7891C48.1191 36.9531 48.4199 37.1992 48.6387 37.5273C48.8613 37.8555 48.9727 38.2656 48.9727 38.7578V41.4707C48.9727 41.8184 48.9941 42.1035 49.0371 42.3262C49.0801 42.5449 49.1426 42.7363 49.2246 42.9004V43H47.5195C47.4375 42.8281 47.375 42.6133 47.332 42.3555C47.293 42.0938 47.2734 41.832 47.2734 41.5703ZM47.4961 39.1387L47.5078 40.0938H46.5645C46.3418 40.0938 46.1484 40.1191 45.9844 40.1699C45.8203 40.2207 45.6855 40.293 45.5801 40.3867C45.4746 40.4766 45.3965 40.582 45.3457 40.7031C45.2988 40.8242 45.2754 40.957 45.2754 41.1016C45.2754 41.2461 45.3086 41.377 45.375 41.4941C45.4414 41.6074 45.5371 41.6973 45.6621 41.7637C45.7871 41.8262 45.9336 41.8574 46.1016 41.8574C46.3555 41.8574 46.5762 41.8066 46.7637 41.7051C46.9512 41.6035 47.0957 41.4785 47.1973 41.3301C47.3027 41.1816 47.3574 41.041 47.3613 40.9082L47.8066 41.623C47.7441 41.7832 47.6582 41.9492 47.5488 42.1211C47.4434 42.293 47.3086 42.4551 47.1445 42.6074C46.9805 42.7559 46.7832 42.8789 46.5527 42.9766C46.3223 43.0703 46.0488 43.1172 45.7324 43.1172C45.3301 43.1172 44.9648 43.0371 44.6367 42.877C44.3125 42.7129 44.0547 42.4883 43.8633 42.2031C43.6758 41.9141 43.582 41.5859 43.582 41.2188C43.582 40.8867 43.6445 40.5918 43.7695 40.334C43.8945 40.0762 44.0781 39.8594 44.3203 39.6836C44.5664 39.5039 44.873 39.3691 45.2402 39.2793C45.6074 39.1855 46.0332 39.1387 46.5176 39.1387H47.4961ZM46.0957 34L47.25 35.8047H45.8672L44.2617 34H46.0957ZM51.9258 38.0137V43H50.2383V36.6602H51.8203L51.9258 38.0137ZM51.6797 39.6074H51.2227C51.2227 39.1387 51.2832 38.7168 51.4043 38.3418C51.5254 37.9629 51.6953 37.6406 51.9141 37.375C52.1328 37.1055 52.3926 36.9004 52.6934 36.7598C52.998 36.6152 53.3379 36.543 53.7129 36.543C54.0098 36.543 54.2812 36.5859 54.5273 36.6719C54.7734 36.7578 54.9844 36.8945 55.1602 37.082C55.3398 37.2695 55.4766 37.5176 55.5703 37.8262C55.668 38.1348 55.7168 38.5117 55.7168 38.957V43H54.0176V38.9512C54.0176 38.6699 53.9785 38.4512 53.9004 38.2949C53.8223 38.1387 53.707 38.0293 53.5547 37.9668C53.4062 37.9004 53.2227 37.8672 53.0039 37.8672C52.7773 37.8672 52.5801 37.9121 52.4121 38.002C52.248 38.0918 52.1113 38.2168 52.002 38.377C51.8965 38.5332 51.8164 38.7168 51.7617 38.9277C51.707 39.1387 51.6797 39.3652 51.6797 39.6074ZM61.0137 36.6602H62.543V42.7891C62.543 43.3672 62.4141 43.8574 62.1562 44.2598C61.9023 44.666 61.5469 44.9727 61.0898 45.1797C60.6328 45.3906 60.1016 45.4961 59.4961 45.4961C59.2305 45.4961 58.9492 45.4609 58.6523 45.3906C58.3594 45.3203 58.0781 45.2109 57.8086 45.0625C57.543 44.9141 57.3203 44.7266 57.1406 44.5L57.8848 43.5039C58.0801 43.7305 58.3066 43.9062 58.5645 44.0312C58.8223 44.1602 59.1074 44.2246 59.4199 44.2246C59.7246 44.2246 59.9824 44.168 60.1934 44.0547C60.4043 43.9453 60.5664 43.7832 60.6797 43.5684C60.793 43.3574 60.8496 43.1016 60.8496 42.8008V38.125L61.0137 36.6602ZM56.748 39.9062V39.7832C56.748 39.2988 56.8066 38.8594 56.9238 38.4648C57.0449 38.0664 57.2148 37.7246 57.4336 37.4395C57.6562 37.1543 57.9258 36.9336 58.2422 36.7773C58.5586 36.6211 58.916 36.543 59.3145 36.543C59.7363 36.543 60.0898 36.6211 60.375 36.7773C60.6602 36.9336 60.8945 37.1562 61.0781 37.4453C61.2617 37.7305 61.4043 38.0684 61.5059 38.459C61.6113 38.8457 61.6934 39.2695 61.752 39.7305V40C61.6934 40.4414 61.6055 40.8516 61.4883 41.2305C61.3711 41.6094 61.2168 41.9414 61.0254 42.2266C60.834 42.5078 60.5957 42.7266 60.3105 42.8828C60.0293 43.0391 59.6934 43.1172 59.3027 43.1172C58.9121 43.1172 58.5586 43.0371 58.2422 42.877C57.9297 42.7168 57.6621 42.4922 57.4395 42.2031C57.2168 41.9141 57.0449 41.5742 56.9238 41.1836C56.8066 40.793 56.748 40.3672 56.748 39.9062ZM58.4355 39.7832V39.9062C58.4355 40.168 58.4609 40.4121 58.5117 40.6387C58.5625 40.8652 58.6406 41.0664 58.7461 41.2422C58.8555 41.4141 58.9902 41.5488 59.1504 41.6465C59.3145 41.7402 59.5078 41.7871 59.7305 41.7871C60.0391 41.7871 60.291 41.7227 60.4863 41.5938C60.6816 41.4609 60.8281 41.2793 60.9258 41.0488C61.0234 40.8184 61.0801 40.5527 61.0957 40.252V39.4844C61.0879 39.2383 61.0547 39.0176 60.9961 38.8223C60.9375 38.623 60.8555 38.4531 60.75 38.3125C60.6445 38.1719 60.5078 38.0625 60.3398 37.9844C60.1719 37.9062 59.9727 37.8672 59.7422 37.8672C59.5195 37.8672 59.3262 37.918 59.1621 38.0195C59.002 38.1172 58.8672 38.252 58.7578 38.4238C58.6523 38.5957 58.5723 38.7988 58.5176 39.0332C58.4629 39.2637 58.4355 39.5137 58.4355 39.7832Z" fill="#E1001A"/>
</svg>
