<svg width="75" height="62" viewBox="0 0 75 62" fill="none" xmlns="http://www.w3.org/2000/svg">
<g clip-path="url(#clip0_261_365)">
<path d="M30.4987 19.2999V14.819C30.4987 14.587 30.6868 14.399 30.9188 14.399H35.2442C35.3445 14.399 35.4414 14.4348 35.5176 14.5001L37.7321 16.3982C37.8082 16.4635 37.9052 16.4993 38.0055 16.4993H44.0812C44.3132 16.4993 44.5013 16.6874 44.5013 16.9194V19.2999M30.4987 19.2999V25.181C30.4987 25.413 30.6868 25.601 30.9188 25.601H44.0812C44.3132 25.601 44.5013 25.413 44.5013 25.181V19.2999M30.4987 19.2999H44.5013" stroke="#767F87" stroke-linecap="round" stroke-linejoin="round"/>
</g>
<path d="M13.7754 43H11.9941L12.0059 42.0801H13.7754C14.3848 42.0801 14.8926 41.9531 15.2988 41.6992C15.7051 41.4414 16.0098 41.082 16.2129 40.6211C16.4199 40.1562 16.5234 39.6133 16.5234 38.9922V38.4707C16.5234 37.9824 16.4648 37.5488 16.3477 37.1699C16.2305 36.7871 16.0586 36.4648 15.832 36.2031C15.6055 35.9375 15.3281 35.7363 15 35.5996C14.6758 35.4629 14.3027 35.3945 13.8809 35.3945H11.959V34.4688H13.8809C14.4395 34.4688 14.9492 34.5625 15.4102 34.75C15.8711 34.9336 16.2676 35.2012 16.5996 35.5527C16.9355 35.9004 17.1934 36.3223 17.373 36.8184C17.5527 37.3105 17.6426 37.8652 17.6426 38.4824V38.9922C17.6426 39.6094 17.5527 40.166 17.373 40.6621C17.1934 41.1543 16.9336 41.5742 16.5938 41.9219C16.2578 42.2695 15.8516 42.5371 15.375 42.7246C14.9023 42.9082 14.3691 43 13.7754 43ZM12.5977 34.4688V43H11.4668V34.4688H12.5977ZM22.916 41.916V38.6523C22.916 38.4023 22.8652 38.1855 22.7637 38.002C22.666 37.8145 22.5176 37.6699 22.3184 37.5684C22.1191 37.4668 21.873 37.416 21.5801 37.416C21.3066 37.416 21.0664 37.4629 20.8594 37.5566C20.6562 37.6504 20.4961 37.7734 20.3789 37.9258C20.2656 38.0781 20.209 38.2422 20.209 38.418H19.125C19.125 38.1914 19.1836 37.9668 19.3008 37.7441C19.418 37.5215 19.5859 37.3203 19.8047 37.1406C20.0273 36.957 20.293 36.8125 20.6016 36.707C20.9141 36.5977 21.2617 36.543 21.6445 36.543C22.1055 36.543 22.5117 36.6211 22.8633 36.7773C23.2188 36.9336 23.4961 37.1699 23.6953 37.4863C23.8984 37.7988 24 38.1914 24 38.6641V41.6172C24 41.8281 24.0176 42.0527 24.0527 42.291C24.0918 42.5293 24.1484 42.7344 24.2227 42.9062V43H23.0918C23.0371 42.875 22.9941 42.709 22.9629 42.502C22.9316 42.291 22.916 42.0957 22.916 41.916ZM23.1035 39.1562L23.1152 39.918H22.0195C21.7109 39.918 21.4355 39.9434 21.1934 39.9941C20.9512 40.041 20.748 40.1133 20.584 40.2109C20.4199 40.3086 20.2949 40.4316 20.209 40.5801C20.123 40.7246 20.0801 40.8945 20.0801 41.0898C20.0801 41.2891 20.125 41.4707 20.2148 41.6348C20.3047 41.7988 20.4395 41.9297 20.6191 42.0273C20.8027 42.1211 21.0273 42.168 21.293 42.168C21.625 42.168 21.918 42.0977 22.1719 41.957C22.4258 41.8164 22.627 41.6445 22.7754 41.4414C22.9277 41.2383 23.0098 41.041 23.0215 40.8496L23.4844 41.3711C23.457 41.5352 23.3828 41.7168 23.2617 41.916C23.1406 42.1152 22.9785 42.3066 22.7754 42.4902C22.5762 42.6699 22.3379 42.8203 22.0605 42.9414C21.7871 43.0586 21.4785 43.1172 21.1348 43.1172C20.7051 43.1172 20.3281 43.0332 20.0039 42.8652C19.6836 42.6973 19.4336 42.4727 19.2539 42.1914C19.0781 41.9062 18.9902 41.5879 18.9902 41.2363C18.9902 40.8965 19.0566 40.5977 19.1895 40.3398C19.3223 40.0781 19.5137 39.8613 19.7637 39.6895C20.0137 39.5137 20.3145 39.3809 20.666 39.291C21.0176 39.2012 21.4102 39.1562 21.8438 39.1562H23.1035ZM26.7891 38.0137V43H25.7051V36.6602H26.7305L26.7891 38.0137ZM26.5312 39.5898L26.0801 39.5723C26.084 39.1387 26.1484 38.7383 26.2734 38.3711C26.3984 38 26.5742 37.6777 26.8008 37.4043C27.0273 37.1309 27.2969 36.9199 27.6094 36.7715C27.9258 36.6191 28.2754 36.543 28.6582 36.543C28.9707 36.543 29.252 36.5859 29.502 36.6719C29.752 36.7539 29.9648 36.8867 30.1406 37.0703C30.3203 37.2539 30.457 37.4922 30.5508 37.7852C30.6445 38.0742 30.6914 38.4277 30.6914 38.8457V43H29.6016V38.834C29.6016 38.502 29.5527 38.2363 29.4551 38.0371C29.3574 37.834 29.2148 37.6875 29.0273 37.5977C28.8398 37.5039 28.6094 37.457 28.3359 37.457C28.0664 37.457 27.8203 37.5137 27.5977 37.627C27.3789 37.7402 27.1895 37.8965 27.0293 38.0957C26.873 38.2949 26.75 38.5234 26.6602 38.7812C26.5742 39.0352 26.5312 39.3047 26.5312 39.5898ZM33.4219 34V43H32.3379V34H33.4219ZM33.1641 39.5898L32.7129 39.5723C32.7168 39.1387 32.7812 38.7383 32.9062 38.3711C33.0312 38 33.207 37.6777 33.4336 37.4043C33.6602 37.1309 33.9297 36.9199 34.2422 36.7715C34.5586 36.6191 34.9082 36.543 35.291 36.543C35.6035 36.543 35.8848 36.5859 36.1348 36.6719C36.3848 36.7539 36.5977 36.8867 36.7734 37.0703C36.9531 37.2539 37.0898 37.4922 37.1836 37.7852C37.2773 38.0742 37.3242 38.4277 37.3242 38.8457V43H36.2344V38.834C36.2344 38.502 36.1855 38.2363 36.0879 38.0371C35.9902 37.834 35.8477 37.6875 35.6602 37.5977C35.4727 37.5039 35.2422 37.457 34.9688 37.457C34.6992 37.457 34.4531 37.5137 34.2305 37.627C34.0117 37.7402 33.8223 37.8965 33.6621 38.0957C33.5059 38.2949 33.3828 38.5234 33.293 38.7812C33.207 39.0352 33.1641 39.3047 33.1641 39.5898ZM43.002 37.9199V43H41.9121V36.6602H42.9434L43.002 37.9199ZM42.7793 39.5898L42.2754 39.5723C42.2793 39.1387 42.3359 38.7383 42.4453 38.3711C42.5547 38 42.7168 37.6777 42.9316 37.4043C43.1465 37.1309 43.4141 36.9199 43.7344 36.7715C44.0547 36.6191 44.4258 36.543 44.8477 36.543C45.1445 36.543 45.418 36.5859 45.668 36.6719C45.918 36.7539 46.1348 36.8848 46.3184 37.0645C46.502 37.2441 46.6445 37.4746 46.7461 37.7559C46.8477 38.0371 46.8984 38.377 46.8984 38.7754V43H45.8145V38.8281C45.8145 38.4961 45.7578 38.2305 45.6445 38.0312C45.5352 37.832 45.3789 37.6875 45.1758 37.5977C44.9727 37.5039 44.7344 37.457 44.4609 37.457C44.1406 37.457 43.873 37.5137 43.6582 37.627C43.4434 37.7402 43.2715 37.8965 43.1426 38.0957C43.0137 38.2949 42.9199 38.5234 42.8613 38.7812C42.8066 39.0352 42.7793 39.3047 42.7793 39.5898ZM46.8867 38.9922L46.1602 39.2148C46.1641 38.8672 46.2207 38.5332 46.3301 38.2129C46.4434 37.8926 46.6055 37.6074 46.8164 37.3574C47.0312 37.1074 47.2949 36.9102 47.6074 36.7656C47.9199 36.6172 48.2773 36.543 48.6797 36.543C49.0195 36.543 49.3203 36.5879 49.582 36.6777C49.8477 36.7676 50.0703 36.9062 50.25 37.0938C50.4336 37.2773 50.5723 37.5137 50.666 37.8027C50.7598 38.0918 50.8066 38.4355 50.8066 38.834V43H49.7168V38.8223C49.7168 38.4668 49.6602 38.1914 49.5469 37.9961C49.4375 37.7969 49.2812 37.6582 49.0781 37.5801C48.8789 37.498 48.6406 37.457 48.3633 37.457C48.125 37.457 47.9141 37.498 47.7305 37.5801C47.5469 37.6621 47.3926 37.7754 47.2676 37.9199C47.1426 38.0605 47.0469 38.2227 46.9805 38.4062C46.918 38.5898 46.8867 38.7852 46.8867 38.9922ZM56.3262 41.5352V36.6602H57.416V43H56.3789L56.3262 41.5352ZM56.5312 40.1992L56.9824 40.1875C56.9824 40.6094 56.9375 41 56.8477 41.3594C56.7617 41.7148 56.6211 42.0234 56.4258 42.2852C56.2305 42.5469 55.9746 42.752 55.6582 42.9004C55.3418 43.0449 54.957 43.1172 54.5039 43.1172C54.1953 43.1172 53.9121 43.0723 53.6543 42.9824C53.4004 42.8926 53.1816 42.7539 52.998 42.5664C52.8145 42.3789 52.6719 42.1348 52.5703 41.834C52.4727 41.5332 52.4238 41.1719 52.4238 40.75V36.6602H53.5078V40.7617C53.5078 41.0469 53.5391 41.2832 53.6016 41.4707C53.668 41.6543 53.7559 41.8008 53.8652 41.9102C53.9785 42.0156 54.1035 42.0898 54.2402 42.1328C54.3809 42.1758 54.5254 42.1973 54.6738 42.1973C55.1348 42.1973 55.5 42.1094 55.7695 41.9336C56.0391 41.7539 56.2324 41.5137 56.3496 41.2129C56.4707 40.9082 56.5312 40.5703 56.5312 40.1992ZM53.9297 44.4414C53.9297 44.2656 53.9824 44.1172 54.0879 43.9961C54.1973 43.875 54.3574 43.8145 54.5684 43.8145C54.7754 43.8145 54.9336 43.875 55.043 43.9961C55.1562 44.1172 55.2129 44.2656 55.2129 44.4414C55.2129 44.6094 55.1562 44.752 55.043 44.8691C54.9336 44.9902 54.7754 45.0508 54.5684 45.0508C54.3574 45.0508 54.1973 44.9902 54.0879 44.8691C53.9824 44.752 53.9297 44.6094 53.9297 44.4414ZM61.6055 42.2266C61.8633 42.2266 62.1016 42.1738 62.3203 42.0684C62.5391 41.9629 62.7188 41.8184 62.8594 41.6348C63 41.4473 63.0801 41.2344 63.0996 40.9961H64.1309C64.1113 41.3711 63.9844 41.7207 63.75 42.0449C63.5195 42.3652 63.2168 42.625 62.8418 42.8242C62.4668 43.0195 62.0547 43.1172 61.6055 43.1172C61.1289 43.1172 60.7129 43.0332 60.3574 42.8652C60.0059 42.6973 59.7129 42.4668 59.4785 42.1738C59.248 41.8809 59.0742 41.5449 58.957 41.166C58.8438 40.7832 58.7871 40.3789 58.7871 39.9531V39.707C58.7871 39.2812 58.8438 38.8789 58.957 38.5C59.0742 38.1172 59.248 37.7793 59.4785 37.4863C59.7129 37.1934 60.0059 36.9629 60.3574 36.7949C60.7129 36.627 61.1289 36.543 61.6055 36.543C62.1016 36.543 62.5352 36.6445 62.9062 36.8477C63.2773 37.0469 63.5684 37.3203 63.7793 37.668C63.9941 38.0117 64.1113 38.4023 64.1309 38.8398H63.0996C63.0801 38.5781 63.0059 38.3418 62.877 38.1309C62.752 37.9199 62.5801 37.752 62.3613 37.627C62.1465 37.498 61.8945 37.4336 61.6055 37.4336C61.2734 37.4336 60.9941 37.5 60.7676 37.6328C60.5449 37.7617 60.3672 37.9375 60.2344 38.1602C60.1055 38.3789 60.0117 38.623 59.9531 38.8926C59.8984 39.1582 59.8711 39.4297 59.8711 39.707V39.9531C59.8711 40.2305 59.8984 40.5039 59.9531 40.7734C60.0078 41.043 60.0996 41.2871 60.2285 41.5059C60.3613 41.7246 60.5391 41.9004 60.7617 42.0332C60.9883 42.1621 61.2695 42.2266 61.6055 42.2266Z" fill="#808080"/>
<defs>
<clipPath id="clip0_261_365">
<rect width="16" height="16" fill="white" transform="translate(29.5 12)"/>
</clipPath>
</defs>
</svg>
