<svg width="75" height="62" viewBox="0 0 75 62" fill="none" xmlns="http://www.w3.org/2000/svg">
<g clip-path="url(#clip0_276_509)">
<path d="M44.9286 19.9314C44.9297 19.7728 44.8977 19.6157 44.8347 19.4701C44.7718 19.3245 44.6792 19.1936 44.5629 19.0857L37.5 12.5714L30.4372 19.0857C30.3209 19.1936 30.2283 19.3245 30.1653 19.4701C30.1023 19.6157 30.0704 19.7728 30.0715 19.9314V26.2857C30.0715 26.5888 30.1919 26.8795 30.4062 27.0938C30.6205 27.3081 30.9112 27.4286 31.2143 27.4286H43.7857C44.0888 27.4286 44.3795 27.3081 44.5938 27.0938C44.8082 26.8795 44.9286 26.5888 44.9286 26.2857V19.9314Z" stroke="#808080" stroke-linecap="round" stroke-linejoin="round"/>
<path d="M37.5 27.4286V22.8572" stroke="#808080" stroke-linecap="round" stroke-linejoin="round"/>
</g>
<path d="M15.1758 34.4688V43H14.0625V34.4688H15.1758ZM17.918 34.4688V35.3945H11.3262V34.4688H17.918ZM19.6582 37.6562V43H18.5742V36.6602H19.6289L19.6582 37.6562ZM21.6387 36.625L21.6328 37.6328C21.543 37.6133 21.457 37.6016 21.375 37.5977C21.2969 37.5898 21.207 37.5859 21.1055 37.5859C20.8555 37.5859 20.6348 37.625 20.4434 37.7031C20.252 37.7812 20.0898 37.8906 19.957 38.0312C19.8242 38.1719 19.7188 38.3398 19.6406 38.5352C19.5664 38.7266 19.5176 38.9375 19.4941 39.168L19.1895 39.3438C19.1895 38.9609 19.2266 38.6016 19.3008 38.2656C19.3789 37.9297 19.498 37.6328 19.6582 37.375C19.8184 37.1133 20.0215 36.9102 20.2676 36.7656C20.5176 36.6172 20.8145 36.543 21.1582 36.543C21.2363 36.543 21.3262 36.5527 21.4277 36.5723C21.5293 36.5879 21.5996 36.6055 21.6387 36.625ZM26.1445 41.916V38.6523C26.1445 38.4023 26.0938 38.1855 25.9922 38.002C25.8945 37.8145 25.7461 37.6699 25.5469 37.5684C25.3477 37.4668 25.1016 37.416 24.8086 37.416C24.5352 37.416 24.2949 37.4629 24.0879 37.5566C23.8848 37.6504 23.7246 37.7734 23.6074 37.9258C23.4941 38.0781 23.4375 38.2422 23.4375 38.418H22.3535C22.3535 38.1914 22.4121 37.9668 22.5293 37.7441C22.6465 37.5215 22.8145 37.3203 23.0332 37.1406C23.2559 36.957 23.5215 36.8125 23.8301 36.707C24.1426 36.5977 24.4902 36.543 24.873 36.543C25.334 36.543 25.7402 36.6211 26.0918 36.7773C26.4473 36.9336 26.7246 37.1699 26.9238 37.4863C27.127 37.7988 27.2285 38.1914 27.2285 38.6641V41.6172C27.2285 41.8281 27.2461 42.0527 27.2812 42.291C27.3203 42.5293 27.377 42.7344 27.4512 42.9062V43H26.3203C26.2656 42.875 26.2227 42.709 26.1914 42.502C26.1602 42.291 26.1445 42.0957 26.1445 41.916ZM26.332 39.1562L26.3438 39.918H25.248C24.9395 39.918 24.6641 39.9434 24.4219 39.9941C24.1797 40.041 23.9766 40.1133 23.8125 40.2109C23.6484 40.3086 23.5234 40.4316 23.4375 40.5801C23.3516 40.7246 23.3086 40.8945 23.3086 41.0898C23.3086 41.2891 23.3535 41.4707 23.4434 41.6348C23.5332 41.7988 23.668 41.9297 23.8477 42.0273C24.0312 42.1211 24.2559 42.168 24.5215 42.168C24.8535 42.168 25.1465 42.0977 25.4004 41.957C25.6543 41.8164 25.8555 41.6445 26.0039 41.4414C26.1562 41.2383 26.2383 41.041 26.25 40.8496L26.7129 41.3711C26.6855 41.5352 26.6113 41.7168 26.4902 41.916C26.3691 42.1152 26.207 42.3066 26.0039 42.4902C25.8047 42.6699 25.5664 42.8203 25.2891 42.9414C25.0156 43.0586 24.707 43.1172 24.3633 43.1172C23.9336 43.1172 23.5566 43.0332 23.2324 42.8652C22.9121 42.6973 22.6621 42.4727 22.4824 42.1914C22.3066 41.9062 22.2188 41.5879 22.2188 41.2363C22.2188 40.8965 22.2852 40.5977 22.418 40.3398C22.5508 40.0781 22.7422 39.8613 22.9922 39.6895C23.2422 39.5137 23.543 39.3809 23.8945 39.291C24.2461 39.2012 24.6387 39.1562 25.0723 39.1562H26.332ZM30.0176 38.0137V43H28.9336V36.6602H29.959L30.0176 38.0137ZM29.7598 39.5898L29.3086 39.5723C29.3125 39.1387 29.377 38.7383 29.502 38.3711C29.627 38 29.8027 37.6777 30.0293 37.4043C30.2559 37.1309 30.5254 36.9199 30.8379 36.7715C31.1543 36.6191 31.5039 36.543 31.8867 36.543C32.1992 36.543 32.4805 36.5859 32.7305 36.6719C32.9805 36.7539 33.1934 36.8867 33.3691 37.0703C33.5488 37.2539 33.6855 37.4922 33.7793 37.7852C33.873 38.0742 33.9199 38.4277 33.9199 38.8457V43H32.8301V38.834C32.8301 38.502 32.7812 38.2363 32.6836 38.0371C32.5859 37.834 32.4434 37.6875 32.2559 37.5977C32.0684 37.5039 31.8379 37.457 31.5645 37.457C31.2949 37.457 31.0488 37.5137 30.8262 37.627C30.6074 37.7402 30.418 37.8965 30.2578 38.0957C30.1016 38.2949 29.9785 38.5234 29.8887 38.7812C29.8027 39.0352 29.7598 39.3047 29.7598 39.5898ZM39.6738 36.6602H40.6582V42.8652C40.6582 43.4238 40.5449 43.9004 40.3184 44.2949C40.0918 44.6895 39.7754 44.9883 39.3691 45.1914C38.9668 45.3984 38.502 45.502 37.9746 45.502C37.7559 45.502 37.498 45.4668 37.2012 45.3965C36.9082 45.3301 36.6191 45.2148 36.334 45.0508C36.0527 44.8906 35.8164 44.6738 35.625 44.4004L36.1934 43.7559C36.459 44.0762 36.7363 44.2988 37.0254 44.4238C37.3184 44.5488 37.6074 44.6113 37.8926 44.6113C38.2363 44.6113 38.5332 44.5469 38.7832 44.418C39.0332 44.2891 39.2266 44.0977 39.3633 43.8438C39.5039 43.5938 39.5742 43.2852 39.5742 42.918V38.0547L39.6738 36.6602ZM35.3086 39.9004V39.7773C35.3086 39.293 35.3652 38.8535 35.4785 38.459C35.5957 38.0605 35.7617 37.7188 35.9766 37.4336C36.1953 37.1484 36.459 36.9297 36.7676 36.7773C37.0762 36.6211 37.4238 36.543 37.8105 36.543C38.209 36.543 38.5566 36.6133 38.8535 36.7539C39.1543 36.8906 39.4082 37.0918 39.6152 37.3574C39.8262 37.6191 39.9922 37.9355 40.1133 38.3066C40.2344 38.6777 40.3184 39.0977 40.3652 39.5664V40.1055C40.3223 40.5703 40.2383 40.9883 40.1133 41.3594C39.9922 41.7305 39.8262 42.0469 39.6152 42.3086C39.4082 42.5703 39.1543 42.7715 38.8535 42.9121C38.5527 43.0488 38.2012 43.1172 37.7988 43.1172C37.4199 43.1172 37.0762 43.0371 36.7676 42.877C36.4629 42.7168 36.2012 42.4922 35.9824 42.2031C35.7637 41.9141 35.5957 41.5742 35.4785 41.1836C35.3652 40.7891 35.3086 40.3613 35.3086 39.9004ZM36.3926 39.7773V39.9004C36.3926 40.2168 36.4238 40.5137 36.4863 40.791C36.5527 41.0684 36.6523 41.3125 36.7852 41.5234C36.9219 41.7344 37.0957 41.9004 37.3066 42.0215C37.5176 42.1387 37.7695 42.1973 38.0625 42.1973C38.4219 42.1973 38.7188 42.1211 38.9531 41.9688C39.1875 41.8164 39.373 41.6152 39.5098 41.3652C39.6504 41.1152 39.7598 40.8438 39.8379 40.5508V39.1387C39.7949 38.9238 39.7285 38.7168 39.6387 38.5176C39.5527 38.3145 39.4395 38.1348 39.2988 37.9785C39.1621 37.8184 38.9922 37.6914 38.7891 37.5977C38.5859 37.5039 38.3477 37.457 38.0742 37.457C37.7773 37.457 37.5215 37.5195 37.3066 37.6445C37.0957 37.7656 36.9219 37.9336 36.7852 38.1484C36.6523 38.3594 36.5527 38.6055 36.4863 38.8867C36.4238 39.1641 36.3926 39.4609 36.3926 39.7773ZM47.8184 42.2266C48.0762 42.2266 48.3145 42.1738 48.5332 42.0684C48.752 41.9629 48.9316 41.8184 49.0723 41.6348C49.2129 41.4473 49.293 41.2344 49.3125 40.9961H50.3438C50.3242 41.3711 50.1973 41.7207 49.9629 42.0449C49.7324 42.3652 49.4297 42.625 49.0547 42.8242C48.6797 43.0195 48.2676 43.1172 47.8184 43.1172C47.3418 43.1172 46.9258 43.0332 46.5703 42.8652C46.2188 42.6973 45.9258 42.4668 45.6914 42.1738C45.4609 41.8809 45.2871 41.5449 45.1699 41.166C45.0566 40.7832 45 40.3789 45 39.9531V39.707C45 39.2812 45.0566 38.8789 45.1699 38.5C45.2871 38.1172 45.4609 37.7793 45.6914 37.4863C45.9258 37.1934 46.2188 36.9629 46.5703 36.7949C46.9258 36.627 47.3418 36.543 47.8184 36.543C48.3145 36.543 48.748 36.6445 49.1191 36.8477C49.4902 37.0469 49.7812 37.3203 49.9922 37.668C50.207 38.0117 50.3242 38.4023 50.3438 38.8398H49.3125C49.293 38.5781 49.2188 38.3418 49.0898 38.1309C48.9648 37.9199 48.793 37.752 48.5742 37.627C48.3594 37.498 48.1074 37.4336 47.8184 37.4336C47.4863 37.4336 47.207 37.5 46.9805 37.6328C46.7578 37.7617 46.5801 37.9375 46.4473 38.1602C46.3184 38.3789 46.2246 38.623 46.166 38.8926C46.1113 39.1582 46.084 39.4297 46.084 39.707V39.9531C46.084 40.2305 46.1113 40.5039 46.166 40.7734C46.2207 41.043 46.3125 41.2871 46.4414 41.5059C46.5742 41.7246 46.752 41.9004 46.9746 42.0332C47.2012 42.1621 47.4824 42.2266 47.8184 42.2266ZM52.6465 34V43H51.5625V34H52.6465ZM52.3887 39.5898L51.9375 39.5723C51.9414 39.1387 52.0059 38.7383 52.1309 38.3711C52.2559 38 52.4316 37.6777 52.6582 37.4043C52.8848 37.1309 53.1543 36.9199 53.4668 36.7715C53.7832 36.6191 54.1328 36.543 54.5156 36.543C54.8281 36.543 55.1094 36.5859 55.3594 36.6719C55.6094 36.7539 55.8223 36.8867 55.998 37.0703C56.1777 37.2539 56.3145 37.4922 56.4082 37.7852C56.502 38.0742 56.5488 38.4277 56.5488 38.8457V43H55.459V38.834C55.459 38.502 55.4102 38.2363 55.3125 38.0371C55.2148 37.834 55.0723 37.6875 54.8848 37.5977C54.6973 37.5039 54.4668 37.457 54.1934 37.457C53.9238 37.457 53.6777 37.5137 53.4551 37.627C53.2363 37.7402 53.0469 37.8965 52.8867 38.0957C52.7305 38.2949 52.6074 38.5234 52.5176 38.7812C52.4316 39.0352 52.3887 39.3047 52.3887 39.5898ZM62.0508 41.5352V36.6602H63.1406V43H62.1035L62.0508 41.5352ZM62.2559 40.1992L62.707 40.1875C62.707 40.6094 62.6621 41 62.5723 41.3594C62.4863 41.7148 62.3457 42.0234 62.1504 42.2852C61.9551 42.5469 61.6992 42.752 61.3828 42.9004C61.0664 43.0449 60.6816 43.1172 60.2285 43.1172C59.9199 43.1172 59.6367 43.0723 59.3789 42.9824C59.125 42.8926 58.9062 42.7539 58.7227 42.5664C58.5391 42.3789 58.3965 42.1348 58.2949 41.834C58.1973 41.5332 58.1484 41.1719 58.1484 40.75V36.6602H59.2324V40.7617C59.2324 41.0469 59.2637 41.2832 59.3262 41.4707C59.3926 41.6543 59.4805 41.8008 59.5898 41.9102C59.7031 42.0156 59.8281 42.0898 59.9648 42.1328C60.1055 42.1758 60.25 42.1973 60.3984 42.1973C60.8594 42.1973 61.2246 42.1094 61.4941 41.9336C61.7637 41.7539 61.957 41.5137 62.0742 41.2129C62.1953 40.9082 62.2559 40.5703 62.2559 40.1992ZM61.0781 35.6289H60.2988L60.293 34.7383C60.4922 34.7266 60.6543 34.707 60.7793 34.6797C60.9043 34.6484 60.9961 34.6035 61.0547 34.5449C61.1133 34.4824 61.1426 34.4004 61.1426 34.2988C61.1426 34.2168 61.1172 34.1484 61.0664 34.0938C61.0156 34.0352 60.9453 33.9883 60.8555 33.9531C60.7656 33.9141 60.6621 33.8867 60.5449 33.8711C60.4277 33.8555 60.3027 33.8477 60.1699 33.8477L60.2109 33.2266C60.5 33.2266 60.7539 33.252 60.9727 33.3027C61.1953 33.3535 61.3809 33.4277 61.5293 33.5254C61.6816 33.623 61.7949 33.7402 61.8691 33.877C61.9473 34.0098 61.9863 34.1582 61.9863 34.3223C61.9863 34.6191 61.8926 34.8359 61.7051 34.9727C61.5176 35.1055 61.3105 35.1875 61.084 35.2188L61.0781 35.6289Z" fill="#808080"/>
<defs>
<clipPath id="clip0_276_509">
<rect width="16" height="16" fill="white" transform="translate(29.5 12)"/>
</clipPath>
</defs>
</svg>
