<svg width="75" height="62" viewBox="0 0 75 62" fill="none" xmlns="http://www.w3.org/2000/svg">
<path d="M35.5 23.5C35.2239 23.5 35 23.7239 35 24C35 24.2761 35.2239 24.5 35.5 24.5H39.5C39.7761 24.5 40 24.2761 40 24C40 23.7239 39.7761 23.5 39.5 23.5H35.5Z" fill="#808080" stroke="#808080" stroke-width="33.3333"/>
<mask id="path-2-inside-1_261_104" fill="white">
<path fill-rule="evenodd" clip-rule="evenodd" d="M37.5 12.8334C37.0279 12.8334 36.599 12.9686 36.1337 13.1949C35.6839 13.4136 35.1643 13.7361 34.5152 14.1389L33.1375 14.994C32.5234 15.3751 32.0316 15.6803 31.6526 15.9706C31.2601 16.2712 30.9586 16.5773 30.7409 16.9751C30.5236 17.3721 30.4257 17.7945 30.3788 18.2938C30.3333 18.7777 30.3333 19.3694 30.3333 20.1115V21.1866C30.3333 22.4558 30.3333 23.4578 30.4351 24.2411C30.5396 25.0447 30.759 25.6934 31.2549 26.2063C31.753 26.7216 32.387 26.9518 33.1717 27.061C33.9323 27.1667 34.9037 27.1667 36.1279 27.1667H38.8721C40.0963 27.1667 41.0677 27.1667 41.8283 27.061C42.613 26.9518 43.2469 26.7216 43.7451 26.2063C44.2409 25.6934 44.4604 25.0447 44.5649 24.2411C44.6667 23.4578 44.6667 22.4559 44.6667 21.1866V20.1115C44.6667 19.3694 44.6667 18.7777 44.6212 18.2938C44.5743 17.7945 44.4764 17.3721 44.2591 16.9751C44.0414 16.5773 43.7399 16.2712 43.3474 15.9706C42.9684 15.6803 42.4766 15.3751 41.8625 14.994L40.4847 14.1389C39.8357 13.7361 39.3161 13.4136 38.8663 13.1949C38.401 12.9686 37.9721 12.8334 37.5 12.8334ZM35.0197 15.0028C35.6969 14.5825 36.173 14.2877 36.571 14.0942C36.9588 13.9056 37.2335 13.8334 37.5 13.8334C37.7665 13.8334 38.0412 13.9056 38.429 14.0942C38.827 14.2877 39.3031 14.5825 39.9803 15.0028L41.3137 15.8303C41.9542 16.2278 42.4039 16.5076 42.7394 16.7645C43.0658 17.0145 43.2535 17.2207 43.3819 17.4553C43.5108 17.6906 43.586 17.9658 43.6256 18.3874C43.6661 18.8191 43.6667 19.3639 43.6667 20.136V21.15C43.6667 22.464 43.6657 23.4008 43.5732 24.1122C43.4824 24.8109 43.3113 25.2163 43.0261 25.5113C42.7433 25.8039 42.3581 25.9776 41.6905 26.0705C41.0068 26.1656 40.105 26.1667 38.8333 26.1667H36.1667C34.895 26.1667 33.9932 26.1656 33.3095 26.0705C32.6419 25.9776 32.2568 25.8039 31.9739 25.5113C31.6887 25.2163 31.5176 24.8109 31.4268 24.1122C31.3343 23.4008 31.3333 22.464 31.3333 21.15V20.136C31.3333 19.3639 31.3338 18.8191 31.3744 18.3874C31.414 17.9658 31.4892 17.6906 31.6181 17.4553C31.7464 17.2207 31.9342 17.0145 32.2606 16.7645C32.5961 16.5076 33.0458 16.2278 33.6863 15.8303L35.0197 15.0028Z"/>
</mask>
<path fill-rule="evenodd" clip-rule="evenodd" d="M37.5 12.8334C37.0279 12.8334 36.599 12.9686 36.1337 13.1949C35.6839 13.4136 35.1643 13.7361 34.5152 14.1389L33.1375 14.994C32.5234 15.3751 32.0316 15.6803 31.6526 15.9706C31.2601 16.2712 30.9586 16.5773 30.7409 16.9751C30.5236 17.3721 30.4257 17.7945 30.3788 18.2938C30.3333 18.7777 30.3333 19.3694 30.3333 20.1115V21.1866C30.3333 22.4558 30.3333 23.4578 30.4351 24.2411C30.5396 25.0447 30.759 25.6934 31.2549 26.2063C31.753 26.7216 32.387 26.9518 33.1717 27.061C33.9323 27.1667 34.9037 27.1667 36.1279 27.1667H38.8721C40.0963 27.1667 41.0677 27.1667 41.8283 27.061C42.613 26.9518 43.2469 26.7216 43.7451 26.2063C44.2409 25.6934 44.4604 25.0447 44.5649 24.2411C44.6667 23.4578 44.6667 22.4559 44.6667 21.1866V20.1115C44.6667 19.3694 44.6667 18.7777 44.6212 18.2938C44.5743 17.7945 44.4764 17.3721 44.2591 16.9751C44.0414 16.5773 43.7399 16.2712 43.3474 15.9706C42.9684 15.6803 42.4766 15.3751 41.8625 14.994L40.4847 14.1389C39.8357 13.7361 39.3161 13.4136 38.8663 13.1949C38.401 12.9686 37.9721 12.8334 37.5 12.8334ZM35.0197 15.0028C35.6969 14.5825 36.173 14.2877 36.571 14.0942C36.9588 13.9056 37.2335 13.8334 37.5 13.8334C37.7665 13.8334 38.0412 13.9056 38.429 14.0942C38.827 14.2877 39.3031 14.5825 39.9803 15.0028L41.3137 15.8303C41.9542 16.2278 42.4039 16.5076 42.7394 16.7645C43.0658 17.0145 43.2535 17.2207 43.3819 17.4553C43.5108 17.6906 43.586 17.9658 43.6256 18.3874C43.6661 18.8191 43.6667 19.3639 43.6667 20.136V21.15C43.6667 22.464 43.6657 23.4008 43.5732 24.1122C43.4824 24.8109 43.3113 25.2163 43.0261 25.5113C42.7433 25.8039 42.3581 25.9776 41.6905 26.0705C41.0068 26.1656 40.105 26.1667 38.8333 26.1667H36.1667C34.895 26.1667 33.9932 26.1656 33.3095 26.0705C32.6419 25.9776 32.2568 25.8039 31.9739 25.5113C31.6887 25.2163 31.5176 24.8109 31.4268 24.1122C31.3343 23.4008 31.3333 22.464 31.3333 21.15V20.136C31.3333 19.3639 31.3338 18.8191 31.3744 18.3874C31.414 17.9658 31.4892 17.6906 31.6181 17.4553C31.7464 17.2207 31.9342 17.0145 32.2606 16.7645C32.5961 16.5076 33.0458 16.2278 33.6863 15.8303L35.0197 15.0028Z" fill="#808080"/>
<path d="M36.1337 13.1949L50.7115 43.1715L50.7116 43.1715L36.1337 13.1949ZM34.5152 14.1389L52.0928 42.461L52.093 42.4609L34.5152 14.1389ZM33.1375 14.994L50.7149 43.3162L50.715 43.3161L33.1375 14.994ZM31.6526 15.9706L51.9196 42.4349L51.9198 42.4347L31.6526 15.9706ZM30.7409 16.9751L59.9803 32.9803L59.9804 32.9801L30.7409 16.9751ZM30.3788 18.2938L-2.80834 15.1752L-2.80835 15.1754L30.3788 18.2938ZM30.3333 20.1115H63.6667V20.1112L30.3333 20.1115ZM30.3333 21.1866L63.6667 21.1868V21.1866H30.3333ZM30.4351 24.2411L63.4904 19.9448L63.4904 19.9448L30.4351 24.2411ZM31.2549 26.2063L55.2214 3.03912L55.2189 3.0366L31.2549 26.2063ZM33.1717 27.061L28.5804 60.0766L28.582 60.0768L33.1717 27.061ZM41.8283 27.061L46.4179 60.0768L46.4198 60.0766L41.8283 27.061ZM43.7451 26.2063L19.781 3.0366L19.7783 3.03944L43.7451 26.2063ZM44.5649 24.2411L77.6201 28.5382L77.6202 28.5369L44.5649 24.2411ZM44.6212 18.2938L77.8083 15.1754L77.8082 15.1744L44.6212 18.2938ZM44.2591 16.9751L73.4998 0.972259L73.4995 0.97166L44.2591 16.9751ZM43.3474 15.9706L23.0792 42.434L23.0814 42.4357L43.3474 15.9706ZM41.8625 14.994L24.2849 43.316L24.2852 43.3163L41.8625 14.994ZM40.4847 14.1389L22.9064 42.4605L22.9071 42.461L40.4847 14.1389ZM38.8663 13.1949L24.2875 43.171L24.2888 43.1717L38.8663 13.1949ZM35.0197 15.0028L52.5971 43.3249L52.5972 43.3249L35.0197 15.0028ZM36.571 14.0942L21.9938 -15.8827L21.993 -15.8824L36.571 14.0942ZM38.429 14.0942L53.0074 -15.8822L53.0058 -15.883L38.429 14.0942ZM39.9803 15.0028L57.5578 -13.3194L57.5573 -13.3196L39.9803 15.0028ZM41.3137 15.8303L58.8916 -12.4916L58.8911 -12.4919L41.3137 15.8303ZM42.7394 16.7645L63.0061 -9.7L63.006 -9.70012L42.7394 16.7645ZM43.3819 17.4553L14.1437 33.4628L14.1443 33.4638L43.3819 17.4553ZM43.6256 18.3874L76.813 15.2714L76.8128 15.2701L43.6256 18.3874ZM43.5732 24.1122L10.5179 19.8158L10.5178 19.8163L43.5732 24.1122ZM43.0261 25.5113L19.0612 2.3425L19.0607 2.34306L43.0261 25.5113ZM41.6905 26.0705L46.2811 59.0862L46.2836 59.0859L41.6905 26.0705ZM33.3095 26.0705L28.7167 59.0859L28.719 59.0862L33.3095 26.0705ZM31.9739 25.5113L8.00839 48.6796L8.00976 48.681L31.9739 25.5113ZM31.4268 24.1122L-1.62849 28.4087L-1.62844 28.4091L31.4268 24.1122ZM31.3744 18.3874L64.5615 21.5059L64.5616 21.5057L31.3744 18.3874ZM31.6181 17.4553L2.37847 1.45034L2.37832 1.45061L31.6181 17.4553ZM32.2606 16.7645L52.5276 43.2288L52.5277 43.2287L32.2606 16.7645ZM33.6863 15.8303L51.2638 44.1525L51.2638 44.1524L33.6863 15.8303ZM37.5 -20.5C30.1771 -20.5 24.6059 -18.265 21.5558 -16.7817L50.7116 43.1715C48.5921 44.2022 43.8788 46.1667 37.5 46.1667V-20.5ZM21.5559 -16.7818C19.2156 -15.6437 17.0476 -14.2514 16.9375 -14.1831L52.093 42.4609C52.2695 42.3513 52.3556 42.298 52.4245 42.2557C52.4881 42.2166 52.4635 42.2322 52.388 42.277C52.3124 42.3217 52.1292 42.4293 51.8698 42.5722C51.6111 42.7148 51.2152 42.9265 50.7115 43.1715L21.5559 -16.7818ZM16.9377 -14.1832L15.56 -13.3281L50.715 43.3161L52.0928 42.461L16.9377 -14.1832ZM15.5602 -13.3282C15.4524 -13.2613 13.3549 -12.0019 11.3853 -10.4935L51.9198 42.4347C51.4993 42.7568 51.152 43.0033 50.9192 43.1643C50.6861 43.3255 50.5152 43.4372 50.4429 43.4841C50.3707 43.531 50.345 43.5466 50.4035 43.5099C50.4672 43.47 50.5476 43.42 50.7149 43.3162L15.5602 -13.3282ZM11.3856 -10.4937C8.78938 -8.50548 4.69847 -4.87076 1.50131 0.970151L59.9804 32.9801C57.2188 38.0254 53.7308 41.0478 51.9196 42.4349L11.3856 -10.4937ZM1.5014 0.969991C-1.66492 6.75447 -2.51792 12.0847 -2.80834 15.1752L63.5659 21.4124C63.3693 23.5043 62.712 27.9898 59.9803 32.9803L1.5014 0.969991ZM-2.80835 15.1754C-3.03293 17.5654 -3 19.9443 -3 20.1118L63.6667 20.1112C63.6667 19.9104 63.6667 19.8074 63.6671 19.7238C63.6674 19.6458 63.6678 19.6632 63.6664 19.7347C63.6651 19.8062 63.661 19.9915 63.6486 20.2532C63.6362 20.5144 63.6128 20.9137 63.5659 21.4123L-2.80835 15.1754ZM-3 20.1115V21.1866H63.6667V20.1115H-3ZM-3 21.1865C-3.00001 21.5944 -3.06473 25.1171 -2.62017 28.5375L63.4904 19.9448C63.5796 20.6306 63.6213 21.1661 63.6417 21.485C63.6622 21.8067 63.6678 22.017 63.6689 22.0599C63.67 22.1038 63.6687 22.0707 63.6677 21.9031C63.6668 21.7287 63.6667 21.5247 63.6667 21.1868L-3 21.1865ZM-2.62017 28.5374C-2.06252 32.8279 -0.232576 41.5947 7.29086 49.376L55.2189 3.0366C61.7506 9.79222 63.1417 17.2615 63.4904 19.9448L-2.62017 28.5374ZM7.28842 49.3735C14.9679 57.3179 23.9017 59.4259 28.5804 60.0766L37.763 -5.95464C40.8722 -5.52226 48.5382 -3.87465 55.2214 3.03912L7.28842 49.3735ZM28.582 60.0768C32.1562 60.5737 35.8176 60.5 36.1279 60.5V-6.16663C35.7998 -6.16663 35.6133 -6.16674 35.4567 -6.16768C35.3074 -6.16857 35.2998 -6.16974 35.373 -6.16777C35.445 -6.16583 35.6937 -6.15841 36.0594 -6.13337C36.4223 -6.10852 37.0131 -6.0589 37.7614 -5.95486L28.582 60.0768ZM36.1279 60.5H38.8721V-6.16663H36.1279V60.5ZM38.8721 60.5C39.1824 60.5 42.8438 60.5737 46.4179 60.0768L37.2386 -5.95488C37.987 -6.0589 38.5778 -6.10852 38.9406 -6.13337C39.3063 -6.15841 39.5549 -6.16583 39.627 -6.16777C39.7002 -6.16974 39.6926 -6.16857 39.5433 -6.16768C39.3867 -6.16674 39.2001 -6.16663 38.8721 -6.16663V60.5ZM46.4198 60.0766C51.0982 59.4259 60.0322 57.318 67.7119 49.3732L19.7783 3.03944C26.4616 -3.87468 34.1278 -5.52226 37.2368 -5.95462L46.4198 60.0766ZM67.7091 49.376C75.2324 41.5948 77.0623 32.8283 77.6201 28.5382L11.5097 19.944C11.8584 17.2611 13.2495 9.79204 19.781 3.0366L67.7091 49.376ZM77.6202 28.5369C78.0647 25.117 78 21.5949 78 21.1866H11.3333C11.3333 21.5245 11.3332 21.7286 11.3323 21.903C11.3313 22.0706 11.33 22.1038 11.3311 22.0598C11.3322 22.017 11.3377 21.8067 11.3583 21.4851C11.3787 21.1663 11.4204 20.6309 11.5095 19.9453L77.6202 28.5369ZM78 21.1866V20.1115H11.3333V21.1866H78ZM78 20.1115C78 19.9443 78.0329 17.5653 77.8083 15.1754L11.4341 21.4123C11.3872 20.9137 11.3638 20.5144 11.3514 20.2532C11.339 19.9916 11.3349 19.8063 11.3336 19.7347C11.3322 19.6633 11.3326 19.6459 11.3329 19.7239C11.3333 19.8076 11.3333 19.9106 11.3333 20.1115H78ZM77.8082 15.1744C77.5177 12.0836 76.6647 6.75506 73.4998 0.972259L15.0184 32.978C12.2881 27.9892 11.6308 23.5054 11.4342 21.4133L77.8082 15.1744ZM73.4995 0.97166C70.302 -4.87065 66.2101 -8.50605 63.6133 -10.4945L23.0814 42.4357C21.2698 41.0484 17.7808 38.0253 15.0187 32.9786L73.4995 0.97166ZM63.6155 -10.4928C61.6451 -12.002 59.5462 -13.2622 59.4397 -13.3283L24.2852 43.3163C24.4527 43.4202 24.5331 43.4702 24.5969 43.5102C24.6555 43.5469 24.6298 43.5313 24.5576 43.4844C24.4851 43.4375 24.3142 43.3257 24.0809 43.1643C23.8479 43.0032 23.5003 42.7565 23.0792 42.434L63.6155 -10.4928ZM59.4401 -13.3281L58.0623 -14.1831L22.9071 42.461L24.2849 43.316L59.4401 -13.3281ZM58.063 -14.1827C57.9517 -14.2518 55.7842 -15.6438 53.4437 -16.7819L24.2888 43.1717C23.7852 42.9268 23.3893 42.715 23.1306 42.5725C22.8712 42.4295 22.6879 42.322 22.6123 42.2772C22.5367 42.2324 22.512 42.2167 22.5754 42.2556C22.6441 42.2978 22.7302 42.3511 22.9064 42.4605L58.063 -14.1827ZM53.445 -16.7813C50.3943 -18.265 44.8229 -20.5 37.5 -20.5V46.1667C31.1212 46.1667 26.4077 44.2022 24.2875 43.171L53.445 -16.7813ZM52.5972 43.3249C52.7758 43.214 52.87 43.1557 52.9424 43.1112C53.0119 43.0685 52.9891 43.0831 52.9138 43.1278C52.8388 43.1723 52.6466 43.2855 52.3739 43.4361C52.1005 43.5871 51.6813 43.8119 51.149 44.0707L21.993 -15.8824C19.691 -14.7629 17.5273 -13.3722 17.4422 -13.3193L52.5972 43.3249ZM51.1482 44.0711C48.9516 45.1393 44.0842 47.1667 37.5 47.1667V-19.5C30.3828 -19.5 24.966 -17.3281 21.9938 -15.8827L51.1482 44.0711ZM37.5 47.1667C30.9159 47.1667 26.0486 45.1393 23.8522 44.0713L53.0058 -15.883C50.0338 -17.3281 44.6171 -19.5 37.5 -19.5V47.1667ZM23.8506 44.0705C23.3184 43.8117 22.8992 43.587 22.6259 43.436C22.3532 43.2854 22.1611 43.1722 22.0862 43.1278C22.011 43.0831 21.9882 43.0686 22.0578 43.1113C22.1303 43.1559 22.2246 43.2143 22.4033 43.3252L57.5573 -13.3196C57.4727 -13.3722 55.309 -14.7628 53.0074 -15.8822L23.8506 44.0705ZM22.4029 43.3249L23.7362 44.1524L58.8911 -12.4919L57.5578 -13.3194L22.4029 43.3249ZM23.7357 44.1521C23.9049 44.2571 23.9929 44.3118 24.0599 44.3538C24.124 44.394 24.0999 44.3794 24.0278 44.3327C23.9557 44.2861 23.7763 44.169 23.5309 43.9997C23.2846 43.8297 22.9168 43.5691 22.4728 43.2291L63.006 -9.70012C61.0691 -11.1834 58.976 -12.4392 58.8916 -12.4916L23.7357 44.1521ZM22.4726 43.229C20.5925 41.7892 16.9933 38.6676 14.1437 33.4628L72.6201 1.44779C69.5138 -4.22607 65.5391 -7.76023 63.0061 -9.7L22.4726 43.229ZM14.1443 33.4638C11.3213 28.3078 10.6419 23.6719 10.4383 21.5047L76.8128 15.2701C76.5301 12.2597 75.7003 7.07342 72.6196 1.44679L14.1443 33.4638ZM10.4382 21.5034C10.3889 20.9782 10.3645 20.5562 10.3516 20.2801C10.3389 20.0049 10.3348 19.8101 10.3335 19.7386C10.3322 19.6669 10.3326 19.6509 10.3329 19.7346C10.3333 19.8216 10.3333 19.9328 10.3333 20.136H77C77 19.9894 77.0335 17.6202 76.813 15.2714L10.4382 21.5034ZM10.3333 20.136V21.15H77V20.136H10.3333ZM10.3333 21.15C10.3333 21.4932 10.3332 21.708 10.3322 21.8864C10.3313 22.0608 10.33 22.0951 10.331 22.0497C10.3321 22.0061 10.3378 21.7829 10.3591 21.4434C10.3803 21.1055 10.424 20.5387 10.5179 19.8158L76.6285 28.4087C77.0656 25.0456 77 21.54 77 21.15H10.3333ZM10.5178 19.8163C10.8829 17.0076 12.3288 9.30621 19.0612 2.3425L66.9911 48.6801C74.2938 41.1264 76.0819 32.6143 76.6285 28.4082L10.5178 19.8163ZM19.0607 2.34306C22.1354 -0.837436 25.7175 -3.21593 29.4405 -4.80165C32.8072 -6.23564 35.6391 -6.74199 37.0975 -6.94486L46.2836 59.0859C50.8726 58.4475 59.5414 56.3861 66.9916 48.6796L19.0607 2.34306ZM37.1 -6.94522C37.8903 -7.0551 38.5162 -7.10693 38.9 -7.13271C39.2852 -7.15859 39.5476 -7.16604 39.6196 -7.16791C39.6934 -7.16982 39.6839 -7.16864 39.5265 -7.16773C39.365 -7.16679 39.1664 -7.16663 38.8333 -7.16663V59.5C39.1167 59.5 42.7658 59.575 46.2811 59.0862L37.1 -6.94522ZM38.8333 -7.16663H36.1667V59.5H38.8333V-7.16663ZM36.1667 -7.16663C35.8336 -7.16663 35.6349 -7.16679 35.4735 -7.16773C35.3161 -7.16864 35.3066 -7.16982 35.3804 -7.16791C35.4524 -7.16604 35.7148 -7.15859 36.1 -7.13271C36.4838 -7.10693 37.1097 -7.0551 37.9 -6.94522L28.719 59.0862C32.2342 59.575 35.8833 59.5 36.1667 59.5V-7.16663ZM37.9023 -6.9449C39.3607 -6.74203 42.1928 -6.23566 45.5597 -4.80156C49.283 -3.21567 52.8643 -0.837357 55.938 2.34165L8.00976 48.681C15.4589 56.3856 24.1259 58.4473 28.7167 59.0859L37.9023 -6.9449ZM55.9393 2.34306C62.6712 9.30663 64.117 17.0075 64.482 19.8154L-1.62844 28.4091C-1.08181 32.6143 0.706099 41.126 8.00839 48.6796L55.9393 2.34306ZM64.4821 19.8158C64.576 20.5387 64.6197 21.1056 64.6409 21.4435C64.6622 21.783 64.6679 22.0062 64.6689 22.0498C64.67 22.0952 64.6687 22.0609 64.6678 21.8865C64.6668 21.708 64.6667 21.4933 64.6667 21.15H-2C-2 21.5398 -2.06562 25.0456 -1.62849 28.4087L64.4821 19.8158ZM64.6667 21.15V20.136H-2V21.15H64.6667ZM64.6667 20.136C64.6667 19.9326 64.6667 19.8214 64.6671 19.7342C64.6674 19.6504 64.6678 19.6665 64.6665 19.7383C64.6652 19.81 64.6611 20.0051 64.6483 20.2807C64.6355 20.5572 64.611 20.9799 64.5615 21.5059L-1.81273 15.2689C-2.03362 17.6196 -2 19.9916 -2 20.136H64.6667ZM64.5616 21.5057C64.3578 23.6738 63.6783 28.3069 60.8578 33.4599L2.37832 1.45061C-0.699873 7.07433 -1.52981 12.2579 -1.81275 15.2691L64.5616 21.5057ZM60.8576 33.4602C58.0064 38.6691 54.4045 41.7914 52.5276 43.2288L11.9936 -9.69979C9.46389 -7.76248 5.48642 -4.2276 2.37847 1.45034L60.8576 33.4602ZM52.5277 43.2287C52.0837 43.5688 51.7158 43.8294 51.4694 43.9995C51.2239 44.1689 51.0444 44.286 50.9722 44.3327C50.9 44.3794 50.8758 44.3941 50.9399 44.354C51.0067 44.3121 51.0947 44.2574 51.2638 44.1525L16.1089 -12.4919C16.0241 -12.4392 13.9308 -11.1834 11.9935 -9.69973L52.5277 43.2287ZM51.2638 44.1524L52.5971 43.3249L17.4422 -13.3194L16.1089 -12.4919L51.2638 44.1524Z" fill="#808080" mask="url(#path-2-inside-1_261_104)"/>
<path d="M15.1758 34.4688V43H14.0625V34.4688H15.1758ZM17.918 34.4688V35.3945H11.3262V34.4688H17.918ZM19.6582 37.6562V43H18.5742V36.6602H19.6289L19.6582 37.6562ZM21.6387 36.625L21.6328 37.6328C21.543 37.6133 21.457 37.6016 21.375 37.5977C21.2969 37.5898 21.207 37.5859 21.1055 37.5859C20.8555 37.5859 20.6348 37.625 20.4434 37.7031C20.252 37.7812 20.0898 37.8906 19.957 38.0312C19.8242 38.1719 19.7188 38.3398 19.6406 38.5352C19.5664 38.7266 19.5176 38.9375 19.4941 39.168L19.1895 39.3438C19.1895 38.9609 19.2266 38.6016 19.3008 38.2656C19.3789 37.9297 19.498 37.6328 19.6582 37.375C19.8184 37.1133 20.0215 36.9102 20.2676 36.7656C20.5176 36.6172 20.8145 36.543 21.1582 36.543C21.2363 36.543 21.3262 36.5527 21.4277 36.5723C21.5293 36.5879 21.5996 36.6055 21.6387 36.625ZM26.1445 41.916V38.6523C26.1445 38.4023 26.0938 38.1855 25.9922 38.002C25.8945 37.8145 25.7461 37.6699 25.5469 37.5684C25.3477 37.4668 25.1016 37.416 24.8086 37.416C24.5352 37.416 24.2949 37.4629 24.0879 37.5566C23.8848 37.6504 23.7246 37.7734 23.6074 37.9258C23.4941 38.0781 23.4375 38.2422 23.4375 38.418H22.3535C22.3535 38.1914 22.4121 37.9668 22.5293 37.7441C22.6465 37.5215 22.8145 37.3203 23.0332 37.1406C23.2559 36.957 23.5215 36.8125 23.8301 36.707C24.1426 36.5977 24.4902 36.543 24.873 36.543C25.334 36.543 25.7402 36.6211 26.0918 36.7773C26.4473 36.9336 26.7246 37.1699 26.9238 37.4863C27.127 37.7988 27.2285 38.1914 27.2285 38.6641V41.6172C27.2285 41.8281 27.2461 42.0527 27.2812 42.291C27.3203 42.5293 27.377 42.7344 27.4512 42.9062V43H26.3203C26.2656 42.875 26.2227 42.709 26.1914 42.502C26.1602 42.291 26.1445 42.0957 26.1445 41.916ZM26.332 39.1562L26.3438 39.918H25.248C24.9395 39.918 24.6641 39.9434 24.4219 39.9941C24.1797 40.041 23.9766 40.1133 23.8125 40.2109C23.6484 40.3086 23.5234 40.4316 23.4375 40.5801C23.3516 40.7246 23.3086 40.8945 23.3086 41.0898C23.3086 41.2891 23.3535 41.4707 23.4434 41.6348C23.5332 41.7988 23.668 41.9297 23.8477 42.0273C24.0312 42.1211 24.2559 42.168 24.5215 42.168C24.8535 42.168 25.1465 42.0977 25.4004 41.957C25.6543 41.8164 25.8555 41.6445 26.0039 41.4414C26.1562 41.2383 26.2383 41.041 26.25 40.8496L26.7129 41.3711C26.6855 41.5352 26.6113 41.7168 26.4902 41.916C26.3691 42.1152 26.207 42.3066 26.0039 42.4902C25.8047 42.6699 25.5664 42.8203 25.2891 42.9414C25.0156 43.0586 24.707 43.1172 24.3633 43.1172C23.9336 43.1172 23.5566 43.0332 23.2324 42.8652C22.9121 42.6973 22.6621 42.4727 22.4824 42.1914C22.3066 41.9062 22.2188 41.5879 22.2188 41.2363C22.2188 40.8965 22.2852 40.5977 22.418 40.3398C22.5508 40.0781 22.7422 39.8613 22.9922 39.6895C23.2422 39.5137 23.543 39.3809 23.8945 39.291C24.2461 39.2012 24.6387 39.1562 25.0723 39.1562H26.332ZM30.0176 38.0137V43H28.9336V36.6602H29.959L30.0176 38.0137ZM29.7598 39.5898L29.3086 39.5723C29.3125 39.1387 29.377 38.7383 29.502 38.3711C29.627 38 29.8027 37.6777 30.0293 37.4043C30.2559 37.1309 30.5254 36.9199 30.8379 36.7715C31.1543 36.6191 31.5039 36.543 31.8867 36.543C32.1992 36.543 32.4805 36.5859 32.7305 36.6719C32.9805 36.7539 33.1934 36.8867 33.3691 37.0703C33.5488 37.2539 33.6855 37.4922 33.7793 37.7852C33.873 38.0742 33.9199 38.4277 33.9199 38.8457V43H32.8301V38.834C32.8301 38.502 32.7812 38.2363 32.6836 38.0371C32.5859 37.834 32.4434 37.6875 32.2559 37.5977C32.0684 37.5039 31.8379 37.457 31.5645 37.457C31.2949 37.457 31.0488 37.5137 30.8262 37.627C30.6074 37.7402 30.418 37.8965 30.2578 38.0957C30.1016 38.2949 29.9785 38.5234 29.8887 38.7812C29.8027 39.0352 29.7598 39.3047 29.7598 39.5898ZM39.6738 36.6602H40.6582V42.8652C40.6582 43.4238 40.5449 43.9004 40.3184 44.2949C40.0918 44.6895 39.7754 44.9883 39.3691 45.1914C38.9668 45.3984 38.502 45.502 37.9746 45.502C37.7559 45.502 37.498 45.4668 37.2012 45.3965C36.9082 45.3301 36.6191 45.2148 36.334 45.0508C36.0527 44.8906 35.8164 44.6738 35.625 44.4004L36.1934 43.7559C36.459 44.0762 36.7363 44.2988 37.0254 44.4238C37.3184 44.5488 37.6074 44.6113 37.8926 44.6113C38.2363 44.6113 38.5332 44.5469 38.7832 44.418C39.0332 44.2891 39.2266 44.0977 39.3633 43.8438C39.5039 43.5938 39.5742 43.2852 39.5742 42.918V38.0547L39.6738 36.6602ZM35.3086 39.9004V39.7773C35.3086 39.293 35.3652 38.8535 35.4785 38.459C35.5957 38.0605 35.7617 37.7188 35.9766 37.4336C36.1953 37.1484 36.459 36.9297 36.7676 36.7773C37.0762 36.6211 37.4238 36.543 37.8105 36.543C38.209 36.543 38.5566 36.6133 38.8535 36.7539C39.1543 36.8906 39.4082 37.0918 39.6152 37.3574C39.8262 37.6191 39.9922 37.9355 40.1133 38.3066C40.2344 38.6777 40.3184 39.0977 40.3652 39.5664V40.1055C40.3223 40.5703 40.2383 40.9883 40.1133 41.3594C39.9922 41.7305 39.8262 42.0469 39.6152 42.3086C39.4082 42.5703 39.1543 42.7715 38.8535 42.9121C38.5527 43.0488 38.2012 43.1172 37.7988 43.1172C37.4199 43.1172 37.0762 43.0371 36.7676 42.877C36.4629 42.7168 36.2012 42.4922 35.9824 42.2031C35.7637 41.9141 35.5957 41.5742 35.4785 41.1836C35.3652 40.7891 35.3086 40.3613 35.3086 39.9004ZM36.3926 39.7773V39.9004C36.3926 40.2168 36.4238 40.5137 36.4863 40.791C36.5527 41.0684 36.6523 41.3125 36.7852 41.5234C36.9219 41.7344 37.0957 41.9004 37.3066 42.0215C37.5176 42.1387 37.7695 42.1973 38.0625 42.1973C38.4219 42.1973 38.7188 42.1211 38.9531 41.9688C39.1875 41.8164 39.373 41.6152 39.5098 41.3652C39.6504 41.1152 39.7598 40.8438 39.8379 40.5508V39.1387C39.7949 38.9238 39.7285 38.7168 39.6387 38.5176C39.5527 38.3145 39.4395 38.1348 39.2988 37.9785C39.1621 37.8184 38.9922 37.6914 38.7891 37.5977C38.5859 37.5039 38.3477 37.457 38.0742 37.457C37.7773 37.457 37.5215 37.5195 37.3066 37.6445C37.0957 37.7656 36.9219 37.9336 36.7852 38.1484C36.6523 38.3594 36.5527 38.6055 36.4863 38.8867C36.4238 39.1641 36.3926 39.4609 36.3926 39.7773ZM47.8184 42.2266C48.0762 42.2266 48.3145 42.1738 48.5332 42.0684C48.752 41.9629 48.9316 41.8184 49.0723 41.6348C49.2129 41.4473 49.293 41.2344 49.3125 40.9961H50.3438C50.3242 41.3711 50.1973 41.7207 49.9629 42.0449C49.7324 42.3652 49.4297 42.625 49.0547 42.8242C48.6797 43.0195 48.2676 43.1172 47.8184 43.1172C47.3418 43.1172 46.9258 43.0332 46.5703 42.8652C46.2188 42.6973 45.9258 42.4668 45.6914 42.1738C45.4609 41.8809 45.2871 41.5449 45.1699 41.166C45.0566 40.7832 45 40.3789 45 39.9531V39.707C45 39.2812 45.0566 38.8789 45.1699 38.5C45.2871 38.1172 45.4609 37.7793 45.6914 37.4863C45.9258 37.1934 46.2188 36.9629 46.5703 36.7949C46.9258 36.627 47.3418 36.543 47.8184 36.543C48.3145 36.543 48.748 36.6445 49.1191 36.8477C49.4902 37.0469 49.7812 37.3203 49.9922 37.668C50.207 38.0117 50.3242 38.4023 50.3438 38.8398H49.3125C49.293 38.5781 49.2188 38.3418 49.0898 38.1309C48.9648 37.9199 48.793 37.752 48.5742 37.627C48.3594 37.498 48.1074 37.4336 47.8184 37.4336C47.4863 37.4336 47.207 37.5 46.9805 37.6328C46.7578 37.7617 46.5801 37.9375 46.4473 38.1602C46.3184 38.3789 46.2246 38.623 46.166 38.8926C46.1113 39.1582 46.084 39.4297 46.084 39.707V39.9531C46.084 40.2305 46.1113 40.5039 46.166 40.7734C46.2207 41.043 46.3125 41.2871 46.4414 41.5059C46.5742 41.7246 46.752 41.9004 46.9746 42.0332C47.2012 42.1621 47.4824 42.2266 47.8184 42.2266ZM52.6465 34V43H51.5625V34H52.6465ZM52.3887 39.5898L51.9375 39.5723C51.9414 39.1387 52.0059 38.7383 52.1309 38.3711C52.2559 38 52.4316 37.6777 52.6582 37.4043C52.8848 37.1309 53.1543 36.9199 53.4668 36.7715C53.7832 36.6191 54.1328 36.543 54.5156 36.543C54.8281 36.543 55.1094 36.5859 55.3594 36.6719C55.6094 36.7539 55.8223 36.8867 55.998 37.0703C56.1777 37.2539 56.3145 37.4922 56.4082 37.7852C56.502 38.0742 56.5488 38.4277 56.5488 38.8457V43H55.459V38.834C55.459 38.502 55.4102 38.2363 55.3125 38.0371C55.2148 37.834 55.0723 37.6875 54.8848 37.5977C54.6973 37.5039 54.4668 37.457 54.1934 37.457C53.9238 37.457 53.6777 37.5137 53.4551 37.627C53.2363 37.7402 53.0469 37.8965 52.8867 38.0957C52.7305 38.2949 52.6074 38.5234 52.5176 38.7812C52.4316 39.0352 52.3887 39.3047 52.3887 39.5898ZM62.0508 41.5352V36.6602H63.1406V43H62.1035L62.0508 41.5352ZM62.2559 40.1992L62.707 40.1875C62.707 40.6094 62.6621 41 62.5723 41.3594C62.4863 41.7148 62.3457 42.0234 62.1504 42.2852C61.9551 42.5469 61.6992 42.752 61.3828 42.9004C61.0664 43.0449 60.6816 43.1172 60.2285 43.1172C59.9199 43.1172 59.6367 43.0723 59.3789 42.9824C59.125 42.8926 58.9062 42.7539 58.7227 42.5664C58.5391 42.3789 58.3965 42.1348 58.2949 41.834C58.1973 41.5332 58.1484 41.1719 58.1484 40.75V36.6602H59.2324V40.7617C59.2324 41.0469 59.2637 41.2832 59.3262 41.4707C59.3926 41.6543 59.4805 41.8008 59.5898 41.9102C59.7031 42.0156 59.8281 42.0898 59.9648 42.1328C60.1055 42.1758 60.25 42.1973 60.3984 42.1973C60.8594 42.1973 61.2246 42.1094 61.4941 41.9336C61.7637 41.7539 61.957 41.5137 62.0742 41.2129C62.1953 40.9082 62.2559 40.5703 62.2559 40.1992ZM61.0781 35.6289H60.2988L60.293 34.7383C60.4922 34.7266 60.6543 34.707 60.7793 34.6797C60.9043 34.6484 60.9961 34.6035 61.0547 34.5449C61.1133 34.4824 61.1426 34.4004 61.1426 34.2988C61.1426 34.2168 61.1172 34.1484 61.0664 34.0938C61.0156 34.0352 60.9453 33.9883 60.8555 33.9531C60.7656 33.9141 60.6621 33.8867 60.5449 33.8711C60.4277 33.8555 60.3027 33.8477 60.1699 33.8477L60.2109 33.2266C60.5 33.2266 60.7539 33.252 60.9727 33.3027C61.1953 33.3535 61.3809 33.4277 61.5293 33.5254C61.6816 33.623 61.7949 33.7402 61.8691 33.877C61.9473 34.0098 61.9863 34.1582 61.9863 34.3223C61.9863 34.6191 61.8926 34.8359 61.7051 34.9727C61.5176 35.1055 61.3105 35.1875 61.084 35.2188L61.0781 35.6289Z" fill="#808080"/>
</svg>
