<svg width="75" height="62" viewBox="0 0 75 62" fill="none" xmlns="http://www.w3.org/2000/svg">
<mask id="path-1-inside-1_261_369" fill="white">
<path fill-rule="evenodd" clip-rule="evenodd" d="M37.5 12.8333C37.0969 12.8333 36.7256 12.9335 36.3192 13.1016C35.9267 13.2639 35.4709 13.5032 34.9033 13.801L33.5249 14.5244C32.8283 14.8899 32.2708 15.1825 31.8403 15.4699C31.3944 15.7678 31.0509 16.0814 30.8007 16.5061C30.5515 16.9295 30.4393 17.3879 30.3855 17.9338C30.3333 18.4637 30.3333 19.1154 30.3333 19.9351V20.0649C30.3333 20.8845 30.3333 21.5363 30.3855 22.0662C30.4393 22.6121 30.5515 23.0705 30.8007 23.4939C31.0509 23.9187 31.3944 24.2323 31.8403 24.5301C32.2708 24.8175 32.8283 25.1101 33.5249 25.4757L34.9032 26.1989C35.4709 26.4969 35.9267 26.7361 36.3192 26.8984C36.7256 27.0665 37.0969 27.1667 37.5 27.1667C37.9031 27.1667 38.2744 27.0665 38.6808 26.8984C39.0733 26.7361 39.5291 26.4969 40.0967 26.199L41.4751 25.4757C42.1717 25.1101 42.7292 24.8175 43.1597 24.5301C43.6057 24.2323 43.9491 23.9187 44.1993 23.4939C44.4485 23.0705 44.5607 22.6121 44.6145 22.0662C44.6667 21.5363 44.6667 20.8846 44.6667 20.065V19.935C44.6667 19.1154 44.6667 18.4637 44.6145 17.9338C44.5607 17.3879 44.4485 16.9295 44.1993 16.5061C43.9491 16.0814 43.6057 15.7678 43.1597 15.4699C42.7292 15.1825 42.1717 14.8899 41.4751 14.5243L40.0967 13.801C39.5291 13.5032 39.0733 13.2639 38.6808 13.1016C38.2744 12.9335 37.9031 12.8333 37.5 12.8333ZM35.3472 14.6974C35.9403 14.3861 36.356 14.1685 36.7013 14.0257C37.0375 13.8867 37.2737 13.8333 37.5 13.8333C37.7263 13.8333 37.9625 13.8867 38.2987 14.0257C38.644 14.1685 39.0597 14.3861 39.6528 14.6974L40.9861 15.3971C41.7126 15.7783 42.223 16.0469 42.6043 16.3016C42.7925 16.4272 42.9403 16.5439 43.0597 16.6612L40.8392 17.7714L35.1726 14.789L35.3472 14.6974ZM34.1298 15.3363L34.0139 15.3971C33.2874 15.7783 32.777 16.0469 32.3957 16.3016C32.2075 16.4272 32.0597 16.5439 31.9404 16.6612L37.5 19.441L39.7381 18.3219L34.2671 15.4425C34.214 15.4145 34.1679 15.3783 34.1298 15.3363ZM31.4585 17.5383C31.4248 17.6808 31.3993 17.8428 31.3807 18.0319C31.3339 18.5071 31.3333 19.1096 31.3333 19.961V20.039C31.3333 20.8904 31.3339 21.4929 31.3807 21.9681C31.4265 22.4329 31.5135 22.7335 31.6624 22.9865C31.8106 23.238 32.0248 23.4508 32.3957 23.6985C32.777 23.9531 33.2874 24.2217 34.0139 24.6029L35.3472 25.3026C35.9403 25.6139 36.356 25.8315 36.7013 25.9743C36.8104 26.0194 36.9089 26.0555 37 26.0837V20.309L31.4585 17.5383ZM38 26.0837C38.0911 26.0555 38.1896 26.0194 38.2987 25.9743C38.644 25.8315 39.0597 25.6139 39.6528 25.3026L40.9861 24.6029C41.7126 24.2217 42.223 23.9531 42.6043 23.6985C42.9751 23.4508 43.1894 23.238 43.3375 22.9865C43.4865 22.7335 43.5735 22.4329 43.6193 21.9681C43.6661 21.4929 43.6667 20.8904 43.6667 20.039V19.961C43.6667 19.1096 43.6661 18.5071 43.6193 18.0319C43.6007 17.8428 43.5752 17.6808 43.5415 17.5382L41.3333 18.6424V20.6667C41.3333 20.9428 41.1095 21.1667 40.8333 21.1667C40.5572 21.1667 40.3333 20.9428 40.3333 20.6667V19.1423L38 20.309V26.0837Z"/>
</mask>
<path fill-rule="evenodd" clip-rule="evenodd" d="M37.5 12.8333C37.0969 12.8333 36.7256 12.9335 36.3192 13.1016C35.9267 13.2639 35.4709 13.5032 34.9033 13.801L33.5249 14.5244C32.8283 14.8899 32.2708 15.1825 31.8403 15.4699C31.3944 15.7678 31.0509 16.0814 30.8007 16.5061C30.5515 16.9295 30.4393 17.3879 30.3855 17.9338C30.3333 18.4637 30.3333 19.1154 30.3333 19.9351V20.0649C30.3333 20.8845 30.3333 21.5363 30.3855 22.0662C30.4393 22.6121 30.5515 23.0705 30.8007 23.4939C31.0509 23.9187 31.3944 24.2323 31.8403 24.5301C32.2708 24.8175 32.8283 25.1101 33.5249 25.4757L34.9032 26.1989C35.4709 26.4969 35.9267 26.7361 36.3192 26.8984C36.7256 27.0665 37.0969 27.1667 37.5 27.1667C37.9031 27.1667 38.2744 27.0665 38.6808 26.8984C39.0733 26.7361 39.5291 26.4969 40.0967 26.199L41.4751 25.4757C42.1717 25.1101 42.7292 24.8175 43.1597 24.5301C43.6057 24.2323 43.9491 23.9187 44.1993 23.4939C44.4485 23.0705 44.5607 22.6121 44.6145 22.0662C44.6667 21.5363 44.6667 20.8846 44.6667 20.065V19.935C44.6667 19.1154 44.6667 18.4637 44.6145 17.9338C44.5607 17.3879 44.4485 16.9295 44.1993 16.5061C43.9491 16.0814 43.6057 15.7678 43.1597 15.4699C42.7292 15.1825 42.1717 14.8899 41.4751 14.5243L40.0967 13.801C39.5291 13.5032 39.0733 13.2639 38.6808 13.1016C38.2744 12.9335 37.9031 12.8333 37.5 12.8333ZM35.3472 14.6974C35.9403 14.3861 36.356 14.1685 36.7013 14.0257C37.0375 13.8867 37.2737 13.8333 37.5 13.8333C37.7263 13.8333 37.9625 13.8867 38.2987 14.0257C38.644 14.1685 39.0597 14.3861 39.6528 14.6974L40.9861 15.3971C41.7126 15.7783 42.223 16.0469 42.6043 16.3016C42.7925 16.4272 42.9403 16.5439 43.0597 16.6612L40.8392 17.7714L35.1726 14.789L35.3472 14.6974ZM34.1298 15.3363L34.0139 15.3971C33.2874 15.7783 32.777 16.0469 32.3957 16.3016C32.2075 16.4272 32.0597 16.5439 31.9404 16.6612L37.5 19.441L39.7381 18.3219L34.2671 15.4425C34.214 15.4145 34.1679 15.3783 34.1298 15.3363ZM31.4585 17.5383C31.4248 17.6808 31.3993 17.8428 31.3807 18.0319C31.3339 18.5071 31.3333 19.1096 31.3333 19.961V20.039C31.3333 20.8904 31.3339 21.4929 31.3807 21.9681C31.4265 22.4329 31.5135 22.7335 31.6624 22.9865C31.8106 23.238 32.0248 23.4508 32.3957 23.6985C32.777 23.9531 33.2874 24.2217 34.0139 24.6029L35.3472 25.3026C35.9403 25.6139 36.356 25.8315 36.7013 25.9743C36.8104 26.0194 36.9089 26.0555 37 26.0837V20.309L31.4585 17.5383ZM38 26.0837C38.0911 26.0555 38.1896 26.0194 38.2987 25.9743C38.644 25.8315 39.0597 25.6139 39.6528 25.3026L40.9861 24.6029C41.7126 24.2217 42.223 23.9531 42.6043 23.6985C42.9751 23.4508 43.1894 23.238 43.3375 22.9865C43.4865 22.7335 43.5735 22.4329 43.6193 21.9681C43.6661 21.4929 43.6667 20.8904 43.6667 20.039V19.961C43.6667 19.1096 43.6661 18.5071 43.6193 18.0319C43.6007 17.8428 43.5752 17.6808 43.5415 17.5382L41.3333 18.6424V20.6667C41.3333 20.9428 41.1095 21.1667 40.8333 21.1667C40.5572 21.1667 40.3333 20.9428 40.3333 20.6667V19.1423L38 20.309V26.0837Z" fill="#111111"/>
<path d="M36.3192 13.1016L49.0576 43.9049L49.0592 43.9043L36.3192 13.1016ZM34.9033 13.801L50.3925 43.317L50.3928 43.3169L34.9033 13.801ZM33.5249 14.5244L49.0139 44.0405L49.0142 44.0403L33.5249 14.5244ZM31.8403 15.4699L13.3283 -12.2504L13.328 -12.2502L31.8403 15.4699ZM30.8007 16.5061L59.5241 33.42L59.5241 33.42L30.8007 16.5061ZM30.3855 17.9338L-2.78723 14.6659L-2.78724 14.666L30.3855 17.9338ZM30.3333 19.9351H63.6667V19.9348L30.3333 19.9351ZM30.3333 20.0649L63.6667 20.0652V20.0649H30.3333ZM30.3855 22.0662L-2.78726 25.3338L-2.78724 25.3341L30.3855 22.0662ZM30.8007 23.4939L59.5245 6.5806L59.5238 6.57941L30.8007 23.4939ZM31.8403 24.5301L50.3523 -3.19026L50.3517 -3.19064L31.8403 24.5301ZM33.5249 25.4757L18.035 54.9913L18.0361 54.9919L33.5249 25.4757ZM34.9032 26.1989L50.3944 -3.31606L50.392 -3.31728L34.9032 26.1989ZM36.3192 26.8984L23.5793 57.7011L23.5805 57.7016L36.3192 26.8984ZM38.6808 26.8984L51.4195 57.7016L51.4214 57.7008L38.6808 26.8984ZM40.0967 26.199L55.5862 55.7149L55.5863 55.7148L40.0967 26.199ZM41.4751 25.4757L25.9856 -4.0402L25.9855 -4.04015L41.4751 25.4757ZM43.1597 24.5301L24.6496 -3.19154L24.6479 -3.19039L43.1597 24.5301ZM44.1993 23.4939L72.923 40.4072L72.9231 40.407L44.1993 23.4939ZM44.6145 22.0662L77.7871 25.3353L77.7873 25.3338L44.6145 22.0662ZM44.6145 17.9338L77.7872 14.666L77.7871 14.6647L44.6145 17.9338ZM44.1993 16.5061L72.9234 -0.4064L72.9226 -0.407738L44.1993 16.5061ZM43.1597 15.4699L24.6479 43.1904L24.6487 43.191L43.1597 15.4699ZM41.4751 14.5243L25.986 44.0404L25.9862 44.0406L41.4751 14.5243ZM40.0967 13.801L24.6068 43.3167L24.6076 43.3171L40.0967 13.801ZM38.6808 13.1016L25.9408 43.9043L25.9415 43.9046L38.6808 13.1016ZM35.3472 14.6974L50.8362 44.2135L50.8366 44.2133L35.3472 14.6974ZM36.7013 14.0257L23.9622 -16.7773L23.9616 -16.777L36.7013 14.0257ZM38.2987 14.0257L51.0384 -16.777L51.0378 -16.7773L38.2987 14.0257ZM39.6528 14.6974L24.1631 44.2132L24.1635 44.2134L39.6528 14.6974ZM40.9861 15.3971L56.4754 -14.1189L56.4754 -14.1189L40.9861 15.3971ZM42.6043 16.3016L24.092 44.0216L24.0921 44.0217L42.6043 16.3016ZM43.0597 16.6612L57.9667 46.4754L99.7199 25.599L66.4205 -7.11657L43.0597 16.6612ZM40.8392 17.7714L25.3144 47.2687L40.449 55.2343L55.7462 47.5857L40.8392 17.7714ZM35.1726 14.789L19.6836 -14.7271L-36.4798 14.7456L19.6478 44.2863L35.1726 14.789ZM34.1298 15.3363L58.806 -7.07349L41.4714 -26.1612L18.6401 -14.1795L34.1298 15.3363ZM34.0139 15.3971L49.5031 44.9131L49.5035 44.9129L34.0139 15.3971ZM32.3957 16.3016L50.9074 44.022L50.9078 44.0218L32.3957 16.3016ZM31.9404 16.6612L8.57418 -7.11135L-24.7098 25.6037L17.0332 46.4754L31.9404 16.6612ZM37.5 19.441L22.5928 49.2552L37.5 56.7089L52.4072 49.2552L37.5 19.441ZM39.7381 18.3219L54.6453 48.1361L112.753 19.0823L55.263 -11.1754L39.7381 18.3219ZM34.2671 15.4425L49.792 -14.0548L49.7911 -14.0553L34.2671 15.4425ZM31.4585 17.5383L46.3655 -12.276L8.69531 -31.111L-0.982847 9.87842L31.4585 17.5383ZM31.3807 18.0319L-1.79197 14.7631L-1.79206 14.764L31.3807 18.0319ZM31.3807 21.9681L64.5535 18.7003L64.5535 18.7002L31.3807 21.9681ZM31.6624 22.9865L2.93841 39.8992L2.93992 39.9018L31.6624 22.9865ZM32.3957 23.6985L13.8827 51.4181L13.8835 51.4187L32.3957 23.6985ZM34.0139 24.6029L18.5234 54.1183L18.5252 54.1192L34.0139 24.6029ZM35.3472 25.3026L50.8364 -4.21342L50.8359 -4.21369L35.3472 25.3026ZM36.7013 25.9743L49.4469 -4.82606L49.439 -4.82933L36.7013 25.9743ZM37 26.0837L27.1398 57.9253L70.3333 71.3007V26.0837H37ZM37 20.309H70.3333V-0.292189L51.907 -9.50527L37 20.309ZM38 26.0837H4.66667V71.3007L47.8602 57.9253L38 26.0837ZM38.2987 25.9743L25.561 -4.82933L25.5531 -4.82606L38.2987 25.9743ZM39.6528 25.3026L24.1641 -4.21369L24.1633 -4.21328L39.6528 25.3026ZM40.9861 24.6029L56.4748 54.1192L56.4765 54.1184L40.9861 24.6029ZM42.6043 23.6985L61.1167 51.4186L61.1185 51.4174L42.6043 23.6985ZM43.3375 22.9865L14.6152 6.07092L14.615 6.07117L43.3375 22.9865ZM43.6193 21.9681L10.4469 18.6965L10.4461 18.7041L43.6193 21.9681ZM43.6193 18.0319L10.446 21.2947L10.4469 21.3034L43.6193 18.0319ZM43.5415 17.5382L75.9829 9.87875L66.305 -31.1114L28.6343 -12.276L43.5415 17.5382ZM41.3333 18.6424L26.4261 -11.1718L8 -1.95872V18.6424H41.3333ZM40.3333 19.1423H73.6667V-34.7921L25.4262 -10.6719L40.3333 19.1423ZM38 20.309L23.0929 -9.50523L4.66667 -0.292123V20.309H38ZM37.5 -20.5C31.2051 -20.5 26.3318 -18.8395 23.5792 -17.701L49.0592 43.9043C47.1194 44.7066 42.9886 46.1667 37.5 46.1667V-20.5ZM23.5808 -17.7017C21.4688 -16.8283 19.4926 -15.7562 19.4137 -15.7148L50.3928 43.3169C50.548 43.2354 50.6195 43.198 50.6753 43.169C50.7261 43.1426 50.6958 43.1587 50.619 43.1972C50.5419 43.2359 50.3672 43.3226 50.1241 43.4363C49.8813 43.5497 49.5167 43.7151 49.0576 43.9049L23.5808 -17.7017ZM19.414 -15.715L18.0356 -14.9916L49.0142 44.0403L50.3925 43.317L19.414 -15.715ZM18.036 -14.9918C17.9106 -14.926 15.5519 -13.7353 13.3283 -12.2504L50.3523 43.1903C49.8778 43.5072 49.4872 43.7464 49.2268 43.9013C48.966 44.0564 48.7758 44.1624 48.6966 44.2062C48.6176 44.2498 48.5909 44.2634 48.6586 44.2274C48.7321 44.1884 48.8244 44.1399 49.0139 44.0405L18.036 -14.9918ZM13.328 -12.2502C10.3789 -10.2807 5.72783 -6.607 2.07737 -0.407738L59.5241 33.42C56.3739 38.7697 52.4099 41.8162 50.3526 43.1901L13.328 -12.2502ZM2.07738 -0.407743C-1.51583 5.6943 -2.46694 11.4146 -2.78723 14.6659L63.5583 21.2018C63.3455 23.3612 62.6187 28.1647 59.5241 33.42L2.07738 -0.407743ZM-2.78724 14.666C-3.03633 17.1947 -3 19.7252 -3 19.9353L63.6667 19.9348C63.6667 19.7139 63.6667 19.5957 63.6672 19.4982C63.6676 19.4066 63.668 19.4155 63.6667 19.4815C63.6654 19.5475 63.6612 19.734 63.648 20.0014C63.6348 20.268 63.6095 20.6821 63.5583 21.2016L-2.78724 14.666ZM-3 19.9351V20.0649H63.6667V19.9351H-3ZM-3 20.0647C-3 20.2748 -3.03633 22.8053 -2.78726 25.3338L63.5583 18.7986C63.6095 19.318 63.6348 19.7321 63.648 19.9987C63.6612 20.266 63.6654 20.4525 63.6667 20.5186C63.668 20.5845 63.6676 20.5934 63.6672 20.5018C63.6667 20.4043 63.6667 20.2861 63.6667 20.0652L-3 20.0647ZM-2.78724 25.3341C-2.46694 28.5855 -1.51579 34.3061 2.07773 40.4083L59.5238 6.57941C62.6187 11.835 63.3456 16.6388 63.5583 18.7984L-2.78724 25.3341ZM2.07703 40.4072C5.72731 46.6064 10.3783 50.2805 13.3289 52.2508L50.3517 -3.19064C52.4104 -1.81591 56.3744 1.23094 59.5245 6.5806L2.07703 40.4072ZM13.3283 52.2504C15.5518 53.7353 17.9115 54.9265 18.035 54.9913L49.0149 -4.03996C48.825 -4.13959 48.7327 -4.18812 48.6589 -4.22727C48.591 -4.26336 48.6175 -4.2498 48.6965 -4.20622C48.7755 -4.16256 48.9657 -4.05654 49.2265 -3.90141C49.4869 -3.74656 49.8776 -3.50728 50.3523 -3.19026L13.3283 52.2504ZM18.0361 54.9919L19.4144 55.7152L50.392 -3.31728L49.0137 -4.04055L18.0361 54.9919ZM19.4121 55.7139C19.4943 55.7571 21.4681 56.8279 23.5793 57.7011L49.0591 -3.9043C49.5175 -3.7147 49.8817 -3.54951 50.1242 -3.43617C50.3672 -3.32263 50.5418 -3.2359 50.6189 -3.19722C50.6959 -3.15863 50.7263 -3.14246 50.6758 -3.16869C50.6204 -3.19749 50.549 -3.23487 50.3944 -3.31606L19.4121 55.7139ZM23.5805 57.7016C26.3319 58.8394 31.205 60.5 37.5 60.5V-6.16666C42.9887 -6.16666 47.1193 -4.70648 49.0579 -3.9048L23.5805 57.7016ZM37.5 60.5C43.795 60.5 48.6681 58.8394 51.4195 57.7016L25.9421 -3.9048C27.8807 -4.70648 32.0112 -6.16666 37.5 -6.16666V60.5ZM51.4214 57.7008C53.5314 56.8281 55.505 55.7575 55.5862 55.7149L24.6073 -3.31689C24.4524 -3.2356 24.381 -3.19818 24.3253 -3.16926C24.2746 -3.14293 24.3048 -3.159 24.3816 -3.19748C24.4585 -3.23605 24.6329 -3.32267 24.8756 -3.43611C25.1179 -3.54934 25.482 -3.71445 25.9402 -3.904L51.4214 57.7008ZM55.5863 55.7148L56.9646 54.9915L25.9855 -4.04015L24.6072 -3.31682L55.5863 55.7148ZM56.9645 54.9916C57.0893 54.9261 59.4482 53.7353 61.6715 52.2505L24.6479 -3.19039C25.1224 -3.50728 25.5129 -3.74648 25.7733 -3.9013C26.034 -4.0564 26.2242 -4.16242 26.3033 -4.20612C26.3823 -4.24973 26.4089 -4.26332 26.3411 -4.2273C26.2675 -4.18824 26.1752 -4.13972 25.9856 -4.0402L56.9645 54.9916ZM61.6697 52.2517C64.6216 50.2807 69.2727 46.6064 72.923 40.4072L15.4755 6.5806C18.6255 1.23098 22.5897 -1.81613 24.6496 -3.19154L61.6697 52.2517ZM72.9231 40.407C76.516 34.305 77.4669 28.5851 77.7871 25.3353L11.4418 18.7972C11.6545 16.6392 12.381 11.836 15.4755 6.58075L72.9231 40.407ZM77.7873 25.3338C78.0363 22.8054 78 20.275 78 20.065H11.3333C11.3333 20.286 11.3333 20.4042 11.3328 20.5017C11.3324 20.5933 11.332 20.5844 11.3333 20.5185C11.3346 20.4524 11.3388 20.266 11.352 19.9986C11.3652 19.732 11.3905 19.318 11.4417 18.7986L77.7873 25.3338ZM78 20.065V19.935H11.3333V20.065H78ZM78 19.935C78 19.7251 78.0363 17.1946 77.7872 14.666L11.4417 21.2016C11.3905 20.6822 11.3652 20.2681 11.352 20.0014C11.3388 19.7341 11.3346 19.5476 11.3333 19.4816C11.332 19.4156 11.3324 19.4067 11.3328 19.4983C11.3333 19.5958 11.3333 19.714 11.3333 19.935H78ZM77.7871 14.6647C77.4668 11.415 76.5161 5.69532 72.9234 -0.4064L15.4751 33.4187C12.381 28.1636 11.6545 23.3608 11.4418 21.203L77.7871 14.6647ZM72.9226 -0.407738C69.2722 -6.60696 64.6211 -10.2809 61.6706 -12.2511L24.6487 43.191C22.5902 41.8164 18.6261 38.7697 15.4759 33.42L72.9226 -0.407738ZM61.6715 -12.2505C59.4482 -13.7352 57.0904 -14.9255 56.9639 -14.9919L25.9862 44.0406C26.1756 44.1399 26.2678 44.1884 26.3412 44.2273C26.4088 44.2633 26.3821 44.2496 26.303 44.2059C26.2238 44.1622 26.0336 44.0562 25.7729 43.9011C25.5126 43.7463 25.1222 43.5072 24.6479 43.1904L61.6715 -12.2505ZM56.9642 -14.9917L55.5858 -15.715L24.6076 43.3171L25.986 44.0404L56.9642 -14.9917ZM55.5867 -15.7146C55.5064 -15.7567 53.5314 -16.8282 51.42 -17.7013L25.9415 43.9046C25.4828 43.7149 25.1184 43.5496 24.8758 43.4362C24.6328 43.3227 24.4582 43.2359 24.3812 43.1973C24.3043 43.1588 24.274 43.1426 24.3247 43.169C24.3804 43.1979 24.4518 43.2353 24.6068 43.3167L55.5867 -15.7146ZM51.4208 -17.701C48.6682 -18.8395 43.7949 -20.5 37.5 -20.5V46.1667C32.0113 46.1667 27.8806 44.7066 25.9408 43.9043L51.4208 -17.701ZM50.8366 44.2133C50.9933 44.1311 51.0724 44.0897 51.1316 44.0589C51.188 44.0296 51.1595 44.0448 51.0831 44.0832C51.0068 44.1215 50.8238 44.2127 50.5683 44.3324C50.3119 44.4525 49.9259 44.6279 49.4411 44.8285L23.9616 -16.777C21.8848 -15.9181 19.9123 -14.8471 19.8578 -14.8185L50.8366 44.2133ZM49.4404 44.8287C47.4335 45.6587 43.1672 47.1667 37.5 47.1667V-19.5C31.3801 -19.5 26.6414 -17.8853 23.9622 -16.7773L49.4404 44.8287ZM37.5 47.1667C31.8328 47.1667 27.5665 45.6587 25.5596 44.8287L51.0378 -16.7773C48.3586 -17.8853 43.6199 -19.5 37.5 -19.5V47.1667ZM25.5589 44.8285C25.0741 44.628 24.6882 44.4525 24.4318 44.3324C24.1764 44.2128 23.9934 44.1216 23.917 44.0832C23.8406 44.0448 23.812 44.0296 23.8684 44.0589C23.9275 44.0896 24.0065 44.131 24.1631 44.2132L55.1425 -14.8184C55.0874 -14.8473 53.1153 -15.9181 51.0384 -16.777L25.5589 44.8285ZM24.1635 44.2134L25.4969 44.9131L56.4754 -14.1189L55.1421 -14.8186L24.1635 44.2134ZM25.4968 44.9131C25.6886 45.0137 25.7894 45.0667 25.8666 45.1077C25.9406 45.147 25.9156 45.1343 25.8366 45.0907C25.7577 45.0473 25.5577 44.9361 25.283 44.7731C25.0074 44.6095 24.5933 44.3565 24.092 44.0216L61.1167 -11.4185C58.9292 -12.8794 56.574 -14.0671 56.4754 -14.1189L25.4968 44.9131ZM24.0921 44.0217C23.1138 43.3684 21.4884 42.1972 19.6988 40.4389L66.4205 -7.11657C64.3921 -9.10944 62.4711 -10.514 61.1165 -11.4186L24.0921 44.0217ZM28.1526 -13.1531L25.9322 -12.0429L55.7462 47.5857L57.9667 46.4754L28.1526 -13.1531ZM56.364 -11.7259L50.6975 -14.7083L19.6478 44.2863L25.3144 47.2687L56.364 -11.7259ZM50.6617 44.3051L50.8362 44.2135L19.8581 -14.8187L19.6836 -14.7271L50.6617 44.3051ZM18.6401 -14.1795L18.5242 -14.1187L49.5035 44.9129L49.6194 44.8521L18.6401 -14.1795ZM18.5247 -14.1189C18.4253 -14.0668 16.0708 -12.8794 13.8835 -11.4187L50.9078 44.0218C50.4066 44.3565 49.9927 44.6095 49.7171 44.773C49.4425 44.936 49.2425 45.0471 49.1636 45.0906C49.0846 45.1341 49.0596 45.1469 49.1335 45.1076C49.2106 45.0667 49.3114 45.0137 49.5031 44.9131L18.5247 -14.1189ZM13.8839 -11.4189C12.5322 -10.5162 10.6073 -9.10973 8.57418 -7.11135L55.3065 40.4337C53.5121 42.1975 51.8829 43.3706 50.9074 44.022L13.8839 -11.4189ZM17.0332 46.4754L22.5928 49.2552L52.4072 -10.3732L46.8476 -13.153L17.0332 46.4754ZM52.4072 49.2552L54.6453 48.1361L24.8309 -11.4923L22.5928 -10.3732L52.4072 49.2552ZM55.263 -11.1754L49.792 -14.0548L18.7423 44.9398L24.2133 47.8192L55.263 -11.1754ZM49.7911 -14.0553C53.2296 -12.2457 56.269 -9.86696 58.806 -7.07349L9.45359 37.746C12.0668 40.6236 15.1984 43.0747 18.7432 44.9402L49.7911 -14.0553ZM-0.982847 9.87842C-1.44296 11.8271 -1.66914 13.5166 -1.79197 14.7631L64.5534 21.3006C64.4678 22.1689 64.2925 23.5346 63.8998 25.1981L-0.982847 9.87842ZM-1.79206 14.764C-2.03704 17.2508 -2 19.7725 -2 19.961H64.6667C64.6667 19.7371 64.6667 19.6104 64.6672 19.5095C64.6676 19.4121 64.6681 19.4197 64.6668 19.4864C64.6656 19.5527 64.6613 19.7494 64.6476 20.0312C64.6339 20.3136 64.6074 20.7518 64.5535 21.2997L-1.79206 14.764ZM-2 19.961V20.039H64.6667V19.961H-2ZM-2 20.039C-2 20.2275 -2.03704 22.7492 -1.79205 25.2361L64.5535 18.7002C64.6074 19.2481 64.6339 19.6864 64.6476 19.9688C64.6613 20.2506 64.6656 20.4473 64.6668 20.5136C64.6681 20.5803 64.6676 20.588 64.6672 20.4905C64.6667 20.3896 64.6667 20.2629 64.6667 20.039H-2ZM-1.79206 25.2359C-1.47983 28.4055 -0.554094 33.9677 2.93841 39.8992L60.3865 6.07373C63.5811 11.4993 64.3328 16.4603 64.5535 18.7003L-1.79206 25.2359ZM2.93992 39.9018C6.48691 45.9246 11.0063 49.4971 13.8827 51.4181L50.9087 -4.02119C53.0434 -2.59552 57.1342 0.551379 60.385 6.07117L2.93992 39.9018ZM13.8835 51.4187C16.0707 52.8794 18.4266 54.0675 18.5234 54.1183L49.5044 -4.91241C49.3123 -5.01321 49.2113 -5.0663 49.1339 -5.10741C49.0596 -5.1468 49.0845 -5.13418 49.1633 -5.09073C49.242 -5.04736 49.442 -4.93625 49.7167 -4.77327C49.9923 -4.60974 50.4064 -4.35665 50.9078 -4.02176L13.8835 51.4187ZM18.5252 54.1192L19.8585 54.8189L50.8359 -4.21369L49.5025 -4.91336L18.5252 54.1192ZM19.858 54.8186C19.9108 54.8463 21.8853 55.9185 23.9636 56.7779L49.439 -4.82933C49.9246 -4.62855 50.3111 -4.45287 50.5678 -4.33261C50.8236 -4.21279 51.0068 -4.1215 51.0832 -4.08313C51.1596 -4.0447 51.1882 -4.02948 51.1316 -4.05886C51.0724 -4.08967 50.9933 -4.13108 50.8364 -4.21342L19.858 54.8186ZM23.9557 56.7746C24.8055 57.1263 25.8806 57.5354 27.1398 57.9253L46.8602 -5.75793C47.9372 -5.4244 48.8153 -5.08744 49.4469 -4.82606L23.9557 56.7746ZM70.3333 26.0837V20.309H3.66667V26.0837H70.3333ZM51.907 -9.50527L46.3655 -12.276L16.5514 47.3525L22.093 50.1233L51.907 -9.50527ZM47.8602 57.9253C49.1194 57.5354 50.1945 57.1263 51.0443 56.7746L25.5531 -4.82606C26.1847 -5.08744 27.0628 -5.4244 28.1398 -5.75793L47.8602 57.9253ZM51.0364 56.7779C53.1147 55.9185 55.0889 54.8465 55.1423 54.8185L24.1633 -4.21328C24.0065 -4.13099 23.9275 -4.08959 23.8683 -4.05883C23.8118 -4.02948 23.8404 -4.04473 23.9169 -4.08317C23.9934 -4.12157 24.1766 -4.21286 24.4323 -4.33267C24.689 -4.45292 25.0755 -4.62858 25.561 -4.82933L51.0364 56.7779ZM55.1415 54.8189L56.4748 54.1192L25.4975 -4.91336L24.1641 -4.21369L55.1415 54.8189ZM56.4765 54.1184C56.573 54.0677 58.9293 52.8794 61.1167 51.4186L24.092 -4.02161C24.5935 -4.35659 25.0077 -4.60973 25.2834 -4.7733C25.5581 -4.9363 25.7581 -5.04744 25.8368 -5.09081C25.9157 -5.13427 25.9405 -5.14689 25.8663 -5.10749C25.7888 -5.06637 25.6879 -5.01329 25.4958 -4.91246L56.4765 54.1184ZM61.1185 51.4174C63.9942 49.4966 68.5133 45.9243 72.0601 39.9018L14.615 6.07117C17.8655 0.551702 21.9561 -2.595 24.0902 -4.02042L61.1185 51.4174ZM72.0599 39.902C75.5541 33.969 76.4802 28.4049 76.7924 25.2322L10.4461 18.7041C10.6668 16.461 11.419 11.4979 14.6152 6.07092L72.0599 39.902ZM76.7917 25.2398C77.0372 22.7503 77 20.2252 77 20.039H10.3333C10.3333 20.2631 10.3333 20.3898 10.3328 20.4908C10.3324 20.5883 10.3319 20.5805 10.3332 20.5136C10.3344 20.4471 10.3387 20.25 10.3524 19.9676C10.3662 19.6846 10.3927 19.2455 10.4469 18.6965L76.7917 25.2398ZM77 20.039V19.961H10.3333V20.039H77ZM77 19.961C77 19.7747 77.0372 17.2498 76.7917 14.7603L10.4469 21.3034C10.3927 20.7545 10.3662 20.3154 10.3524 20.0324C10.3387 19.75 10.3344 19.5529 10.3332 19.4864C10.3319 19.4195 10.3324 19.4117 10.3328 19.5092C10.3333 19.6102 10.3333 19.7369 10.3333 19.961H77ZM76.7925 14.769C76.6692 13.5154 76.4425 11.8254 75.9829 9.87875L11.1002 25.1977C10.7079 23.5363 10.5321 22.1701 10.446 21.2947L76.7925 14.769ZM28.6343 -12.276L26.4261 -11.1718L56.2405 48.4566L58.4487 47.3525L28.6343 -12.276ZM8 18.6424V20.6667H74.6667V18.6424H8ZM8 20.6667C8 2.53332 22.7 -12.1667 40.8333 -12.1667V54.5C59.519 54.5 74.6667 39.3523 74.6667 20.6667H8ZM40.8333 -12.1667C58.9667 -12.1667 73.6667 2.53332 73.6667 20.6667H7C7 39.3523 22.1477 54.5 40.8333 54.5V-12.1667ZM73.6667 20.6667V19.1423H7V20.6667H73.6667ZM25.4262 -10.6719L23.0929 -9.50523L52.9071 50.1232L55.2404 48.9566L25.4262 -10.6719ZM4.66667 20.309V26.0837H71.3333V20.309H4.66667Z" fill="#767F87" mask="url(#path-1-inside-1_261_369)"/>
<path d="M15.457 43H13.6758L13.6875 42.0801H15.457C16.0664 42.0801 16.5742 41.9531 16.9805 41.6992C17.3867 41.4414 17.6914 41.082 17.8945 40.6211C18.1016 40.1562 18.2051 39.6133 18.2051 38.9922V38.4707C18.2051 37.9824 18.1465 37.5488 18.0293 37.1699C17.9121 36.7871 17.7402 36.4648 17.5137 36.2031C17.2871 35.9375 17.0098 35.7363 16.6816 35.5996C16.3574 35.4629 15.9844 35.3945 15.5625 35.3945H13.6406V34.4688H15.5625C16.1211 34.4688 16.6309 34.5625 17.0918 34.75C17.5527 34.9336 17.9492 35.2012 18.2812 35.5527C18.6172 35.9004 18.875 36.3223 19.0547 36.8184C19.2344 37.3105 19.3242 37.8652 19.3242 38.4824V38.9922C19.3242 39.6094 19.2344 40.166 19.0547 40.6621C18.875 41.1543 18.6152 41.5742 18.2754 41.9219C17.9395 42.2695 17.5332 42.5371 17.0566 42.7246C16.584 42.9082 16.0508 43 15.457 43ZM14.2793 34.4688V43H13.1484V34.4688H14.2793ZM15.9316 38.2129V39.1035H12.1992V38.2129H15.9316ZM26.25 35.9629H27.123C27.123 36.3926 27.0645 36.7637 26.9473 37.0762C26.8301 37.3848 26.6348 37.623 26.3613 37.791C26.0879 37.959 25.7168 38.043 25.248 38.043V37.3633C25.541 37.3633 25.7578 37.3047 25.8984 37.1875C26.043 37.0703 26.1367 36.9062 26.1797 36.6953C26.2266 36.4844 26.25 36.2402 26.25 35.9629ZM20.5723 39.9004V39.7656C20.5723 39.3086 20.6387 38.8848 20.7715 38.4941C20.9043 38.0996 21.0957 37.7578 21.3457 37.4688C21.5957 37.1758 21.8984 36.9492 22.2539 36.7891C22.6094 36.625 23.0078 36.543 23.4492 36.543C23.8945 36.543 24.2949 36.625 24.6504 36.7891C25.0098 36.9492 25.3145 37.1758 25.5645 37.4688C25.8145 37.7578 26.0059 38.0996 26.1387 38.4941C26.2715 38.8848 26.3379 39.3086 26.3379 39.7656V39.9004C26.3379 40.3574 26.2715 40.7812 26.1387 41.1719C26.0059 41.5625 25.8145 41.9043 25.5645 42.1973C25.3145 42.4863 25.0117 42.7129 24.6562 42.877C24.3047 43.0371 23.9062 43.1172 23.4609 43.1172C23.0156 43.1172 22.6152 43.0371 22.2598 42.877C21.9043 42.7129 21.5996 42.4863 21.3457 42.1973C21.0957 41.9043 20.9043 41.5625 20.7715 41.1719C20.6387 40.7812 20.5723 40.3574 20.5723 39.9004ZM21.6562 39.7656V39.9004C21.6562 40.2168 21.6934 40.5156 21.7676 40.7969C21.8418 41.0742 21.9531 41.3203 22.1016 41.5352C22.2539 41.75 22.4434 41.9199 22.6699 42.0449C22.8965 42.166 23.1602 42.2266 23.4609 42.2266C23.7578 42.2266 24.0176 42.166 24.2402 42.0449C24.4668 41.9199 24.6543 41.75 24.8027 41.5352C24.9512 41.3203 25.0625 41.0742 25.1367 40.7969C25.2148 40.5156 25.2539 40.2168 25.2539 39.9004V39.7656C25.2539 39.4531 25.2148 39.1582 25.1367 38.8809C25.0625 38.5996 24.9492 38.3516 24.7969 38.1367C24.6484 37.918 24.4609 37.7461 24.2344 37.6211C24.0117 37.4961 23.75 37.4336 23.4492 37.4336C23.1523 37.4336 22.8906 37.4961 22.6641 37.6211C22.4414 37.7461 22.2539 37.918 22.1016 38.1367C21.9531 38.3516 21.8418 38.5996 21.7676 38.8809C21.6934 39.1582 21.6562 39.4531 21.6562 39.7656ZM28.8105 38.0137V43H27.7266V36.6602H28.752L28.8105 38.0137ZM28.5527 39.5898L28.1016 39.5723C28.1055 39.1387 28.1699 38.7383 28.2949 38.3711C28.4199 38 28.5957 37.6777 28.8223 37.4043C29.0488 37.1309 29.3184 36.9199 29.6309 36.7715C29.9473 36.6191 30.2969 36.543 30.6797 36.543C30.9922 36.543 31.2734 36.5859 31.5234 36.6719C31.7734 36.7539 31.9863 36.8867 32.1621 37.0703C32.3418 37.2539 32.4785 37.4922 32.5723 37.7852C32.666 38.0742 32.7129 38.4277 32.7129 38.8457V43H31.623V38.834C31.623 38.502 31.5742 38.2363 31.4766 38.0371C31.3789 37.834 31.2363 37.6875 31.0488 37.5977C30.8613 37.5039 30.6309 37.457 30.3574 37.457C30.0879 37.457 29.8418 37.5137 29.6191 37.627C29.4004 37.7402 29.2109 37.8965 29.0508 38.0957C28.8945 38.2949 28.7715 38.5234 28.6816 38.7812C28.5957 39.0352 28.5527 39.3047 28.5527 39.5898ZM38.4199 34V43H37.3359V34H38.4199ZM38.1621 39.5898L37.7109 39.5723C37.7148 39.1387 37.7793 38.7383 37.9043 38.3711C38.0293 38 38.2051 37.6777 38.4316 37.4043C38.6582 37.1309 38.9277 36.9199 39.2402 36.7715C39.5566 36.6191 39.9062 36.543 40.2891 36.543C40.6016 36.543 40.8828 36.5859 41.1328 36.6719C41.3828 36.7539 41.5957 36.8867 41.7715 37.0703C41.9512 37.2539 42.0879 37.4922 42.1816 37.7852C42.2754 38.0742 42.3223 38.4277 42.3223 38.8457V43H41.2324V38.834C41.2324 38.502 41.1836 38.2363 41.0859 38.0371C40.9883 37.834 40.8457 37.6875 40.6582 37.5977C40.4707 37.5039 40.2402 37.457 39.9668 37.457C39.6973 37.457 39.4512 37.5137 39.2285 37.627C39.0098 37.7402 38.8203 37.8965 38.6602 38.0957C38.5039 38.2949 38.3809 38.5234 38.291 38.7812C38.2051 39.0352 38.1621 39.3047 38.1621 39.5898ZM47.6836 41.916V38.6523C47.6836 38.4023 47.6328 38.1855 47.5312 38.002C47.4336 37.8145 47.2852 37.6699 47.0859 37.5684C46.8867 37.4668 46.6406 37.416 46.3477 37.416C46.0742 37.416 45.834 37.4629 45.627 37.5566C45.4238 37.6504 45.2637 37.7734 45.1465 37.9258C45.0332 38.0781 44.9766 38.2422 44.9766 38.418H43.8926C43.8926 38.1914 43.9512 37.9668 44.0684 37.7441C44.1855 37.5215 44.3535 37.3203 44.5723 37.1406C44.7949 36.957 45.0605 36.8125 45.3691 36.707C45.6816 36.5977 46.0293 36.543 46.4121 36.543C46.873 36.543 47.2793 36.6211 47.6309 36.7773C47.9863 36.9336 48.2637 37.1699 48.4629 37.4863C48.666 37.7988 48.7676 38.1914 48.7676 38.6641V41.6172C48.7676 41.8281 48.7852 42.0527 48.8203 42.291C48.8594 42.5293 48.916 42.7344 48.9902 42.9062V43H47.8594C47.8047 42.875 47.7617 42.709 47.7305 42.502C47.6992 42.291 47.6836 42.0957 47.6836 41.916ZM47.8711 39.1562L47.8828 39.918H46.7871C46.4785 39.918 46.2031 39.9434 45.9609 39.9941C45.7188 40.041 45.5156 40.1133 45.3516 40.2109C45.1875 40.3086 45.0625 40.4316 44.9766 40.5801C44.8906 40.7246 44.8477 40.8945 44.8477 41.0898C44.8477 41.2891 44.8926 41.4707 44.9824 41.6348C45.0723 41.7988 45.207 41.9297 45.3867 42.0273C45.5703 42.1211 45.7949 42.168 46.0605 42.168C46.3926 42.168 46.6855 42.0977 46.9395 41.957C47.1934 41.8164 47.3945 41.6445 47.543 41.4414C47.6953 41.2383 47.7773 41.041 47.7891 40.8496L48.252 41.3711C48.2246 41.5352 48.1504 41.7168 48.0293 41.916C47.9082 42.1152 47.7461 42.3066 47.543 42.4902C47.3438 42.6699 47.1055 42.8203 46.8281 42.9414C46.5547 43.0586 46.2461 43.1172 45.9023 43.1172C45.4727 43.1172 45.0957 43.0332 44.7715 42.8652C44.4512 42.6973 44.2012 42.4727 44.0215 42.1914C43.8457 41.9062 43.7578 41.5879 43.7578 41.2363C43.7578 40.8965 43.8242 40.5977 43.957 40.3398C44.0898 40.0781 44.2812 39.8613 44.5312 39.6895C44.7812 39.5137 45.082 39.3809 45.4336 39.291C45.7852 39.2012 46.1777 39.1562 46.6113 39.1562H47.8711ZM46.0137 34L47.1445 35.7227H46.2129L44.7012 34H46.0137ZM51.5566 38.0137V43H50.4727V36.6602H51.498L51.5566 38.0137ZM51.2988 39.5898L50.8477 39.5723C50.8516 39.1387 50.916 38.7383 51.041 38.3711C51.166 38 51.3418 37.6777 51.5684 37.4043C51.7949 37.1309 52.0645 36.9199 52.377 36.7715C52.6934 36.6191 53.043 36.543 53.4258 36.543C53.7383 36.543 54.0195 36.5859 54.2695 36.6719C54.5195 36.7539 54.7324 36.8867 54.9082 37.0703C55.0879 37.2539 55.2246 37.4922 55.3184 37.7852C55.4121 38.0742 55.459 38.4277 55.459 38.8457V43H54.3691V38.834C54.3691 38.502 54.3203 38.2363 54.2227 38.0371C54.125 37.834 53.9824 37.6875 53.7949 37.5977C53.6074 37.5039 53.377 37.457 53.1035 37.457C52.834 37.457 52.5879 37.5137 52.3652 37.627C52.1465 37.7402 51.957 37.8965 51.7969 38.0957C51.6406 38.2949 51.5176 38.5234 51.4277 38.7812C51.3418 39.0352 51.2988 39.3047 51.2988 39.5898ZM61.2129 36.6602H62.1973V42.8652C62.1973 43.4238 62.084 43.9004 61.8574 44.2949C61.6309 44.6895 61.3145 44.9883 60.9082 45.1914C60.5059 45.3984 60.041 45.502 59.5137 45.502C59.2949 45.502 59.0371 45.4668 58.7402 45.3965C58.4473 45.3301 58.1582 45.2148 57.873 45.0508C57.5918 44.8906 57.3555 44.6738 57.1641 44.4004L57.7324 43.7559C57.998 44.0762 58.2754 44.2988 58.5645 44.4238C58.8574 44.5488 59.1465 44.6113 59.4316 44.6113C59.7754 44.6113 60.0723 44.5469 60.3223 44.418C60.5723 44.2891 60.7656 44.0977 60.9023 43.8438C61.043 43.5938 61.1133 43.2852 61.1133 42.918V38.0547L61.2129 36.6602ZM56.8477 39.9004V39.7773C56.8477 39.293 56.9043 38.8535 57.0176 38.459C57.1348 38.0605 57.3008 37.7188 57.5156 37.4336C57.7344 37.1484 57.998 36.9297 58.3066 36.7773C58.6152 36.6211 58.9629 36.543 59.3496 36.543C59.748 36.543 60.0957 36.6133 60.3926 36.7539C60.6934 36.8906 60.9473 37.0918 61.1543 37.3574C61.3652 37.6191 61.5312 37.9355 61.6523 38.3066C61.7734 38.6777 61.8574 39.0977 61.9043 39.5664V40.1055C61.8613 40.5703 61.7773 40.9883 61.6523 41.3594C61.5312 41.7305 61.3652 42.0469 61.1543 42.3086C60.9473 42.5703 60.6934 42.7715 60.3926 42.9121C60.0918 43.0488 59.7402 43.1172 59.3379 43.1172C58.959 43.1172 58.6152 43.0371 58.3066 42.877C58.002 42.7168 57.7402 42.4922 57.5215 42.2031C57.3027 41.9141 57.1348 41.5742 57.0176 41.1836C56.9043 40.7891 56.8477 40.3613 56.8477 39.9004ZM57.9316 39.7773V39.9004C57.9316 40.2168 57.9629 40.5137 58.0254 40.791C58.0918 41.0684 58.1914 41.3125 58.3242 41.5234C58.4609 41.7344 58.6348 41.9004 58.8457 42.0215C59.0566 42.1387 59.3086 42.1973 59.6016 42.1973C59.9609 42.1973 60.2578 42.1211 60.4922 41.9688C60.7266 41.8164 60.9121 41.6152 61.0488 41.3652C61.1895 41.1152 61.2988 40.8438 61.377 40.5508V39.1387C61.334 38.9238 61.2676 38.7168 61.1777 38.5176C61.0918 38.3145 60.9785 38.1348 60.8379 37.9785C60.7012 37.8184 60.5312 37.6914 60.3281 37.5977C60.125 37.5039 59.8867 37.457 59.6133 37.457C59.3164 37.457 59.0605 37.5195 58.8457 37.6445C58.6348 37.7656 58.4609 37.9336 58.3242 38.1484C58.1914 38.3594 58.0918 38.6055 58.0254 38.8867C57.9629 39.1641 57.9316 39.4609 57.9316 39.7773Z" fill="#808080"/>
</svg>
